<svg xmlns="http://www.w3.org/2000/svg" width="256.451" height="251.999" viewBox="0 0 256.451 251.999">
  <g id="Group_16700" data-name="Group 16700" transform="translate(-909.5 -8192)">
    <circle id="Ellipse_513" data-name="Ellipse 513" cx="116" cy="116" r="116" transform="translate(920 8192)" fill="#4eb3e3"/>
    <g id="email_1_" data-name="email (1)" transform="translate(913.69 8239.999)">
      <g id="Group_16649" data-name="Group 16649" transform="translate(36.612 0.001)">
        <g id="Union_39" data-name="Union 39" transform="translate(-2191.698 13575)" fill="#fff" stroke-linecap="round" stroke-linejoin="round">
          <path d="M 2303.054443359375 -13373.0009765625 C 2267.78857421875 -13373.0009765625 2232.025146484375 -13373.6162109375 2196.757080078125 -13374.8291015625 C 2195.215087890625 -13374.880859375 2193.741943359375 -13375.5244140625 2192.610595703125 -13376.640625 C 2191.479736328125 -13377.7568359375 2190.81640625 -13379.2216796875 2190.742919921875 -13380.7646484375 C 2189.900146484375 -13398.931640625 2189.56494140625 -13417.3525390625 2189.746337890625 -13435.515625 C 2189.927734375 -13453.673828125 2190.630615234375 -13472.0859375 2191.83544921875 -13490.240234375 L 2191.884521484375 -13490.98046875 L 2192.4052734375 -13491.509765625 C 2210.244384765625 -13509.6474609375 2228.11669921875 -13528.630859375 2245.400390625 -13546.98828125 C 2253.71875 -13555.8232421875 2262.320068359375 -13564.958984375 2270.840087890625 -13573.9189453125 C 2272.7275390625 -13575.90625 2275.243896484375 -13577.0009765625 2277.92529296875 -13577.0009765625 C 2280.6162109375 -13577.0009765625 2283.137451171875 -13575.8994140625 2285.024658203125 -13573.900390625 C 2293.65234375 -13564.7646484375 2302.35693359375 -13555.4453125 2310.775146484375 -13546.43359375 C 2327.886474609375 -13528.1142578125 2345.580322265625 -13509.1708984375 2363.294921875 -13491.0595703125 L 2364.145751953125 -13490.189453125 L 2363.878173828125 -13489.37890625 C 2364.7890625 -13471.1689453125 2365.191650390625 -13452.712890625 2365.074951171875 -13434.5185546875 C 2364.95703125 -13416.1943359375 2364.30908203125 -13397.619140625 2363.14892578125 -13379.3076171875 C 2363.048583984375 -13377.763671875 2362.361083984375 -13376.310546875 2361.212646484375 -13375.21484375 C 2360.06396484375 -13374.1181640625 2358.581298828125 -13373.5 2357.037841796875 -13373.47265625 C 2339.124267578125 -13373.16015625 2320.961669921875 -13373.0009765625 2303.054443359375 -13373.0009765625 Z" stroke="none"/>
          <path d="M 2303.054443359375 -13375.0009765625 C 2321.0380859375 -13375.0009765625 2339.016357421875 -13375.158203125 2357.003173828125 -13375.47265625 C 2359.15283203125 -13375.509765625 2361.01318359375 -13377.28515625 2361.15283203125 -13379.4345703125 C 2363.479736328125 -13416.1572265625 2363.715087890625 -13452.896484375 2361.86181640625 -13489.6533203125 C 2361.864013671875 -13489.658203125 2361.864990234375 -13489.6611328125 2361.864990234375 -13489.6611328125 C 2335.436279296875 -13516.6826171875 2309.774169921875 -13544.7802734375 2283.5703125 -13572.52734375 C 2280.462890625 -13575.8193359375 2275.409912109375 -13575.8251953125 2272.289306640625 -13572.541015625 C 2246.024169921875 -13544.919921875 2220.2529296875 -13516.9716796875 2193.8310546875 -13490.107421875 C 2191.41552734375 -13453.708984375 2191.05078125 -13417.291015625 2192.74072265625 -13380.859375 C 2192.843017578125 -13378.708984375 2194.676025390625 -13376.900390625 2196.825927734375 -13376.828125 C 2232.22705078125 -13375.6103515625 2267.641357421875 -13375.0009765625 2303.054443359375 -13375.0009765625 M 2303.054443359375 -13371.0009765625 C 2267.76611328125 -13371.0009765625 2231.9794921875 -13371.6162109375 2196.6884765625 -13372.830078125 C 2194.644287109375 -13372.8994140625 2192.696044921875 -13373.7470703125 2191.2060546875 -13375.216796875 C 2189.716552734375 -13376.6865234375 2188.842529296875 -13378.623046875 2188.745361328125 -13380.6689453125 C 2187.900634765625 -13398.876953125 2187.564697265625 -13417.3349609375 2187.74658203125 -13435.5361328125 C 2187.92822265625 -13453.7314453125 2188.632568359375 -13472.1806640625 2189.83984375 -13490.3720703125 C 2189.9033203125 -13491.328125 2190.3076171875 -13492.2294921875 2190.979248046875 -13492.912109375 C 2208.80322265625 -13511.0341796875 2226.667724609375 -13530.0087890625 2243.944091796875 -13548.359375 C 2252.263916015625 -13557.1962890625 2260.8671875 -13566.333984375 2269.390625 -13575.2978515625 C 2270.5283203125 -13576.4951171875 2271.86279296875 -13577.4267578125 2273.35546875 -13578.064453125 C 2274.81005859375 -13578.685546875 2276.347412109375 -13579.0009765625 2277.92529296875 -13579.0009765625 C 2279.50830078125 -13579.0009765625 2281.050048828125 -13578.68359375 2282.5078125 -13578.05859375 C 2284.00439453125 -13577.416015625 2285.34033203125 -13576.4794921875 2286.47900390625 -13575.2734375 C 2295.110107421875 -13566.1337890625 2303.81689453125 -13556.8125 2312.23681640625 -13547.7978515625 C 2329.34033203125 -13529.4873046875 2347.0263671875 -13510.5537109375 2364.724609375 -13492.4580078125 C 2365.460205078125 -13491.7060546875 2365.857177734375 -13490.7099609375 2365.864990234375 -13489.6904296875 C 2366.785400390625 -13471.3740234375 2367.1923828125 -13452.8076171875 2367.07470703125 -13434.505859375 C 2366.956787109375 -13416.1435546875 2366.307373046875 -13397.5302734375 2365.144775390625 -13379.181640625 C 2365.144775390625 -13379.1796875 2365.14453125 -13379.177734375 2365.14453125 -13379.1748046875 C 2365.01171875 -13377.1318359375 2364.10595703125 -13375.2119140625 2362.59375 -13373.7685546875 C 2361.08056640625 -13372.3232421875 2359.11962890625 -13371.5087890625 2357.072265625 -13371.4736328125 C 2339.146484375 -13371.16015625 2320.97216796875 -13371.0009765625 2303.054443359375 -13371.0009765625 Z" stroke="none" fill="#fff"/>
        </g>
        <path id="Path_28551" data-name="Path 28551" d="M46.158,90.9a19.575,19.575,0,0,1-4.087-6C68.493,58.028,94.265,30.08,120.529,2.458a7.686,7.686,0,0,1,11.28.014c26.206,27.749,51.867,55.845,78.295,82.869a18.851,18.851,0,0,1-4.4,5.65c-16.475,15.388-33.072,31.062-49.4,46.731a26.974,26.974,0,0,1-14.1,6.43q-17.815,1.462-35.575,2.677c-4.446.3-10.593-2.223-13.688-5.6C77.494,124.352,61.758,107.476,46.158,90.9Z" transform="translate(-39.939 -0.001)" fill="#fca351" fill-rule="evenodd"/>
        <g id="Path_28552" data-name="Path 28552" transform="translate(-75.724 -26.039)" fill="#f6b6c0" stroke-linecap="round" stroke-linejoin="round" fill-rule="evenodd">
          <path d="M 173.1923217773438 175.6466217041016 C 173.1914215087891 175.6466217041016 173.1915130615234 175.6466217041016 173.1906127929688 175.6466217041016 C 150.6654663085938 175.6466064453125 127.8268737792969 175.0926055908203 105.309211730957 174.0000305175781 C 103.763671875 173.9247589111328 102.3010864257812 173.2577819824219 101.190559387207 172.1219482421875 C 100.0812911987305 170.9874114990234 99.44672393798828 169.5115051269531 99.40380096435547 167.9660949707031 C 98.33927154541016 127.9307250976562 98.68294525146484 87.35523223876953 100.4252319335938 47.36432647705078 C 100.4926147460938 45.81896209716797 101.1517028808594 44.35329055786133 102.2810668945312 43.23725509643555 C 103.4099578857422 42.12167358398438 104.8830871582031 41.47961807250977 106.429084777832 41.42938232421875 C 121.0938720703125 40.96601867675781 135.9649200439453 40.73110961914062 150.6309661865234 40.73110961914062 C 162.8781127929688 40.73110961914062 175.2979278564453 40.89490509033203 187.547607421875 41.21797561645508 L 219.2058563232422 41.43892669677734 L 219.2355499267578 41.43912506103516 L 219.2652130126953 41.44021606445312 C 220.8479919433594 41.498291015625 222.3500366210938 42.16874313354492 223.4946136474609 43.32805252075195 C 224.6383361816406 44.48649215698242 225.2916412353516 45.99841690063477 225.3341369628906 47.58530807495117 L 225.3352661132812 47.62768936157227 L 225.3346099853516 47.67007064819336 L 224.9315490722656 73.50138092041016 C 225.3125457763672 105.1803359985352 224.8069458007812 137.3153686523438 223.4287109375 169.0122833251953 C 223.3598480224609 170.5593872070312 222.700439453125 172.0247192382812 221.5718383789062 173.1404724121094 C 220.4423217773438 174.2571105957031 218.9689178466797 174.8989868164062 217.4230651855469 174.9478607177734 C 202.7463073730469 175.4115142822266 187.8643188476562 175.6466217041016 173.1923217773438 175.6466217041016 Z" stroke="none"/>
          <path d="M 150.6308288574219 42.73109436035156 C 135.9196319580078 42.7310791015625 121.2088317871094 42.96337890625 106.4940338134766 43.42831420898438 C 104.3420562744141 43.49824523925781 102.5170745849609 45.30136108398438 102.42333984375 47.45138549804688 C 100.6744995117188 87.59246826171875 100.3350372314453 127.7464294433594 101.4030151367188 167.9105529785156 C 101.4627838134766 170.0613403320312 103.2557678222656 171.8976745605469 105.4061431884766 172.0023803710938 C 142.7128601074219 173.8125305175781 180.0293121337891 174.128173828125 217.35986328125 172.9488525390625 C 219.5102844238281 172.880859375 221.3348693847656 171.0761871337891 221.4305725097656 168.9254150390625 C 222.8134002685547 137.1233825683594 223.3145751953125 105.3151702880859 222.9313659667969 73.49752807617188 L 223.3348693847656 47.63887023925781 C 223.2751159667969 45.4091796875 221.4063720703125 43.52012634277344 219.19189453125 43.43887329101562 L 187.5137176513672 43.2177734375 C 175.2212982177734 42.89340209960938 162.9256134033203 42.73110961914062 150.6308288574219 42.73109436035156 M 150.6270446777344 38.73110961914062 L 150.6270446777344 42.73110961914062 L 150.6285552978516 38.73110961914062 C 162.8895721435547 38.73112487792969 175.3201904296875 38.89495849609375 187.5800628662109 39.2181396484375 L 219.2198181152344 39.43896484375 C 219.2594299316406 39.43923950195312 219.2990112304688 39.44010925292969 219.3385772705078 39.44157409667969 C 221.4324798583984 39.51838684082031 223.4139099121094 40.39962768554688 224.9178466796875 41.92292785644531 C 226.4194030761719 43.44378662109375 227.2772521972656 45.43569946289062 227.3334197998047 47.53172302246094 C 227.3349304199219 47.58822631835938 227.3352661132812 47.64476013183594 227.3343811035156 47.70126342773438 L 226.9317321777344 73.50529479980469 C 227.3125305175781 105.2117919921875 226.8062133789062 137.3752746582031 225.4268035888672 169.0991668701172 C 225.3354034423828 171.1529693603516 224.4657592773438 173.0918579101562 222.9779052734375 174.5627746582031 C 221.4884033203125 176.0353088378906 219.5380859375 176.8819885253906 217.4862365722656 176.9468383789062 C 202.7877197265625 177.4111938476562 187.8844757080078 177.6466217041016 173.1904144287109 177.6466217041016 C 150.6337280273438 177.6466217041016 127.7625885009766 177.0918426513672 105.2122802734375 175.9976806640625 C 103.1607971191406 175.8977813720703 101.2248992919922 175.0179290771484 99.760498046875 173.5201416015625 C 98.2982177734375 172.0245513916016 97.46151733398438 170.0718078613281 97.40455627441406 168.0216522216797 C 96.33871459960938 127.937629699707 96.68280029296875 87.31497192382812 98.42713928222656 47.27728271484375 C 98.51655578613281 45.22633361816406 99.385986328125 43.28639221191406 100.875244140625 41.81466674804688 C 102.3636169433594 40.34382629394531 104.3129425048828 39.49708557128906 106.3641052246094 39.430419921875 C 121.0512237548828 38.96633911132812 135.9422149658203 38.73110961914062 150.6270446777344 38.73110961914062 Z" stroke="none" fill="#fff"/>
        </g>
        <path id="Path_28553" data-name="Path 28553" d="M133.272,267.75q-5.088-5.507-10.172-11.015-6.07,4.831-12.163,9.668c-24.575-16.719-48.99-33.324-72.193-49.075a969.672,969.672,0,0,0-1.088,109.247,4.309,4.309,0,0,0,4.083,4.033q80.07,2.754,160.177,1.355A4.313,4.313,0,0,0,206.066,328a969.973,969.973,0,0,0,.711-110.224" transform="translate(-36.612 -132.434)" fill="#f8cc5d" fill-rule="evenodd"/>
        <path id="Path_28554" data-name="Path 28554" d="M67.344,336.932l57.833-53.968-51.452-39.52,55.74,36.188,11.741-10.3,11.426,10.593,59.2-37.82L156.46,283.188,216.744,338.2l-75.613-60.049Z" transform="translate(-55.339 -147.531)" fill="#1f343e" fill-rule="evenodd"/>
      </g>
      <g id="Group_16659" data-name="Group 16659" transform="translate(80.047 34.089)">
        <path id="Path_28557" data-name="Path 28557" d="M227.678,236.339a11.472,11.472,0,0,1-4.33-7.868c-.234-2.567-.389-5.686,1.15-7.9a7.018,7.018,0,0,1,6.812-3.1,9.676,9.676,0,0,1,4.33,1.7c1.751,1.291,2.791.277,4.193-.943,1.328-1.154,2.657-2.291,4.466-2.536,3.195-.432,6.523,2.1,7.862,4.767,1.481,2.959,1.166,6.234.357,9.339-.445,1.71-1.651,3.227-2.512,4.83C242.318,231.994,234.855,232.345,227.678,236.339Z" transform="translate(-193.749 -165.491)" fill="#1f343e" fill-rule="evenodd"/>
        <path id="Path_28558" data-name="Path 28558" d="M234.664,259.826c7.439-6.956,13.66-7.436,22.329-1.719C250.66,265.732,242.3,266.378,234.664,259.826Z" transform="translate(-200.734 -188.978)" fill="#ed6f82" fill-rule="evenodd"/>
        <g id="Group_16658" data-name="Group 16658">
          <g id="Group_16653" data-name="Group 16653">
            <g id="Group_16652" data-name="Group 16652">
              <g id="Group_16650" data-name="Group 16650" transform="translate(0 10.94)">
                <path id="Path_28559" data-name="Path 28559" d="M182.1,123.035l3.252,20.506a19.723,19.723,0,0,1-32.688,5.353,19.346,19.346,0,0,1,1.811-27.429,19.749,19.749,0,0,1,7.44-4.114Z" transform="translate(-147.804 -116.539)" fill="#fff" fill-rule="evenodd"/>
                <path id="Path_28560" data-name="Path 28560" d="M176.538,116.086a17.869,17.869,0,0,0-4.051,16.99A17.539,17.539,0,0,0,194.4,145.047a17.9,17.9,0,0,0,5.568-2.775,19.248,19.248,0,0,0-3.248-20.5A19.56,19.56,0,0,0,176.538,116.086Z" transform="translate(-162.427 -115.273)" fill="#1f343e" fill-rule="evenodd"/>
              </g>
              <g id="Group_16651" data-name="Group 16651" transform="translate(47.235 8.82)">
                <path id="Path_28561" data-name="Path 28561" d="M304.417,118.542l.893,20.746a19.725,19.725,0,0,1-33.085,1.588,19.345,19.345,0,0,1,4.925-27.043,19.753,19.753,0,0,1,7.861-3.239Z" transform="translate(-268.726 -110.301)" fill="#fff" fill-rule="evenodd"/>
                <path id="Path_28562" data-name="Path 28562" d="M300.743,110.142a17.874,17.874,0,0,0-5.964,16.415,17.534,17.534,0,0,0,20.406,14.391,17.926,17.926,0,0,0,5.852-2.117,19.249,19.249,0,0,0-.891-20.744A19.562,19.562,0,0,0,300.743,110.142Z" transform="translate(-284.456 -109.845)" fill="#1f343e" fill-rule="evenodd"/>
              </g>
              <path id="Path_28563" data-name="Path 28563" d="M346.132,93.141a13.441,13.441,0,0,0-12.6-5.795c-2.554.271-1.933,4.2.609,3.93,3.721-.394,6.752,1.366,8.88,4.335C344.511,97.7,347.615,95.216,346.132,93.141Z" transform="translate(-259.984 -87.266)" fill="#1f343e" fill-rule="evenodd"/>
              <path id="Path_28564" data-name="Path 28564" d="M162.567,89.741a13.433,13.433,0,0,0-11.867,7.18c-1.212,2.266,2.388,3.955,3.59,1.7,1.765-3.3,4.923-4.822,8.575-4.914C165.432,93.642,165.118,89.678,162.567,89.741Z" transform="translate(-149.419 -88.774)" fill="#1f343e" fill-rule="evenodd"/>
            </g>
          </g>
          <path id="Path_28565" data-name="Path 28565" d="M180.818,225.171c0,3.046-3.512,5.515-7.844,5.519s-7.852-2.459-7.856-5.506,3.51-5.518,7.846-5.52S180.815,222.126,180.818,225.171Z" transform="translate(-158.355 -167.946)" fill="#ed6f82"/>
          <path id="Path_28566" data-name="Path 28566" d="M340.254,217.96c0,3.045-3.508,5.516-7.842,5.517s-7.85-2.458-7.854-5.5,3.51-5.517,7.844-5.52S340.251,214.914,340.254,217.96Z" transform="translate(-255.513 -163.552)" fill="#ed6f82"/>
          <g id="Group_16655" data-name="Group 16655" transform="translate(21.982 14.788)">
            <path id="Path_28567" data-name="Path 28567" d="M222.388,134.052a13.81,13.81,0,0,0-6.4-5.185c-1.216-.447-1.773,1.484-.567,1.926a11.423,11.423,0,0,1,5.217,4.245C221.386,136.07,223.145,135.1,222.388,134.052Z" transform="translate(-210.58 -127.364)" fill="#fff"/>
            <path id="Path_28568" data-name="Path 28568" d="M206.3,125.368c-.314-.068-.623-.147-.934-.215a1.022,1.022,0,0,0-1.248.68,1.011,1.011,0,0,0,.681,1.245c.311.07.623.149.934.216a1,1,0,0,0,.567-1.925Z" transform="translate(-204.078 -125.124)" fill="#fff"/>
            <g id="Group_16654" data-name="Group 16654" transform="translate(11.358 9.684)">
              <path id="Path_28569" data-name="Path 28569" d="M235.017,150.423a1,1,0,0,0-1.366-.384,1.024,1.024,0,0,0-.383,1.364c0-.014,0-.02,0-.033a1,1,0,0,0,2.007.032A2.541,2.541,0,0,0,235.017,150.423Z" transform="translate(-233.155 -149.916)" fill="#fff"/>
              <path id="Path_28570" data-name="Path 28570" d="M233.338,153.512a.223.223,0,0,1,.01.047.38.38,0,0,0,0-.045C233.23,153.254,233.318,153.445,233.338,153.512Z" transform="translate(-233.236 -152.028)" fill="#fff"/>
              <path id="Path_28571" data-name="Path 28571" d="M233.443,153.835c.008.147.014.075,0,0Z" transform="translate(-233.331 -152.304)" fill="#fff"/>
              <path id="Path_28572" data-name="Path 28572" d="M233.439,153.724v0h0Z" transform="translate(-233.327 -152.234)" fill="#fff"/>
            </g>
          </g>
          <g id="Group_16657" data-name="Group 16657" transform="translate(68.486 11.438)">
            <path id="Path_28573" data-name="Path 28573" d="M341.44,125.476a13.8,13.8,0,0,0-6.4-5.186c-1.216-.445-1.771,1.484-.567,1.926a11.46,11.46,0,0,1,5.219,4.245C340.438,127.495,342.2,126.526,341.44,125.476Z" transform="translate(-329.632 -118.787)" fill="#fff"/>
            <path id="Path_28574" data-name="Path 28574" d="M325.348,116.793c-.311-.068-.621-.149-.934-.217a1.021,1.021,0,0,0-1.248.679,1.009,1.009,0,0,0,.681,1.245c.311.071.621.149.932.217a1.021,1.021,0,0,0,1.25-.68A1.009,1.009,0,0,0,325.348,116.793Z" transform="translate(-323.129 -116.547)" fill="#fff"/>
            <g id="Group_16656" data-name="Group 16656" transform="translate(11.358 9.685)">
              <path id="Path_28575" data-name="Path 28575" d="M354.067,141.847a1,1,0,0,0-1.366-.382,1.02,1.02,0,0,0-.383,1.363c0-.011,0-.018,0-.032a1,1,0,0,0,2.007.032A2.51,2.51,0,0,0,354.067,141.847Z" transform="translate(-352.205 -141.341)" fill="#fff"/>
              <path id="Path_28576" data-name="Path 28576" d="M352.393,144.935c0,.014.008.032.01.046,0-.011,0-.028,0-.045C352.283,144.676,352.373,144.869,352.393,144.935Z" transform="translate(-352.288 -143.452)" fill="#fff"/>
              <path id="Path_28577" data-name="Path 28577" d="M352.5,145.257c.006.148.014.076,0,0Z" transform="translate(-352.384 -143.727)" fill="#fff"/>
              <path id="Path_28578" data-name="Path 28578" d="M352.493,145.146v0h0Z" transform="translate(-352.381 -143.657)" fill="#fff"/>
            </g>
          </g>
        </g>
      </g>
      <path id="Path_28580" data-name="Path 28580" d="M193.863,288.056c-2.552,0-2.552,3.957,0,3.957S196.414,288.056,193.863,288.056Z" transform="translate(-94.659 -175.534)" fill="rgba(255,255,255,0.5)"/>
      <path id="Path_28581" data-name="Path 28581" d="M119.308,198.078c-2.552,0-2.552,3.958,0,3.958S121.861,198.078,119.308,198.078Z" transform="translate(-49.227 -120.703)" fill="rgba(255,255,255,0.5)"/>
      <path id="Path_28582" data-name="Path 28582" d="M391,222.521c-2.552,0-2.552,3.957,0,3.957S393.551,222.521,391,222.521Z" transform="translate(-214.789 -135.598)" fill="rgba(255,255,255,0.5)"/>
      <path id="Path_28583" data-name="Path 28583" d="M441.543,429.721c-2.552,0-2.552,3.958,0,3.958S444.094,429.721,441.543,429.721Z" transform="translate(-245.588 -261.861)" fill="rgba(255,255,255,0.5)"/>
      <path id="Path_28584" data-name="Path 28584" d="M220.215,424.657c-2.552,0-2.552,3.957,0,3.957S222.766,424.657,220.215,424.657Z" transform="translate(-110.717 -258.775)" fill="rgba(255,255,255,0.5)"/>
      <path id="Path_28585" data-name="Path 28585" d="M124.21,308.681c-2.552,0-2.552,3.957,0,3.957S126.761,308.681,124.21,308.681Z" transform="translate(-52.214 -188.102)" fill="rgba(255,255,255,0.5)"/>
      <g id="Group_16660" data-name="Group 16660" transform="translate(41.814 122.558)">
        <path id="Path_28586" data-name="Path 28586" d="M55.321,316.573c.282-3.463-5.089-3.9-5.371-.437S55.037,320.035,55.321,316.573Z" transform="translate(-49.936 -313.747)" fill="rgba(255,255,255,0.5)" fill-rule="evenodd"/>
        <path id="Path_28587" data-name="Path 28587" d="M55.192,373.708c.11-10.368,0-20.736.106-31.106.034-3.391-5.229-3.451-5.263-.057-.108,10.368,0,20.74-.1,31.105C49.9,377.045,55.158,377.1,55.192,373.708Z" transform="translate(-49.931 -329.763)" fill="rgba(255,255,255,0.5)" fill-rule="evenodd"/>
        <path id="Path_28588" data-name="Path 28588" d="M55.354,448.654c.275-3.382-4.969-3.811-5.245-.428S55.078,452.035,55.354,448.654Z" transform="translate(-50.033 -394.274)" fill="rgba(255,255,255,0.5)" fill-rule="evenodd"/>
      </g>
      <g id="Group_16661" data-name="Group 16661" transform="translate(118.522 187.297)">
        <path id="Path_28589" data-name="Path 28589" d="M249.1,480.417c-3.466-.253-3.857,5.121-.393,5.375S252.568,480.673,249.1,480.417Z" transform="translate(-246.301 -480.046)" fill="rgba(255,255,255,0.5)" fill-rule="evenodd"/>
        <path id="Path_28590" data-name="Path 28590" d="M306.237,479.871c-10.37-.022-20.738.177-31.107.152-3.392-.006-3.406,5.257-.014,5.265,10.37.022,20.74-.176,31.107-.156C309.617,485.14,309.631,479.877,306.237,479.871Z" transform="translate(-262.314 -479.717)" fill="rgba(255,255,255,0.5)" fill-rule="evenodd"/>
        <path id="Path_28591" data-name="Path 28591" d="M381.181,479.488c-3.384-.248-3.77,5-.385,5.248S384.566,479.735,381.181,479.488Z" transform="translate(-326.824 -479.479)" fill="rgba(255,255,255,0.5)" fill-rule="evenodd"/>
      </g>
      <g id="Group_16686" data-name="Group 16686" transform="translate(-409.69 -37.811)">
        <g id="Icon_ionic-md-star" data-name="Icon ionic-md-star" transform="translate(572.203 162.5)" fill="#f8f4f9" stroke-linecap="round" stroke-linejoin="round">
          <path d="M 6.493170261383057 29.91048431396484 L 7.163180351257324 27.02882385253906 L 8.954774856567383 19.3232364654541 L 2.978090286254883 14.14207458496094 L 0.7438002824783325 12.20517444610596 L 3.68992018699646 11.9521541595459 L 11.5687952041626 11.27549839019775 L 14.64591979980469 4.012384414672852 L 15.79699039459229 1.295444369316101 L 16.94788932800293 4.012454509735107 L 20.02443885803223 11.27549934387207 L 27.90386009216309 11.9521541595459 L 30.84999084472656 12.20516395568848 L 28.61569976806641 14.14207458496094 L 22.63902282714844 19.32327079772949 L 24.43008041381836 27.02890396118164 L 25.09986114501953 29.91047477722168 L 22.56680107116699 28.38219451904297 L 15.79686832427979 24.29767608642578 L 9.026410102844238 28.3822135925293 L 6.493170261383057 29.91048431396484 Z" stroke="none"/>
          <path d="M 23.21253967285156 27.31190490722656 L 21.25089073181152 18.87233352661133 L 27.79690933227539 13.19757461547852 L 19.16716957092285 12.4564847946167 L 15.79689025878906 4.500004291534424 L 12.42601013183594 12.4564847946167 L 3.79688024520874 13.19757461547852 L 10.34294986724854 18.87233352661133 L 8.38070011138916 27.31190490722656 L 15.79689025878906 22.83780479431152 L 23.21253967285156 27.31190490722656 M 8.380892753601074 29.81190872192383 C 7.863670349121094 29.81193351745605 7.348042011260986 29.65173149108887 6.911470413208008 29.33461380004883 C 6.098550319671631 28.7441349029541 5.718110084533691 27.72437477111816 5.945650100708008 26.7457447052002 L 7.566591262817383 19.77413368225098 L 2.159310340881348 15.08658409118652 C 1.400250315666199 14.42856407165527 1.108790278434753 13.38011455535889 1.419330239295959 12.42475414276123 C 1.729870200157166 11.46939468383789 2.582080364227295 10.79270458221436 3.582960367202759 10.70674419403076 L 10.71158123016357 10.09452152252197 L 13.49495983123779 3.524754285812378 C 13.88656997680664 2.600414514541626 14.79170703887939 1.999939203262329 15.79697036743164 2.000004291534424 C 16.80084037780762 2.000034332275391 17.70733070373535 2.600544452667236 18.09888076782227 3.524904251098633 L 20.88170051574707 10.09452247619629 L 28.01081085205078 10.70674419403076 C 29.01169013977051 10.79269409179688 29.86392021179199 11.46938419342041 30.17445945739746 12.42474460601807 C 30.48500061035156 13.38010406494141 30.19354057312012 14.42855453491211 29.43449020385742 15.08657455444336 L 24.02716255187988 19.77419853210449 L 25.64763069152832 26.74590492248535 C 25.87508964538574 27.72453498840332 25.49460029602051 28.74426460266113 24.68167114257812 29.33468437194824 C 23.86873817443848 29.92511367797852 22.78133201599121 29.97151374816895 21.92106056213379 29.45248413085938 L 15.79684162139893 25.75754547119141 L 9.672110557556152 29.45252418518066 C 9.273833274841309 29.69280052185059 8.826754570007324 29.81188774108887 8.380892753601074 29.81190872192383 Z" stroke="none" fill="#fff"/>
        </g>
        <path id="Icon_ionic-md-star-2" data-name="Icon ionic-md-star" d="M15.8,22.838l7.416,4.474-1.962-8.44L27.8,13.2l-8.63-.741L15.8,4.5l-3.371,7.956L3.8,13.2l6.546,5.675-1.962,8.44Z" transform="translate(572.203 162.5)" fill="#8cd943" stroke="#1f343e" stroke-linecap="round" stroke-linejoin="round" stroke-width="1"/>
      </g>
      <g id="Group_16698" data-name="Group 16698" transform="translate(-509.69 -10.545)">
        <g id="Icon_ionic-md-star-3" data-name="Icon ionic-md-star" transform="translate(572.203 162.5)" fill="#f8f4f9" stroke-linecap="round" stroke-linejoin="round">
          <path d="M 6.493170261383057 29.91048431396484 L 7.163180351257324 27.02882385253906 L 8.954774856567383 19.3232364654541 L 2.978090286254883 14.14207458496094 L 0.7438002824783325 12.20517444610596 L 3.68992018699646 11.9521541595459 L 11.5687952041626 11.27549839019775 L 14.64591979980469 4.012384414672852 L 15.79699039459229 1.295444369316101 L 16.94788932800293 4.012454509735107 L 20.02443885803223 11.27549934387207 L 27.90386009216309 11.9521541595459 L 30.84999084472656 12.20516395568848 L 28.61569976806641 14.14207458496094 L 22.63902282714844 19.32327079772949 L 24.43008041381836 27.02890396118164 L 25.09986114501953 29.91047477722168 L 22.56680107116699 28.38219451904297 L 15.79686832427979 24.29767608642578 L 9.026410102844238 28.3822135925293 L 6.493170261383057 29.91048431396484 Z" stroke="none"/>
          <path d="M 23.21253967285156 27.31190490722656 L 21.25089073181152 18.87233352661133 L 27.79690933227539 13.19757461547852 L 19.16716957092285 12.4564847946167 L 15.79689025878906 4.500004291534424 L 12.42601013183594 12.4564847946167 L 3.79688024520874 13.19757461547852 L 10.34294986724854 18.87233352661133 L 8.38070011138916 27.31190490722656 L 15.79689025878906 22.83780479431152 L 23.21253967285156 27.31190490722656 M 8.380892753601074 29.81190872192383 C 7.863670349121094 29.81193351745605 7.348042011260986 29.65173149108887 6.911470413208008 29.33461380004883 C 6.098550319671631 28.7441349029541 5.718110084533691 27.72437477111816 5.945650100708008 26.7457447052002 L 7.566591262817383 19.77413368225098 L 2.159310340881348 15.08658409118652 C 1.400250315666199 14.42856407165527 1.108790278434753 13.38011455535889 1.419330239295959 12.42475414276123 C 1.729870200157166 11.46939468383789 2.582080364227295 10.79270458221436 3.582960367202759 10.70674419403076 L 10.71158123016357 10.09452152252197 L 13.49495983123779 3.524754285812378 C 13.88656997680664 2.600414514541626 14.79170703887939 1.999939203262329 15.79697036743164 2.000004291534424 C 16.80084037780762 2.000034332275391 17.70733070373535 2.600544452667236 18.09888076782227 3.524904251098633 L 20.88170051574707 10.09452247619629 L 28.01081085205078 10.70674419403076 C 29.01169013977051 10.79269409179688 29.86392021179199 11.46938419342041 30.17445945739746 12.42474460601807 C 30.48500061035156 13.38010406494141 30.19354057312012 14.42855453491211 29.43449020385742 15.08657455444336 L 24.02716255187988 19.77419853210449 L 25.64763069152832 26.74590492248535 C 25.87508964538574 27.72453498840332 25.49460029602051 28.74426460266113 24.68167114257812 29.33468437194824 C 23.86873817443848 29.92511367797852 22.78133201599121 29.97151374816895 21.92106056213379 29.45248413085938 L 15.79684162139893 25.75754547119141 L 9.672110557556152 29.45252418518066 C 9.273833274841309 29.69280052185059 8.826754570007324 29.81188774108887 8.380892753601074 29.81190872192383 Z" stroke="none" fill="#fff"/>
        </g>
        <path id="Icon_ionic-md-star-4" data-name="Icon ionic-md-star" d="M15.8,22.838l7.416,4.474-1.962-8.44L27.8,13.2l-8.63-.741L15.8,4.5l-3.371,7.956L3.8,13.2l6.546,5.675-1.962,8.44Z" transform="translate(572.203 162.5)" fill="#8cd943" stroke="#1f343e" stroke-linecap="round" stroke-linejoin="round" stroke-width="1"/>
      </g>
      <g id="Group_16688" data-name="Group 16688" transform="translate(-489.69 -166.999)">
        <g id="Icon_ionic-md-star-5" data-name="Icon ionic-md-star" transform="translate(572.203 162.5)" fill="#f8f4f9" stroke-linecap="round" stroke-linejoin="round">
          <path d="M 6.493170261383057 29.91048431396484 L 7.163180351257324 27.02882385253906 L 8.954774856567383 19.3232364654541 L 2.978090286254883 14.14207458496094 L 0.7438002824783325 12.20517444610596 L 3.68992018699646 11.9521541595459 L 11.5687952041626 11.27549839019775 L 14.64591979980469 4.012384414672852 L 15.79699039459229 1.295444369316101 L 16.94788932800293 4.012454509735107 L 20.02443885803223 11.27549934387207 L 27.90386009216309 11.9521541595459 L 30.84999084472656 12.20516395568848 L 28.61569976806641 14.14207458496094 L 22.63902282714844 19.32327079772949 L 24.43008041381836 27.02890396118164 L 25.09986114501953 29.91047477722168 L 22.56680107116699 28.38219451904297 L 15.79686832427979 24.29767608642578 L 9.026410102844238 28.3822135925293 L 6.493170261383057 29.91048431396484 Z" stroke="none"/>
          <path d="M 23.21253967285156 27.31190490722656 L 21.25089073181152 18.87233352661133 L 27.79690933227539 13.19757461547852 L 19.16716957092285 12.4564847946167 L 15.79689025878906 4.500004291534424 L 12.42601013183594 12.4564847946167 L 3.79688024520874 13.19757461547852 L 10.34294986724854 18.87233352661133 L 8.38070011138916 27.31190490722656 L 15.79689025878906 22.83780479431152 L 23.21253967285156 27.31190490722656 M 8.380892753601074 29.81190872192383 C 7.863670349121094 29.81193351745605 7.348042011260986 29.65173149108887 6.911470413208008 29.33461380004883 C 6.098550319671631 28.7441349029541 5.718110084533691 27.72437477111816 5.945650100708008 26.7457447052002 L 7.566591262817383 19.77413368225098 L 2.159310340881348 15.08658409118652 C 1.400250315666199 14.42856407165527 1.108790278434753 13.38011455535889 1.419330239295959 12.42475414276123 C 1.729870200157166 11.46939468383789 2.582080364227295 10.79270458221436 3.582960367202759 10.70674419403076 L 10.71158123016357 10.09452152252197 L 13.49495983123779 3.524754285812378 C 13.88656997680664 2.600414514541626 14.79170703887939 1.999939203262329 15.79697036743164 2.000004291534424 C 16.80084037780762 2.000034332275391 17.70733070373535 2.600544452667236 18.09888076782227 3.524904251098633 L 20.88170051574707 10.09452247619629 L 28.01081085205078 10.70674419403076 C 29.01169013977051 10.79269409179688 29.86392021179199 11.46938419342041 30.17445945739746 12.42474460601807 C 30.48500061035156 13.38010406494141 30.19354057312012 14.42855453491211 29.43449020385742 15.08657455444336 L 24.02716255187988 19.77419853210449 L 25.64763069152832 26.74590492248535 C 25.87508964538574 27.72453498840332 25.49460029602051 28.74426460266113 24.68167114257812 29.33468437194824 C 23.86873817443848 29.92511367797852 22.78133201599121 29.97151374816895 21.92106056213379 29.45248413085938 L 15.79684162139893 25.75754547119141 L 9.672110557556152 29.45252418518066 C 9.273833274841309 29.69280052185059 8.826754570007324 29.81188774108887 8.380892753601074 29.81190872192383 Z" stroke="none" fill="#fff"/>
        </g>
        <path id="Icon_ionic-md-star-6" data-name="Icon ionic-md-star" d="M15.8,22.838l7.416,4.474-1.962-8.44L27.8,13.2l-8.63-.741L15.8,4.5l-3.371,7.956L3.8,13.2l6.546,5.675-1.962,8.44Z" transform="translate(572.203 162.5)" fill="#8cd943" stroke="#1f343e" stroke-linecap="round" stroke-linejoin="round" stroke-width="1"/>
      </g>
      <g id="Group_16662" data-name="Group 16662" transform="translate(127.564 21.646)">
        <path id="Path_28592" data-name="Path 28592" d="M271.606,56.138c-2.665-.2-2.967,3.937-.3,4.133S274.269,56.334,271.606,56.138Z" transform="translate(-269.45 -55.851)" fill="rgba(255,255,255,0.5)" fill-rule="evenodd"/>
        <path id="Path_28593" data-name="Path 28593" d="M315.53,55.717c-7.972-.018-15.942.136-23.914.118-2.607-.005-2.622,4.04-.012,4.046,7.972.016,15.944-.136,23.916-.119C318.129,59.768,318.14,55.721,315.53,55.717Z" transform="translate(-281.761 -55.597)" fill="rgba(255,255,255,0.5)" fill-rule="evenodd"/>
        <path id="Path_28594" data-name="Path 28594" d="M373.149,55.42c-2.6-.19-2.9,3.846-.3,4.036S375.751,55.611,373.149,55.42Z" transform="translate(-331.359 -55.413)" fill="rgba(255,255,255,0.5)" fill-rule="evenodd"/>
      </g>
      <g id="Group_16689" data-name="Group 16689" transform="translate(-577.69 -118.207)">
        <g id="Icon_ionic-md-star-7" data-name="Icon ionic-md-star" transform="translate(572.203 162.5)" fill="#f8f4f9" stroke-linecap="round" stroke-linejoin="round">
          <path d="M 4.965225696563721 22.30652046203613 L 5.63523530960083 19.42486000061035 L 6.772749900817871 14.53246116638184 L 2.978085517883301 11.24287986755371 L 0.7437955141067505 9.30597972869873 L 3.689915418624878 9.052959442138672 L 8.69242000579834 8.623332977294922 L 10.64591503143311 4.01237964630127 L 11.7969856262207 1.295439600944519 L 12.94788551330566 4.012449741363525 L 14.90100383758545 8.623333930969238 L 19.90384483337402 9.052959442138672 L 22.8499755859375 9.30596923828125 L 20.61568641662598 11.24287986755371 L 16.82101821899414 14.53249454498291 L 17.95819473266602 19.42494010925293 L 18.62797546386719 22.30650901794434 L 16.09491539001465 20.77822875976562 L 11.7968635559082 18.18507194519043 L 7.498465538024902 20.77824974060059 L 4.965225696563721 22.30652046203613 Z" stroke="none"/>
          <path d="M 16.74065589904785 19.70793914794922 L 15.43288516998291 14.08155918121338 L 19.79689598083496 10.29837989807129 L 14.04373550415039 9.804319381713867 L 11.79688549041748 4.499999523162842 L 9.549635887145996 9.804319381713867 L 3.796875476837158 10.29837989807129 L 8.16092586517334 14.08155918121338 L 6.852755546569824 19.70793914794922 L 11.79688549041748 16.72519874572754 L 16.74065589904785 19.70793914794922 M 6.852948665618896 22.20794486999512 C 6.3357253074646 22.20796966552734 5.82009744644165 22.04776573181152 5.383525371551514 21.73064994812012 C 4.570605278015137 21.14016914367676 4.190165519714355 20.12040901184082 4.417705535888672 19.14177894592285 L 5.384565830230713 14.98335647583008 L 2.159305572509766 12.1873893737793 C 1.400245547294617 11.52936935424805 1.108785510063171 10.48091983795166 1.419325470924377 9.525559425354004 C 1.729865431785583 8.570199966430664 2.582075595855713 7.893509387969971 3.582955598831177 7.807549476623535 L 7.835206031799316 7.442356586456299 L 9.494955062866211 3.524749517440796 C 9.886565208435059 2.600409746170044 10.79182910919189 1.999939203262329 11.79696559906006 1.999999523162842 C 12.80083560943604 2.000029563903809 13.70732593536377 2.600539684295654 14.09888553619385 3.524899482727051 L 15.75827693939209 7.44235897064209 L 20.01079559326172 7.807549476623535 C 21.01167488098145 7.893499374389648 21.86389541625977 8.570189476013184 22.17444610595703 9.52554988861084 C 22.4849853515625 10.48090934753418 22.19352531433105 11.52935981750488 21.43447494506836 12.18737983703613 L 18.20915794372559 14.98342132568359 L 19.17574501037598 19.14193916320801 C 19.40320587158203 20.12056922912598 19.02271461486816 21.14029884338379 18.20978546142578 21.73072052001953 C 17.39685249328613 22.32114791870117 16.3094425201416 22.36754608154297 15.44917583465576 21.84852027893066 L 11.79683685302734 19.64494323730469 L 8.1441650390625 21.84856033325195 C 7.745888233184814 22.08883666992188 7.298810005187988 22.20792388916016 6.852948665618896 22.20794486999512 Z" stroke="none" fill="#fff"/>
        </g>
        <path id="Icon_ionic-md-star-8" data-name="Icon ionic-md-star" d="M11.8,16.725l4.944,2.983-1.308-5.626L19.8,10.3,14.044,9.8,11.8,4.5,9.55,9.8,3.8,10.3l4.364,3.783L6.853,19.708Z" transform="translate(572.203 162.5)" fill="#8cd943" stroke="#1f343e" stroke-linecap="round" stroke-linejoin="round" stroke-width="1"/>
      </g>
      <g id="Group_16697" data-name="Group 16697" transform="translate(-345.69 1.793)">
        <g id="Icon_ionic-md-star-9" data-name="Icon ionic-md-star" transform="translate(572.203 162.5)" fill="#f8f4f9" stroke-linecap="round" stroke-linejoin="round">
          <path d="M 4.965225696563721 22.30652046203613 L 5.63523530960083 19.42486000061035 L 6.772749900817871 14.53246116638184 L 2.978085517883301 11.24287986755371 L 0.7437955141067505 9.30597972869873 L 3.689915418624878 9.052959442138672 L 8.69242000579834 8.623332977294922 L 10.64591503143311 4.01237964630127 L 11.7969856262207 1.295439600944519 L 12.94788551330566 4.012449741363525 L 14.90100383758545 8.623333930969238 L 19.90384483337402 9.052959442138672 L 22.8499755859375 9.30596923828125 L 20.61568641662598 11.24287986755371 L 16.82101821899414 14.53249454498291 L 17.95819473266602 19.42494010925293 L 18.62797546386719 22.30650901794434 L 16.09491539001465 20.77822875976562 L 11.7968635559082 18.18507194519043 L 7.498465538024902 20.77824974060059 L 4.965225696563721 22.30652046203613 Z" stroke="none"/>
          <path d="M 16.74065589904785 19.70793914794922 L 15.43288516998291 14.08155918121338 L 19.79689598083496 10.29837989807129 L 14.04373550415039 9.804319381713867 L 11.79688549041748 4.499999523162842 L 9.549635887145996 9.804319381713867 L 3.796875476837158 10.29837989807129 L 8.16092586517334 14.08155918121338 L 6.852755546569824 19.70793914794922 L 11.79688549041748 16.72519874572754 L 16.74065589904785 19.70793914794922 M 6.852948665618896 22.20794486999512 C 6.3357253074646 22.20796966552734 5.82009744644165 22.04776573181152 5.383525371551514 21.73064994812012 C 4.570605278015137 21.14016914367676 4.190165519714355 20.12040901184082 4.417705535888672 19.14177894592285 L 5.384565830230713 14.98335647583008 L 2.159305572509766 12.1873893737793 C 1.400245547294617 11.52936935424805 1.108785510063171 10.48091983795166 1.419325470924377 9.525559425354004 C 1.729865431785583 8.570199966430664 2.582075595855713 7.893509387969971 3.582955598831177 7.807549476623535 L 7.835206031799316 7.442356586456299 L 9.494955062866211 3.524749517440796 C 9.886565208435059 2.600409746170044 10.79182910919189 1.999939203262329 11.79696559906006 1.999999523162842 C 12.80083560943604 2.000029563903809 13.70732593536377 2.600539684295654 14.09888553619385 3.524899482727051 L 15.75827693939209 7.44235897064209 L 20.01079559326172 7.807549476623535 C 21.01167488098145 7.893499374389648 21.86389541625977 8.570189476013184 22.17444610595703 9.52554988861084 C 22.4849853515625 10.48090934753418 22.19352531433105 11.52935981750488 21.43447494506836 12.18737983703613 L 18.20915794372559 14.98342132568359 L 19.17574501037598 19.14193916320801 C 19.40320587158203 20.12056922912598 19.02271461486816 21.14029884338379 18.20978546142578 21.73072052001953 C 17.39685249328613 22.32114791870117 16.3094425201416 22.36754608154297 15.44917583465576 21.84852027893066 L 11.79683685302734 19.64494323730469 L 8.1441650390625 21.84856033325195 C 7.745888233184814 22.08883666992188 7.298810005187988 22.20792388916016 6.852948665618896 22.20794486999512 Z" stroke="none" fill="#fff"/>
        </g>
        <path id="Icon_ionic-md-star-10" data-name="Icon ionic-md-star" d="M11.8,16.725l4.944,2.983-1.308-5.626L19.8,10.3,14.044,9.8,11.8,4.5,9.55,9.8,3.8,10.3l4.364,3.783L6.853,19.708Z" transform="translate(572.203 162.5)" fill="#8cd943" stroke="#1f343e" stroke-linecap="round" stroke-linejoin="round" stroke-width="1"/>
      </g>
      <g id="Group_16696" data-name="Group 16696" transform="translate(-425.69 -198.207)">
        <g id="Icon_ionic-md-star-11" data-name="Icon ionic-md-star" transform="translate(572.203 162.5)" fill="#f8f4f9" stroke-linecap="round" stroke-linejoin="round">
          <path d="M 4.965225696563721 22.30652046203613 L 5.63523530960083 19.42486000061035 L 6.772749900817871 14.53246116638184 L 2.978085517883301 11.24287986755371 L 0.7437955141067505 9.30597972869873 L 3.689915418624878 9.052959442138672 L 8.69242000579834 8.623332977294922 L 10.64591503143311 4.01237964630127 L 11.7969856262207 1.295439600944519 L 12.94788551330566 4.012449741363525 L 14.90100383758545 8.623333930969238 L 19.90384483337402 9.052959442138672 L 22.8499755859375 9.30596923828125 L 20.61568641662598 11.24287986755371 L 16.82101821899414 14.53249454498291 L 17.95819473266602 19.42494010925293 L 18.62797546386719 22.30650901794434 L 16.09491539001465 20.77822875976562 L 11.7968635559082 18.18507194519043 L 7.498465538024902 20.77824974060059 L 4.965225696563721 22.30652046203613 Z" stroke="none"/>
          <path d="M 16.74065589904785 19.70793914794922 L 15.43288516998291 14.08155918121338 L 19.79689598083496 10.29837989807129 L 14.04373550415039 9.804319381713867 L 11.79688549041748 4.499999523162842 L 9.549635887145996 9.804319381713867 L 3.796875476837158 10.29837989807129 L 8.16092586517334 14.08155918121338 L 6.852755546569824 19.70793914794922 L 11.79688549041748 16.72519874572754 L 16.74065589904785 19.70793914794922 M 6.852948665618896 22.20794486999512 C 6.3357253074646 22.20796966552734 5.82009744644165 22.04776573181152 5.383525371551514 21.73064994812012 C 4.570605278015137 21.14016914367676 4.190165519714355 20.12040901184082 4.417705535888672 19.14177894592285 L 5.384565830230713 14.98335647583008 L 2.159305572509766 12.1873893737793 C 1.400245547294617 11.52936935424805 1.108785510063171 10.48091983795166 1.419325470924377 9.525559425354004 C 1.729865431785583 8.570199966430664 2.582075595855713 7.893509387969971 3.582955598831177 7.807549476623535 L 7.835206031799316 7.442356586456299 L 9.494955062866211 3.524749517440796 C 9.886565208435059 2.600409746170044 10.79182910919189 1.999939203262329 11.79696559906006 1.999999523162842 C 12.80083560943604 2.000029563903809 13.70732593536377 2.600539684295654 14.09888553619385 3.524899482727051 L 15.75827693939209 7.44235897064209 L 20.01079559326172 7.807549476623535 C 21.01167488098145 7.893499374389648 21.86389541625977 8.570189476013184 22.17444610595703 9.52554988861084 C 22.4849853515625 10.48090934753418 22.19352531433105 11.52935981750488 21.43447494506836 12.18737983703613 L 18.20915794372559 14.98342132568359 L 19.17574501037598 19.14193916320801 C 19.40320587158203 20.12056922912598 19.02271461486816 21.14029884338379 18.20978546142578 21.73072052001953 C 17.39685249328613 22.32114791870117 16.3094425201416 22.36754608154297 15.44917583465576 21.84852027893066 L 11.79683685302734 19.64494323730469 L 8.1441650390625 21.84856033325195 C 7.745888233184814 22.08883666992188 7.298810005187988 22.20792388916016 6.852948665618896 22.20794486999512 Z" stroke="none" fill="#fff"/>
        </g>
        <path id="Icon_ionic-md-star-12" data-name="Icon ionic-md-star" d="M11.8,16.725l4.944,2.983-1.308-5.626L19.8,10.3,14.044,9.8,11.8,4.5,9.55,9.8,3.8,10.3l4.364,3.783L6.853,19.708Z" transform="translate(572.203 162.5)" fill="#8cd943" stroke="#1f343e" stroke-linecap="round" stroke-linejoin="round" stroke-width="1"/>
      </g>
    </g>
    <g id="Group_16690" data-name="Group 16690" transform="matrix(0.966, -0.259, 0.259, 0.966, -721.087, 3774.071)">
      <g id="Group_16676" data-name="Group 16676" transform="translate(399.96 4848)">
        <g id="Group_9378" data-name="Group 9378" transform="translate(0 0)">
          <g id="Union_37" data-name="Union 37" fill="#fff" stroke-linecap="round" stroke-linejoin="round" stroke-miterlimit="10">
            <path d="M 19.999755859375 41.25 L 13.60009670257568 41.25 C 9.47481632232666 41.25 5.654296875 38.92926788330078 2.842316865921021 34.71531677246094 C 0.2031567543745041 30.75386810302734 -1.250003218650818 25.52813911437988 -1.250003218650818 19.99999809265137 C -1.250003218650818 14.47414875030518 0.2031267583370209 9.249168395996094 2.8417067527771 5.287548065185547 C 5.653976917266846 1.072098255157471 9.474526405334473 -1.249021768569946 13.60009670257568 -1.249021768569946 L 19.999755859375 -1.249021768569946 C 24.12517738342285 -1.249021768569946 27.94563674926758 1.072098255157471 30.75736618041992 5.286758422851562 C 33.39662551879883 9.248998641967773 34.84985733032227 14.47399806976318 34.84985733032227 19.99999809265137 C 34.84985733032227 25.52829742431641 33.3965950012207 30.75403785705566 30.75777626037598 34.71457672119141 C 27.94531631469727 38.92926788330078 24.12488746643066 41.25 19.999755859375 41.25 Z M 6.184799194335938 32.35058975219727 L 7.884924411773682 32.35058975219727 C 7.518586158752441 31.61291885375977 7.186809062957764 30.84451103210449 6.891664505004883 30.04980850219727 L 4.919373512268066 30.04980850219727 C 5.296883106231689 30.87247848510742 5.719698429107666 31.64138031005859 6.184799194335938 32.35058975219727 Z M 3.526695728302002 25.95019912719727 L 5.734483242034912 25.95019912719727 C 5.479212284088135 24.67890739440918 5.306923389434814 23.37506866455078 5.21929407119751 22.05077743530273 L 2.928312540054321 22.05077743530273 C 3.029736280441284 23.38745880126953 3.229911804199219 24.69208526611328 3.526695728302002 25.95019912719727 Z M 2.928239345550537 17.95116806030273 L 5.21923828125 17.95116806030273 C 5.30682897567749 16.6262092590332 5.47905445098877 15.32240104675293 5.73426628112793 14.0517578125 L 3.526515007019043 14.0517578125 C 3.229798555374146 15.30893898010254 3.029619455337524 16.61379432678223 2.928239345550537 17.95116806030273 Z M 4.919647693634033 9.950198173522949 L 6.892000198364258 9.950198173522949 C 7.187610149383545 9.154775619506836 7.519290447235107 8.386574745178223 7.885234832763672 7.649418354034424 L 6.185204982757568 7.649418354034424 C 5.719695091247559 8.359786033630371 5.296866893768311 9.128623962402344 4.919647693634033 9.950198173522949 Z" stroke="none"/>
            <path d="M 19.99975967407227 40 C 23.69482612609863 40 27.14477157592773 37.876953125 29.71752738952637 34.02148818969727 C 32.219970703125 30.26562118530273 33.59984970092773 25.2861328125 33.59984970092773 20 C 33.59984970092773 14.71679973602295 32.219970703125 9.737310409545898 29.71752738952637 5.980465888977051 C 27.14477157592773 2.124021530151367 23.69482612609863 0.0009771701879799366 19.99975967407227 0.0009771701879799366 L 13.60009384155273 0.0009771701879799366 C 9.905026435852051 0.0009771701879799366 6.454837799072266 2.124021530151367 3.882082223892212 5.980465888977051 C 1.379882335662842 9.737310409545898 4.535590051091276e-06 14.71679973602295 4.535590051091276e-06 20 C 4.535590051091276e-06 25.2861328125 1.379882335662842 30.26562118530273 3.882082223892212 34.02148818969727 C 6.454837799072266 37.876953125 9.905026435852051 40 13.60009384155273 40 L 19.99975967407227 40 M 18.98363876342773 38.33398818969727 C 19.00781631469727 38.33788681030273 19.031982421875 38.33984375 19.05639266967773 38.34375381469727 C 19.3671817779541 38.38183212280273 19.68237113952637 38.40038681030273 19.99975967407227 38.40038681030273 C 26.6167049407959 38.40038681030273 32.00049209594727 30.14550971984863 32.00049209594727 20 C 32.00049209594727 30.14550971984863 26.6167049407959 38.40038681030273 19.99975967407227 38.40038681030273 C 19.68237113952637 38.40038681030273 19.3671817779541 38.38183212280273 19.05639266967773 38.34375381469727 C 19.031982421875 38.33984375 19.00781631469727 38.33788681030273 18.98363876342773 38.33398818969727 M 6.8447265625 35.19922256469727 L 11.14013767242432 35.19922256469727 C 12.17309379577637 36.50293350219727 13.31664943695068 37.55956649780273 14.54345989227295 38.34375381469727 C 14.23242664337158 38.38183212280273 13.91723823547363 38.40038681030273 13.60009384155273 38.40038681030273 C 11.09766006469727 38.40038681030273 8.770015716552734 37.21875381469727 6.8447265625 35.19922256469727 M 3.064449071884155 28.7998104095459 L 7.777593612670898 28.7998104095459 C 8.352538108825684 30.53808784484863 9.104249000549316 32.1513671875 10.01562690734863 33.60058975219727 L 5.526371002197266 33.60058975219727 C 4.542482376098633 32.22656631469727 3.707515716552734 30.6035099029541 3.064449071884155 28.7998104095459 M 1.612060070037842 20.80077743530273 L 6.412348747253418 20.80077743530273 C 6.471926689147949 23.02050971984863 6.776615619659424 25.1747989654541 7.30468225479126 27.20019912719727 L 2.557615756988525 27.20019912719727 C 2.005860090255737 25.2197208404541 1.676026701927185 23.0625 1.612060070037842 20.80077743530273 M 7.998782157897949 20 C 7.998782157897949 20.9247989654541 8.043704986572266 21.83300971984863 8.129637718200684 22.72069931030273 C 8.043704986572266 21.83300971984863 7.998782157897949 20.9247989654541 7.998782157897949 20 M 2.557615756988525 12.80175495147705 L 7.30468225479126 12.80175495147705 C 6.776615619659424 14.82519912719727 6.471926689147949 16.97948837280273 6.412348747253418 19.2011775970459 L 1.612060070037842 19.2011775970459 C 1.676026701927185 16.9375 2.005860090255737 14.78027725219727 2.557615756988525 12.80175495147705 M 5.526371002197266 6.399410724639893 L 10.01562690734863 6.399410724639893 C 9.104249000549316 7.8486328125 8.352538108825684 9.46484375 7.777593612670898 11.20019912719727 L 3.064449071884155 11.20019912719727 C 3.707515716552734 9.396488189697266 4.542482376098633 7.775388240814209 5.526371002197266 6.399410724639893 M 13.60009384155273 1.599610447883606 C 13.91723823547363 1.599610447883606 14.23242664337158 1.621099352836609 14.54345989227295 1.656255006790161 C 13.31664943695068 2.442388296127319 12.17309379577637 3.497066020965576 11.14013767242432 4.800776958465576 L 6.8447265625 4.800776958465576 C 8.770015716552734 2.781255006790161 11.09766006469727 1.599610447883606 13.60009384155273 1.599610447883606 M 19.99975967407227 42.5 L 13.60009384155273 42.5 C 11.29185962677002 42.5 9.07469367980957 41.85597610473633 7.010204315185547 40.58583450317383 C 5.036571025848389 39.37157821655273 3.284471273422241 37.62988662719727 1.802560091018677 35.40915679931641 C -0.9723510146141052 31.24392127990723 -2.499995470046997 25.7720775604248 -2.499995470046997 20 C -2.499995470046997 14.23026561737061 -0.9724177122116089 8.759199142456055 1.801348924636841 4.594621658325195 C 3.284249067306519 2.371821641921997 5.036371231079102 0.6297882795333862 7.010093212127686 -0.5846561789512634 C 9.074538230895996 -1.854933977127075 11.29173755645752 -2.499022722244263 13.60009384155273 -2.499022722244263 L 19.99975967407227 -2.499022722244263 C 22.30811500549316 -2.499022722244263 24.52528190612793 -1.854933977127075 26.58967208862305 -0.5846339464187622 C 28.56328201293945 0.6297882795333862 30.31534957885742 2.371810436248779 31.79720497131348 4.593043804168701 C 34.57215881347656 8.758999824523926 36.09984970092773 14.23009967803955 36.09984970092773 20 C 36.09984970092773 25.77224349975586 34.57210540771484 31.24413299560547 31.79802703857422 35.40767669677734 C 30.31513786315918 37.62989807128906 28.56308174133301 39.37157821655273 26.58955955505371 40.58581161499023 C 24.52512741088867 41.85597610473633 22.30799293518066 42.5 19.99975967407227 42.5 Z" stroke="none" fill="#fff"/>
          </g>
          <path id="Path_245" data-name="Path 245" d="M5.692,0H.945A26.722,26.722,0,0,0,0,6.4H4.8A28.4,28.4,0,0,1,5.692,0" transform="translate(1.612 12.8)" fill="#f8cc5d"/>
          <path id="Path_246" data-name="Path 246" d="M6.953,0H2.462A19.516,19.516,0,0,0,0,4.8H4.713A22.024,22.024,0,0,1,6.953,0" transform="translate(3.064 6.4)" fill="#f8cc5d"/>
          <path id="Path_247" data-name="Path 247" d="M4.8,0H0A26.722,26.722,0,0,0,.945,6.4H5.692A28.406,28.406,0,0,1,4.8,0" transform="translate(1.612 20.8)" fill="#f8cc5d"/>
          <path id="Path_248" data-name="Path 248" d="M7.7.057A7.936,7.936,0,0,0,6.755,0,9.37,9.37,0,0,0,0,3.2H4.3A14.021,14.021,0,0,1,7.7.057" transform="translate(6.845 1.6)" fill="#f8cc5d"/>
          <path id="Path_249" data-name="Path 249" d="M4.713,0H0A19.521,19.521,0,0,0,2.462,4.8H6.953A22.036,22.036,0,0,1,4.713,0" transform="translate(3.064 28.8)" fill="#f8cc5d"/>
          <path id="Path_250" data-name="Path 250" d="M4.3,0H0A9.37,9.37,0,0,0,6.755,3.2,7.9,7.9,0,0,0,7.7,3.143,14.019,14.019,0,0,1,4.3,0" transform="translate(6.845 35.2)" fill="#f8cc5d"/>
        </g>
      </g>
      <g id="Group_16668" data-name="Group 16668" transform="translate(399.993 4848)">
        <g id="Group_9378-2" data-name="Group 9378" transform="translate(0 0)">
          <path id="Path_244" data-name="Path 244" d="M12,0a7.907,7.907,0,0,0-.943.057A8.278,8.278,0,0,0,8.8.665C3.732,2.818,0,9.953,0,18.4S3.732,33.982,8.8,36.135a8.278,8.278,0,0,0,2.257.609A7.9,7.9,0,0,0,12,36.8c6.617,0,12-8.254,12-18.4S18.617,0,12,0" transform="translate(8 1.6)" fill="#f8cc5d"/>
          <path id="Path_245-2" data-name="Path 245" d="M5.692,0H.945A26.722,26.722,0,0,0,0,6.4H4.8A28.4,28.4,0,0,1,5.692,0" transform="translate(1.612 12.8)" fill="#f8cc5d"/>
          <path id="Path_246-2" data-name="Path 246" d="M6.953,0H2.462A19.516,19.516,0,0,0,0,4.8H4.713A22.024,22.024,0,0,1,6.953,0" transform="translate(3.064 6.4)" fill="#f8cc5d"/>
          <path id="Path_247-2" data-name="Path 247" d="M4.8,0H0A26.722,26.722,0,0,0,.945,6.4H5.692A28.406,28.406,0,0,1,4.8,0" transform="translate(1.612 20.8)" fill="#f8cc5d"/>
          <path id="Path_248-2" data-name="Path 248" d="M7.7.057A7.936,7.936,0,0,0,6.755,0,9.37,9.37,0,0,0,0,3.2H4.3A14.021,14.021,0,0,1,7.7.057" transform="translate(6.845 1.6)" fill="#f8cc5d"/>
          <path id="Path_249-2" data-name="Path 249" d="M4.713,0H0A19.521,19.521,0,0,0,2.462,4.8H6.953A22.036,22.036,0,0,1,4.713,0" transform="translate(3.064 28.8)" fill="#f8cc5d"/>
          <path id="Path_250-2" data-name="Path 250" d="M4.3,0H0A9.37,9.37,0,0,0,6.755,3.2,7.9,7.9,0,0,0,7.7,3.143,14.019,14.019,0,0,1,4.3,0" transform="translate(6.845 35.2)" fill="#f8cc5d"/>
          <path id="Path_251" data-name="Path 251" d="M20,0H13.6C9.9,0,6.454,2.124,3.883,5.98A25.493,25.493,0,0,0,0,20,25.493,25.493,0,0,0,3.883,34.02C6.454,37.876,9.9,40,13.6,40H20c3.7,0,7.146-2.124,9.717-5.98A25.493,25.493,0,0,0,33.6,20,25.493,25.493,0,0,0,29.717,5.98C27.146,2.124,23.7,0,20,0M13.6,1.6a7.907,7.907,0,0,1,.943.057,14.018,14.018,0,0,0-3.4,3.143h-4.3A9.37,9.37,0,0,1,13.6,1.6M5.526,6.4h4.491a22.03,22.03,0,0,0-2.24,4.8H3.064A19.52,19.52,0,0,1,5.526,6.4M2.557,12.8H7.3a28.406,28.406,0,0,0-.891,6.4h-4.8a26.708,26.708,0,0,1,.945-6.4m-.945,8h4.8A28.406,28.406,0,0,0,7.3,27.2H2.557a26.708,26.708,0,0,1-.945-6.4M5.526,33.6a19.52,19.52,0,0,1-2.462-4.8H7.777a22.03,22.03,0,0,0,2.24,4.8ZM13.6,38.4a9.37,9.37,0,0,1-6.755-3.2h4.3a14.018,14.018,0,0,0,3.4,3.143,7.908,7.908,0,0,1-.943.057m6.4,0a7.908,7.908,0,0,1-.943-.057,8.279,8.279,0,0,1-2.257-.609C11.732,35.582,8,28.447,8,20S11.732,4.418,16.8,2.265a8.278,8.278,0,0,1,2.257-.609A7.907,7.907,0,0,1,20,1.6c6.617,0,12,8.254,12,18.4S26.617,38.4,20,38.4" transform="translate(0)" fill="#1f343e"/>
          <path id="Path_252" data-name="Path 252" d="M11.646,6.854,7.587,22.9a.562.562,0,0,1-.4.42.527.527,0,0,1-.238.006.7.7,0,0,1-.531-.661l-.494-9.25L.77,14.757A.577.577,0,0,1,.226,14.6.75.75,0,0,1,0,14.02l.726-12.1a.582.582,0,0,1,.415-.549L6.349.017A.58.58,0,0,1,6.9.185a.749.749,0,0,1,.212.6l-.651,6.36L10.9,5.988a.588.588,0,0,1,.589.205.747.747,0,0,1,.16.661" transform="translate(14.167 8.333)" fill="#ff007c"/>
          <path id="Path_253" data-name="Path 253" d="M10.9,5.988,6.465,7.144,7.116.784A.75.75,0,0,0,6.9.185.58.58,0,0,0,6.349.017L1.142,1.375a.582.582,0,0,0-.415.549L0,14.02a.749.749,0,0,0,.225.58.578.578,0,0,0,.544.158l5.158-1.345.495,9.25a.7.7,0,0,0,.53.66.527.527,0,0,0,.238-.006.562.562,0,0,0,.4-.42L11.646,6.854a.747.747,0,0,0-.16-.661.589.589,0,0,0-.589-.205" transform="translate(14.167 8.333)" fill="#1f343e"/>
        </g>
      </g>
    </g>
    <g id="Group_16699" data-name="Group 16699" transform="matrix(0.966, 0.259, -0.259, 0.966, 1991.776, 3433.674)">
      <g id="Group_16676-2" data-name="Group 16676" transform="translate(399.96 4848)">
        <g id="Group_9378-3" data-name="Group 9378" transform="translate(0 0)">
          <g id="Union_37-2" data-name="Union 37" fill="#fff" stroke-linecap="round" stroke-linejoin="round" stroke-miterlimit="10">
            <path d="M 19.999755859375 41.25 L 13.60009670257568 41.25 C 9.47481632232666 41.25 5.654296875 38.92926788330078 2.842316865921021 34.71531677246094 C 0.2031567543745041 30.75386810302734 -1.250003218650818 25.52813911437988 -1.250003218650818 19.99999809265137 C -1.250003218650818 14.47414875030518 0.2031267583370209 9.249168395996094 2.8417067527771 5.287548065185547 C 5.653976917266846 1.072098255157471 9.474526405334473 -1.249021768569946 13.60009670257568 -1.249021768569946 L 19.999755859375 -1.249021768569946 C 24.12517738342285 -1.249021768569946 27.94563674926758 1.072098255157471 30.75736618041992 5.286758422851562 C 33.39662551879883 9.248998641967773 34.84985733032227 14.47399806976318 34.84985733032227 19.99999809265137 C 34.84985733032227 25.52829742431641 33.3965950012207 30.75403785705566 30.75777626037598 34.71457672119141 C 27.94531631469727 38.92926788330078 24.12488746643066 41.25 19.999755859375 41.25 Z M 6.184799194335938 32.35058975219727 L 7.884924411773682 32.35058975219727 C 7.518586158752441 31.61291885375977 7.186809062957764 30.84451103210449 6.891664505004883 30.04980850219727 L 4.919373512268066 30.04980850219727 C 5.296883106231689 30.87247848510742 5.719698429107666 31.64138031005859 6.184799194335938 32.35058975219727 Z M 3.526695728302002 25.95019912719727 L 5.734483242034912 25.95019912719727 C 5.479212284088135 24.67890739440918 5.306923389434814 23.37506866455078 5.21929407119751 22.05077743530273 L 2.928312540054321 22.05077743530273 C 3.029736280441284 23.38745880126953 3.229911804199219 24.69208526611328 3.526695728302002 25.95019912719727 Z M 2.928239345550537 17.95116806030273 L 5.21923828125 17.95116806030273 C 5.30682897567749 16.6262092590332 5.47905445098877 15.32240104675293 5.73426628112793 14.0517578125 L 3.526515007019043 14.0517578125 C 3.229798555374146 15.30893898010254 3.029619455337524 16.61379432678223 2.928239345550537 17.95116806030273 Z M 4.919647693634033 9.950198173522949 L 6.892000198364258 9.950198173522949 C 7.187610149383545 9.154775619506836 7.519290447235107 8.386574745178223 7.885234832763672 7.649418354034424 L 6.185204982757568 7.649418354034424 C 5.719695091247559 8.359786033630371 5.296866893768311 9.128623962402344 4.919647693634033 9.950198173522949 Z" stroke="none"/>
            <path d="M 19.99975967407227 40 C 23.69482612609863 40 27.14477157592773 37.876953125 29.71752738952637 34.02148818969727 C 32.219970703125 30.26562118530273 33.59984970092773 25.2861328125 33.59984970092773 20 C 33.59984970092773 14.71679973602295 32.219970703125 9.737310409545898 29.71752738952637 5.980465888977051 C 27.14477157592773 2.124021530151367 23.69482612609863 0.0009771701879799366 19.99975967407227 0.0009771701879799366 L 13.60009384155273 0.0009771701879799366 C 9.905026435852051 0.0009771701879799366 6.454837799072266 2.124021530151367 3.882082223892212 5.980465888977051 C 1.379882335662842 9.737310409545898 4.535590051091276e-06 14.71679973602295 4.535590051091276e-06 20 C 4.535590051091276e-06 25.2861328125 1.379882335662842 30.26562118530273 3.882082223892212 34.02148818969727 C 6.454837799072266 37.876953125 9.905026435852051 40 13.60009384155273 40 L 19.99975967407227 40 M 18.98363876342773 38.33398818969727 C 19.00781631469727 38.33788681030273 19.031982421875 38.33984375 19.05639266967773 38.34375381469727 C 19.3671817779541 38.38183212280273 19.68237113952637 38.40038681030273 19.99975967407227 38.40038681030273 C 26.6167049407959 38.40038681030273 32.00049209594727 30.14550971984863 32.00049209594727 20 C 32.00049209594727 30.14550971984863 26.6167049407959 38.40038681030273 19.99975967407227 38.40038681030273 C 19.68237113952637 38.40038681030273 19.3671817779541 38.38183212280273 19.05639266967773 38.34375381469727 C 19.031982421875 38.33984375 19.00781631469727 38.33788681030273 18.98363876342773 38.33398818969727 M 6.8447265625 35.19922256469727 L 11.14013767242432 35.19922256469727 C 12.17309379577637 36.50293350219727 13.31664943695068 37.55956649780273 14.54345989227295 38.34375381469727 C 14.23242664337158 38.38183212280273 13.91723823547363 38.40038681030273 13.60009384155273 38.40038681030273 C 11.09766006469727 38.40038681030273 8.770015716552734 37.21875381469727 6.8447265625 35.19922256469727 M 3.064449071884155 28.7998104095459 L 7.777593612670898 28.7998104095459 C 8.352538108825684 30.53808784484863 9.104249000549316 32.1513671875 10.01562690734863 33.60058975219727 L 5.526371002197266 33.60058975219727 C 4.542482376098633 32.22656631469727 3.707515716552734 30.6035099029541 3.064449071884155 28.7998104095459 M 1.612060070037842 20.80077743530273 L 6.412348747253418 20.80077743530273 C 6.471926689147949 23.02050971984863 6.776615619659424 25.1747989654541 7.30468225479126 27.20019912719727 L 2.557615756988525 27.20019912719727 C 2.005860090255737 25.2197208404541 1.676026701927185 23.0625 1.612060070037842 20.80077743530273 M 7.998782157897949 20 C 7.998782157897949 20.9247989654541 8.043704986572266 21.83300971984863 8.129637718200684 22.72069931030273 C 8.043704986572266 21.83300971984863 7.998782157897949 20.9247989654541 7.998782157897949 20 M 2.557615756988525 12.80175495147705 L 7.30468225479126 12.80175495147705 C 6.776615619659424 14.82519912719727 6.471926689147949 16.97948837280273 6.412348747253418 19.2011775970459 L 1.612060070037842 19.2011775970459 C 1.676026701927185 16.9375 2.005860090255737 14.78027725219727 2.557615756988525 12.80175495147705 M 5.526371002197266 6.399410724639893 L 10.01562690734863 6.399410724639893 C 9.104249000549316 7.8486328125 8.352538108825684 9.46484375 7.777593612670898 11.20019912719727 L 3.064449071884155 11.20019912719727 C 3.707515716552734 9.396488189697266 4.542482376098633 7.775388240814209 5.526371002197266 6.399410724639893 M 13.60009384155273 1.599610447883606 C 13.91723823547363 1.599610447883606 14.23242664337158 1.621099352836609 14.54345989227295 1.656255006790161 C 13.31664943695068 2.442388296127319 12.17309379577637 3.497066020965576 11.14013767242432 4.800776958465576 L 6.8447265625 4.800776958465576 C 8.770015716552734 2.781255006790161 11.09766006469727 1.599610447883606 13.60009384155273 1.599610447883606 M 19.99975967407227 42.5 L 13.60009384155273 42.5 C 11.29185962677002 42.5 9.07469367980957 41.85597610473633 7.010204315185547 40.58583450317383 C 5.036571025848389 39.37157821655273 3.284471273422241 37.62988662719727 1.802560091018677 35.40915679931641 C -0.9723510146141052 31.24392127990723 -2.499995470046997 25.7720775604248 -2.499995470046997 20 C -2.499995470046997 14.23026561737061 -0.9724177122116089 8.759199142456055 1.801348924636841 4.594621658325195 C 3.284249067306519 2.371821641921997 5.036371231079102 0.6297882795333862 7.010093212127686 -0.5846561789512634 C 9.074538230895996 -1.854933977127075 11.29173755645752 -2.499022722244263 13.60009384155273 -2.499022722244263 L 19.99975967407227 -2.499022722244263 C 22.30811500549316 -2.499022722244263 24.52528190612793 -1.854933977127075 26.58967208862305 -0.5846339464187622 C 28.56328201293945 0.6297882795333862 30.31534957885742 2.371810436248779 31.79720497131348 4.593043804168701 C 34.57215881347656 8.758999824523926 36.09984970092773 14.23009967803955 36.09984970092773 20 C 36.09984970092773 25.77224349975586 34.57210540771484 31.24413299560547 31.79802703857422 35.40767669677734 C 30.31513786315918 37.62989807128906 28.56308174133301 39.37157821655273 26.58955955505371 40.58581161499023 C 24.52512741088867 41.85597610473633 22.30799293518066 42.5 19.99975967407227 42.5 Z" stroke="none" fill="#fff"/>
          </g>
          <path id="Path_245-3" data-name="Path 245" d="M5.692,0H.945A26.722,26.722,0,0,0,0,6.4H4.8A28.4,28.4,0,0,1,5.692,0" transform="translate(1.612 12.8)" fill="#f8cc5d"/>
          <path id="Path_246-3" data-name="Path 246" d="M6.953,0H2.462A19.516,19.516,0,0,0,0,4.8H4.713A22.024,22.024,0,0,1,6.953,0" transform="translate(3.064 6.4)" fill="#f8cc5d"/>
          <path id="Path_247-3" data-name="Path 247" d="M4.8,0H0A26.722,26.722,0,0,0,.945,6.4H5.692A28.406,28.406,0,0,1,4.8,0" transform="translate(1.612 20.8)" fill="#f8cc5d"/>
          <path id="Path_248-3" data-name="Path 248" d="M7.7.057A7.936,7.936,0,0,0,6.755,0,9.37,9.37,0,0,0,0,3.2H4.3A14.021,14.021,0,0,1,7.7.057" transform="translate(6.845 1.6)" fill="#f8cc5d"/>
          <path id="Path_249-3" data-name="Path 249" d="M4.713,0H0A19.521,19.521,0,0,0,2.462,4.8H6.953A22.036,22.036,0,0,1,4.713,0" transform="translate(3.064 28.8)" fill="#f8cc5d"/>
          <path id="Path_250-3" data-name="Path 250" d="M4.3,0H0A9.37,9.37,0,0,0,6.755,3.2,7.9,7.9,0,0,0,7.7,3.143,14.019,14.019,0,0,1,4.3,0" transform="translate(6.845 35.2)" fill="#f8cc5d"/>
        </g>
      </g>
      <g id="Group_16668-2" data-name="Group 16668" transform="translate(399.993 4848)">
        <g id="Group_9378-4" data-name="Group 9378" transform="translate(0 0)">
          <path id="Path_244-2" data-name="Path 244" d="M12,0a7.907,7.907,0,0,0-.943.057A8.278,8.278,0,0,0,8.8.665C3.732,2.818,0,9.953,0,18.4S3.732,33.982,8.8,36.135a8.278,8.278,0,0,0,2.257.609A7.9,7.9,0,0,0,12,36.8c6.617,0,12-8.254,12-18.4S18.617,0,12,0" transform="translate(8 1.6)" fill="#f8cc5d"/>
          <path id="Path_245-4" data-name="Path 245" d="M5.692,0H.945A26.722,26.722,0,0,0,0,6.4H4.8A28.4,28.4,0,0,1,5.692,0" transform="translate(1.612 12.8)" fill="#f8cc5d"/>
          <path id="Path_246-4" data-name="Path 246" d="M6.953,0H2.462A19.516,19.516,0,0,0,0,4.8H4.713A22.024,22.024,0,0,1,6.953,0" transform="translate(3.064 6.4)" fill="#f8cc5d"/>
          <path id="Path_247-4" data-name="Path 247" d="M4.8,0H0A26.722,26.722,0,0,0,.945,6.4H5.692A28.406,28.406,0,0,1,4.8,0" transform="translate(1.612 20.8)" fill="#f8cc5d"/>
          <path id="Path_248-4" data-name="Path 248" d="M7.7.057A7.936,7.936,0,0,0,6.755,0,9.37,9.37,0,0,0,0,3.2H4.3A14.021,14.021,0,0,1,7.7.057" transform="translate(6.845 1.6)" fill="#f8cc5d"/>
          <path id="Path_249-4" data-name="Path 249" d="M4.713,0H0A19.521,19.521,0,0,0,2.462,4.8H6.953A22.036,22.036,0,0,1,4.713,0" transform="translate(3.064 28.8)" fill="#f8cc5d"/>
          <path id="Path_250-4" data-name="Path 250" d="M4.3,0H0A9.37,9.37,0,0,0,6.755,3.2,7.9,7.9,0,0,0,7.7,3.143,14.019,14.019,0,0,1,4.3,0" transform="translate(6.845 35.2)" fill="#f8cc5d"/>
          <path id="Path_251-2" data-name="Path 251" d="M20,0H13.6C9.9,0,6.454,2.124,3.883,5.98A25.493,25.493,0,0,0,0,20,25.493,25.493,0,0,0,3.883,34.02C6.454,37.876,9.9,40,13.6,40H20c3.7,0,7.146-2.124,9.717-5.98A25.493,25.493,0,0,0,33.6,20,25.493,25.493,0,0,0,29.717,5.98C27.146,2.124,23.7,0,20,0M13.6,1.6a7.907,7.907,0,0,1,.943.057,14.018,14.018,0,0,0-3.4,3.143h-4.3A9.37,9.37,0,0,1,13.6,1.6M5.526,6.4h4.491a22.03,22.03,0,0,0-2.24,4.8H3.064A19.52,19.52,0,0,1,5.526,6.4M2.557,12.8H7.3a28.406,28.406,0,0,0-.891,6.4h-4.8a26.708,26.708,0,0,1,.945-6.4m-.945,8h4.8A28.406,28.406,0,0,0,7.3,27.2H2.557a26.708,26.708,0,0,1-.945-6.4M5.526,33.6a19.52,19.52,0,0,1-2.462-4.8H7.777a22.03,22.03,0,0,0,2.24,4.8ZM13.6,38.4a9.37,9.37,0,0,1-6.755-3.2h4.3a14.018,14.018,0,0,0,3.4,3.143,7.908,7.908,0,0,1-.943.057m6.4,0a7.908,7.908,0,0,1-.943-.057,8.279,8.279,0,0,1-2.257-.609C11.732,35.582,8,28.447,8,20S11.732,4.418,16.8,2.265a8.278,8.278,0,0,1,2.257-.609A7.907,7.907,0,0,1,20,1.6c6.617,0,12,8.254,12,18.4S26.617,38.4,20,38.4" transform="translate(0)" fill="#1f343e"/>
          <path id="Path_252-2" data-name="Path 252" d="M11.646,6.854,7.587,22.9a.562.562,0,0,1-.4.42.527.527,0,0,1-.238.006.7.7,0,0,1-.531-.661l-.494-9.25L.77,14.757A.577.577,0,0,1,.226,14.6.75.75,0,0,1,0,14.02l.726-12.1a.582.582,0,0,1,.415-.549L6.349.017A.58.58,0,0,1,6.9.185a.749.749,0,0,1,.212.6l-.651,6.36L10.9,5.988a.588.588,0,0,1,.589.205.747.747,0,0,1,.16.661" transform="translate(14.167 8.333)" fill="#ff007c"/>
          <path id="Path_253-2" data-name="Path 253" d="M10.9,5.988,6.465,7.144,7.116.784A.75.75,0,0,0,6.9.185.58.58,0,0,0,6.349.017L1.142,1.375a.582.582,0,0,0-.415.549L0,14.02a.749.749,0,0,0,.225.58.578.578,0,0,0,.544.158l5.158-1.345.495,9.25a.7.7,0,0,0,.53.66.527.527,0,0,0,.238-.006.562.562,0,0,0,.4-.42L11.646,6.854a.747.747,0,0,0-.16-.661.589.589,0,0,0-.589-.205" transform="translate(14.167 8.333)" fill="#1f343e"/>
        </g>
      </g>
    </g>
    <g id="Group_16691" data-name="Group 16691" transform="matrix(0.966, -0.259, 0.259, 0.966, 933.169, 8221.177)">
      <path id="Path_12813" data-name="Path 12813" d="M82.43,47.765l-7.6,1.981,1.116-10.9a1.286,1.286,0,0,0-.363-1.027,1,1,0,0,0-.951-.288l-8.926,2.328A1,1,0,0,0,65,40.8L63.752,61.534a1.283,1.283,0,0,0,.386.993.99.99,0,0,0,.932.27l8.843-2.306.848,15.857a1.208,1.208,0,0,0,.909,1.133.9.9,0,0,0,.409-.01.963.963,0,0,0,.678-.72l6.957-27.5a1.279,1.279,0,0,0-.274-1.133,1.009,1.009,0,0,0-1.01-.352" transform="translate(-63.75 -37.5)" fill="#f8cc5d" stroke="#fff" stroke-linejoin="round" stroke-width="5"/>
      <path id="Path_12814" data-name="Path 12814" d="M82.43,47.765l-7.6,1.981,1.116-10.9a1.286,1.286,0,0,0-.363-1.027,1,1,0,0,0-.951-.288l-8.926,2.328A1,1,0,0,0,65,40.8L63.752,61.534a1.283,1.283,0,0,0,.386.993.99.99,0,0,0,.932.27l8.843-2.306.848,15.857a1.208,1.208,0,0,0,.909,1.133.9.9,0,0,0,.409-.01.963.963,0,0,0,.678-.72l6.957-27.5a1.279,1.279,0,0,0-.274-1.133,1.009,1.009,0,0,0-1.01-.352" transform="translate(-63.75 -37.5)" fill="#f8cc5d" stroke="#1f343e" stroke-linejoin="round" stroke-width="1"/>
    </g>
    <g id="Group_16695" data-name="Group 16695" transform="matrix(0.966, 0.259, -0.259, 0.966, 1147.414, 8312)">
      <path id="Path_12813-2" data-name="Path 12813" d="M78.694,45.712,72.616,47.3l.893-8.722a1.029,1.029,0,0,0-.291-.822.8.8,0,0,0-.76-.23l-7.141,1.862a.8.8,0,0,0-.569.752l-1,16.59a1.026,1.026,0,0,0,.308.795.792.792,0,0,0,.746.216l7.075-1.845.678,12.686a.966.966,0,0,0,.727.906.724.724,0,0,0,.327-.008.771.771,0,0,0,.542-.576l5.566-22a1.023,1.023,0,0,0-.219-.906.808.808,0,0,0-.808-.281" transform="translate(-63.75 -37.5)" fill="#f8cc5d" stroke="#fff" stroke-linejoin="round" stroke-width="5"/>
      <path id="Path_12814-2" data-name="Path 12814" d="M78.694,45.712,72.616,47.3l.893-8.722a1.029,1.029,0,0,0-.291-.822.8.8,0,0,0-.76-.23l-7.141,1.862a.8.8,0,0,0-.569.752l-1,16.59a1.026,1.026,0,0,0,.308.795.792.792,0,0,0,.746.216l7.075-1.845.678,12.686a.966.966,0,0,0,.727.906.724.724,0,0,0,.327-.008.771.771,0,0,0,.542-.576l5.566-22a1.023,1.023,0,0,0-.219-.906.808.808,0,0,0-.808-.281" transform="translate(-63.75 -37.5)" fill="#f8cc5d" stroke="#1f343e" stroke-linejoin="round" stroke-width="1"/>
    </g>
  </g>
</svg>
