<svg xmlns="http://www.w3.org/2000/svg" width="282.5" height="325.294" viewBox="0 0 282.5 325.294">
  <g id="Group_16685" data-name="Group 16685" transform="translate(-205.5 -4838.706)">
    <circle id="Ellipse_512" data-name="Ellipse 512" cx="140" cy="140" r="140" transform="translate(208 4864)" fill="#4eb3e3"/>
    <g id="Union_38" data-name="Union 38" transform="translate(-2879.829 10241.593)" fill="#fff" stroke-linecap="round" stroke-linejoin="round">
      <path d="M 3227.693359375 -5079.5927734375 C 3205.38671875 -5079.5927734375 3182.912841796875 -5080.89892578125 3160.896484375 -5083.474609375 C 3158.108642578125 -5083.8046875 3155.39892578125 -5084.6328125 3152.840576171875 -5085.9365234375 C 3150.389892578125 -5087.185546875 3148.181396484375 -5088.8154296875 3146.276123046875 -5090.7802734375 C 3144.369384765625 -5092.7470703125 3142.86669921875 -5094.94580078125 3141.8095703125 -5097.31591796875 C 3140.70166015625 -5099.7998046875 3140.13916015625 -5102.35107421875 3140.1376953125 -5104.8994140625 C 3140.129638671875 -5114.38037109375 3140.121826171875 -5123.85986328125 3140.114013671875 -5133.3359375 C 3140.103759765625 -5145.80517578125 3140.093505859375 -5158.27001953125 3140.082763671875 -5170.7294921875 C 3140.064208984375 -5194.1650390625 3140.042724609375 -5217.96435546875 3140.021728515625 -5240.98046875 L 3140.021240234375 -5241.408203125 C 3140.017578125 -5245.68603515625 3140.013671875 -5249.96240234375 3140.009521484375 -5254.23828125 C 3140.00634765625 -5257.82373046875 3140.0029296875 -5261.408203125 3139.999755859375 -5264.9921875 C 3139.99267578125 -5269.75341796875 3140.945556640625 -5274.41943359375 3142.83203125 -5278.859375 C 3144.646240234375 -5283.12939453125 3147.2705078125 -5287.07275390625 3150.632080078125 -5290.57958984375 C 3153.953369140625 -5294.0439453125 3157.8798828125 -5296.9638671875 3162.302978515625 -5299.25830078125 C 3166.010498046875 -5301.181640625 3169.969482421875 -5302.61328125 3174.104736328125 -5303.5283203125 C 3174.02099609375 -5303.8984375 3173.97607421875 -5304.27734375 3173.97119140625 -5304.662109375 L 3173.6376953125 -5328.9873046875 C 3173.61328125 -5330.88330078125 3174.6025390625 -5332.70361328125 3176.351806640625 -5333.9833984375 C 3177.921875 -5335.1318359375 3179.986572265625 -5335.78076171875 3182.16552734375 -5335.810546875 L 3182.171142578125 -5335.810546875 L 3182.176513671875 -5335.810546875 L 3187.4638671875 -5335.853515625 L 3188.1845703125 -5335.859375 L 3188.7431640625 -5335.404296875 L 3189.725830078125 -5334.60400390625 L 3190.3974609375 -5335.3017578125 L 3190.9765625 -5335.90380859375 L 3191.811767578125 -5335.9150390625 L 3201.75439453125 -5336.048828125 L 3202.621826171875 -5336.060546875 L 3203.222900390625 -5335.43505859375 L 3203.73046875 -5334.9072265625 L 3205.032958984375 -5335.77392578125 L 3205.523681640625 -5336.1005859375 L 3206.11328125 -5336.10888671875 L 3216.05078125 -5336.24560546875 L 3216.6826171875 -5336.25390625 L 3217.204833984375 -5335.8984375 L 3218.33740234375 -5335.1259765625 L 3219.12255859375 -5335.8115234375 L 3219.676025390625 -5336.29443359375 L 3220.41064453125 -5336.3046875 L 3230.353515625 -5336.43994140625 L 3230.882080078125 -5336.44677734375 L 3231.344970703125 -5336.19189453125 L 3232.578857421875 -5335.5126953125 L 3233.681884765625 -5336.19970703125 L 3234.15478515625 -5336.49365234375 L 3234.711669921875 -5336.50146484375 L 3244.654541015625 -5336.63671875 L 3245.261474609375 -5336.64453125 L 3245.770751953125 -5336.31396484375 L 3246.83544921875 -5335.623046875 L 3247.92822265625 -5336.35595703125 L 3248.421142578125 -5336.68701171875 L 3249.014892578125 -5336.6953125 L 3258.953857421875 -5336.83203125 L 3259.541259765625 -5336.83984375 L 3260.039794921875 -5336.529296875 L 3261.0703125 -5335.88671875 L 3262.33740234375 -5336.62255859375 L 3262.7861328125 -5336.88330078125 L 3263.3046875 -5336.89306640625 L 3268.944091796875 -5336.9990234375 L 3268.949462890625 -5336.9990234375 L 3268.954833984375 -5336.99951171875 C 3269.00634765625 -5337 3269.058349609375 -5337.00048828125 3269.10986328125 -5337.00048828125 C 3273.85791015625 -5337.00048828125 3277.615966796875 -5334.1044921875 3277.66552734375 -5330.408203125 L 3277.99755859375 -5306.08203125 C 3278.0068359375 -5305.3671875 3277.876953125 -5304.67041015625 3277.619873046875 -5304.01123046875 C 3281.948486328125 -5303.388671875 3286.139404296875 -5302.2080078125 3290.12109375 -5300.48583984375 C 3295.115234375 -5298.32568359375 3299.587890625 -5295.4013671875 3303.41455078125 -5291.79345703125 C 3311.341064453125 -5284.3212890625 3315.71142578125 -5274.62939453125 3315.720458984375 -5264.50341796875 C 3315.7265625 -5257.28759765625 3315.735107421875 -5249.95556640625 3315.74365234375 -5242.865234375 L 3315.745849609375 -5240.91064453125 C 3315.77001953125 -5217.29345703125 3315.791259765625 -5194.05615234375 3315.812744140625 -5170.34765625 C 3315.828857421875 -5155.78662109375 3315.8427734375 -5140.99267578125 3315.856201171875 -5126.68603515625 C 3315.863037109375 -5119.39501953125 3315.8701171875 -5112.10595703125 3315.877197265625 -5104.818359375 C 3315.879638671875 -5102.28173828125 3315.318115234375 -5099.7421875 3314.2080078125 -5097.27001953125 C 3313.149658203125 -5094.91357421875 3311.643798828125 -5092.7275390625 3309.731689453125 -5090.77197265625 C 3307.822998046875 -5088.8193359375 3305.60986328125 -5087.2001953125 3303.153564453125 -5085.95849609375 C 3300.59130859375 -5084.6630859375 3297.877197265625 -5083.83935546875 3295.0869140625 -5083.50927734375 C 3272.775390625 -5080.91064453125 3250.10205078125 -5079.5927734375 3227.693359375 -5079.5927734375 Z" stroke="none"/>
      <path d="M 3227.693359375 -5081.5927734375 C 3250.114013671875 -5081.5927734375 3272.54833984375 -5082.8974609375 3294.852294921875 -5085.49560546875 C 3305.341552734375 -5086.7353515625 3313.886474609375 -5095.61376953125 3313.877197265625 -5104.81640625 C 3313.855712890625 -5126.64306640625 3313.8369140625 -5148.486328125 3313.812744140625 -5170.345703125 C 3313.79150390625 -5193.84912109375 3313.77001953125 -5217.3701171875 3313.745849609375 -5240.908203125 C 3313.736572265625 -5248.7705078125 3313.72705078125 -5256.6337890625 3313.720458984375 -5264.50146484375 C 3313.70263671875 -5284.34619140625 3295.94384765625 -5300.9169921875 3273.681640625 -5302.416015625 C 3275.114990234375 -5303.29931640625 3276.016357421875 -5304.60693359375 3275.997802734375 -5306.0546875 L 3275.665771484375 -5330.38134765625 C 3275.630859375 -5332.98193359375 3272.640380859375 -5335.04736328125 3268.981689453125 -5334.99951171875 L 3263.34228515625 -5334.8935546875 L 3261.033935546875 -5333.55224609375 L 3258.9814453125 -5334.83203125 L 3249.04248046875 -5334.6953125 L 3246.853515625 -5333.2265625 L 3244.681640625 -5334.63671875 L 3234.73876953125 -5334.50146484375 L 3232.640869140625 -5333.19580078125 L 3230.380615234375 -5334.43994140625 L 3220.437744140625 -5334.3046875 L 3218.48828125 -5332.60302734375 L 3216.078369140625 -5334.24560546875 L 3206.140869140625 -5334.10888671875 L 3203.447021484375 -5332.31640625 L 3201.78125 -5334.048828125 L 3191.838623046875 -5333.9150390625 L 3189.890380859375 -5331.890625 L 3187.480224609375 -5333.853515625 L 3182.19287109375 -5333.810546875 C 3178.5390625 -5333.7607421875 3175.60400390625 -5331.61474609375 3175.637451171875 -5329.0146484375 L 3175.970947265625 -5304.6875 C 3175.9833984375 -5303.71435546875 3176.410888671875 -5302.81591796875 3177.132080078125 -5302.0751953125 C 3157.185546875 -5298.80078125 3141.97265625 -5283.36376953125 3141.999755859375 -5264.994140625 C 3142.006591796875 -5257.134765625 3142.0146484375 -5249.27392578125 3142.021240234375 -5241.41015625 C 3142.042724609375 -5217.8681640625 3142.064208984375 -5194.3095703125 3142.082763671875 -5170.7314453125 C 3142.1015625 -5148.80224609375 3142.119140625 -5126.85888671875 3142.1376953125 -5104.900390625 C 3142.14306640625 -5095.640625 3150.666748046875 -5086.69921875 3161.12890625 -5085.4609375 C 3183.20361328125 -5082.87841796875 3205.44189453125 -5081.5927734375 3227.693359375 -5081.5927734375 M 3227.693359375 -5077.5927734375 C 3205.309326171875 -5077.5927734375 3182.75732421875 -5078.9033203125 3160.6640625 -5081.48828125 C 3160.662353515625 -5081.48828125 3160.66064453125 -5081.48828125 3160.65869140625 -5081.48876953125 C 3157.637939453125 -5081.84619140625 3154.7021484375 -5082.7431640625 3151.932373046875 -5084.15478515625 C 3149.28515625 -5085.50390625 3146.89892578125 -5087.2646484375 3144.840087890625 -5089.38818359375 C 3142.77001953125 -5091.5234375 3141.1357421875 -5093.9169921875 3139.98291015625 -5096.50146484375 C 3138.76025390625 -5099.24267578125 3138.139404296875 -5102.06787109375 3138.1376953125 -5104.89794921875 C 3138.129638671875 -5114.33935546875 3138.121826171875 -5123.7783203125 3138.1142578125 -5133.21533203125 C 3138.103759765625 -5145.72412109375 3138.093505859375 -5158.228515625 3138.082763671875 -5170.72802734375 C 3138.064453125 -5194.14453125 3138.042724609375 -5217.9248046875 3138.021728515625 -5240.921875 L 3138.021240234375 -5241.40673828125 C 3138.017578125 -5245.65478515625 3138.013671875 -5249.90185546875 3138.009765625 -5254.1484375 C 3138.00634765625 -5257.7626953125 3138.0029296875 -5261.376953125 3137.999755859375 -5264.99072265625 C 3137.992431640625 -5270.021484375 3138.998779296875 -5274.95166015625 3140.9912109375 -5279.64111328125 C 3142.900634765625 -5284.1357421875 3145.658447265625 -5288.28125 3149.188232421875 -5291.96337890625 C 3152.661376953125 -5295.58642578125 3156.763916015625 -5298.63818359375 3161.382080078125 -5301.03369140625 C 3164.730712890625 -5302.77099609375 3168.27587890625 -5304.123046875 3171.96533203125 -5305.07275390625 L 3171.637939453125 -5328.9599609375 C 3171.60498046875 -5331.51318359375 3172.892822265625 -5333.93115234375 3175.1708984375 -5335.59765625 C 3177.073486328125 -5336.9892578125 3179.5478515625 -5337.77490234375 3182.138427734375 -5337.81005859375 C 3182.145751953125 -5337.81005859375 3182.153076171875 -5337.810546875 3182.160400390625 -5337.810546875 L 3187.44775390625 -5337.853515625 C 3187.45849609375 -5337.853515625 3187.469482421875 -5337.853515625 3187.480224609375 -5337.853515625 C 3188.23779296875 -5337.853515625 3188.976318359375 -5337.638671875 3189.612060546875 -5337.23828125 C 3190.25048828125 -5337.666015625 3191.00439453125 -5337.904296875 3191.784912109375 -5337.91455078125 L 3201.7275390625 -5338.04833984375 C 3201.745361328125 -5338.048828125 3201.763427734375 -5338.048828125 3201.78125 -5338.048828125 C 3202.54248046875 -5338.048828125 3203.28125 -5337.83203125 3203.914794921875 -5337.43212890625 L 3203.925048828125 -5337.43896484375 C 3204.56591796875 -5337.865234375 3205.316162109375 -5338.09814453125 3206.0859375 -5338.1083984375 L 3216.0234375 -5338.2451171875 C 3216.041748046875 -5338.24560546875 3216.06005859375 -5338.24560546875 3216.078369140625 -5338.24560546875 C 3216.83447265625 -5338.24560546875 3217.57421875 -5338.03125 3218.212646484375 -5337.62841796875 C 3218.8525390625 -5338.05712890625 3219.60595703125 -5338.2939453125 3220.38330078125 -5338.30419921875 L 3230.326171875 -5338.439453125 C 3230.344482421875 -5338.43994140625 3230.362548828125 -5338.43994140625 3230.380615234375 -5338.43994140625 C 3231.0546875 -5338.43994140625 3231.71826171875 -5338.26953125 3232.3095703125 -5337.9443359375 L 3232.516845703125 -5337.830078125 L 3232.625244140625 -5337.8974609375 C 3233.243896484375 -5338.2822265625 3233.955810546875 -5338.4912109375 3234.684326171875 -5338.5009765625 L 3244.627197265625 -5338.63623046875 C 3244.645263671875 -5338.63671875 3244.66357421875 -5338.63671875 3244.681640625 -5338.63671875 C 3245.4375 -5338.63671875 3246.177978515625 -5338.42236328125 3246.817138671875 -5338.01904296875 C 3247.4599609375 -5338.44970703125 3248.2138671875 -5338.68408203125 3248.987548828125 -5338.69482421875 L 3258.926513671875 -5338.83154296875 C 3258.94482421875 -5338.83203125 3258.963134765625 -5338.83203125 3258.981689453125 -5338.83203125 C 3259.7294921875 -5338.83203125 3260.462646484375 -5338.62255859375 3261.097900390625 -5338.22607421875 L 3261.106689453125 -5338.220703125 L 3261.332763671875 -5338.35205078125 C 3261.9208984375 -5338.69384765625 3262.5869140625 -5338.8798828125 3263.26708984375 -5338.89306640625 L 3268.906494140625 -5338.9990234375 C 3268.97509765625 -5339 3269.042236328125 -5339.00048828125 3269.10986328125 -5339.00048828125 C 3274.96435546875 -5339.00048828125 3279.600830078125 -5335.23779296875 3279.665283203125 -5330.43505859375 L 3279.99755859375 -5306.109375 C 3279.99951171875 -5305.955078125 3279.99658203125 -5305.80126953125 3279.989013671875 -5305.64794921875 C 3283.755859375 -5304.94873046875 3287.41259765625 -5303.83642578125 3290.9150390625 -5302.3212890625 C 3296.123046875 -5300.06884765625 3300.790283203125 -5297.01611328125 3304.78662109375 -5293.2490234375 C 3308.827392578125 -5289.439453125 3312.001220703125 -5285.0703125 3314.219482421875 -5280.2626953125 C 3316.537841796875 -5275.23828125 3317.715576171875 -5269.93701171875 3317.720458984375 -5264.5048828125 C 3317.7265625 -5257.24609375 3317.7353515625 -5249.8701171875 3317.74365234375 -5242.73681640625 L 3317.745849609375 -5240.9130859375 C 3317.77001953125 -5217.3955078125 3317.791259765625 -5194.11572265625 3317.812744140625 -5170.34912109375 C 3317.828857421875 -5155.78662109375 3317.8427734375 -5140.99072265625 3317.856201171875 -5126.68212890625 C 3317.863037109375 -5119.39306640625 3317.8701171875 -5112.10595703125 3317.877197265625 -5104.8203125 C 3317.880126953125 -5101.9990234375 3317.25927734375 -5099.1826171875 3316.032470703125 -5096.45068359375 C 3314.87744140625 -5093.87890625 3313.23876953125 -5091.498046875 3311.161865234375 -5089.37353515625 C 3309.099365234375 -5087.26416015625 3306.70849609375 -5085.51416015625 3304.055908203125 -5084.17333984375 C 3301.28369140625 -5082.7724609375 3298.34521484375 -5081.88037109375 3295.32177734375 -5081.5234375 C 3295.319580078125 -5081.52294921875 3295.3173828125 -5081.52294921875 3295.315185546875 -5081.5224609375 C 3272.930419921875 -5078.9150390625 3250.17919921875 -5077.5927734375 3227.693359375 -5077.5927734375 Z" stroke="none" fill="#fff"/>
    </g>
    <path id="Path_28495" data-name="Path 28495" d="M261.643,149.323q-42.873-.094-85.752-.191c-23.646.038-42.974,17.017-42.943,37.722q.009,11.789.021,23.584.032,35.311.062,70.678.027,32.893.055,65.831c.006,9.261,8.529,18.2,18.991,19.439a577.227,577.227,0,0,0,133.723-.034c10.49-1.24,19.034-10.119,19.025-19.321q-.032-32.741-.064-65.53-.032-35.255-.068-70.563-.014-11.792-.024-23.593C304.65,166.621,285.282,149.467,261.643,149.323Z" transform="translate(129.223 4789.745)" fill="rgba(237,111,130,0.5)" fill-rule="evenodd"/>
    <g id="Group_16675" data-name="Group 16675">
      <g id="Union_36" data-name="Union 36" transform="translate(-2869.854 10363.84)" fill="#fff" stroke-linecap="round" stroke-linejoin="round" stroke-miterlimit="10">
        <path d="M 3220.960205078125 -5225.84033203125 L 3211.999755859375 -5225.84033203125 C 3206.13818359375 -5225.84033203125 3200.716552734375 -5229.12939453125 3196.733154296875 -5235.10205078125 C 3195.60791015625 -5236.7900390625 3194.635986328125 -5238.6318359375 3193.825439453125 -5240.60986328125 C 3191.381103515625 -5236.806640625 3188.019775390625 -5234.216796875 3184.05712890625 -5233.1552734375 L 3175.40185546875 -5230.83642578125 C 3174.10009765625 -5230.48779296875 3172.752685546875 -5230.310546875 3171.3974609375 -5230.310546875 C 3166.91162109375 -5230.310546875 3162.3681640625 -5232.2197265625 3158.25830078125 -5235.83203125 C 3153.21923828125 -5240.25927734375 3149.33251953125 -5246.84228515625 3147.31494140625 -5254.3681640625 C 3145.29931640625 -5261.8935546875 3145.37353515625 -5269.5380859375 3147.523681640625 -5275.8935546875 C 3149.82470703125 -5282.6923828125 3154.210205078125 -5287.27294921875 3159.87255859375 -5288.7919921875 L 3168.528564453125 -5291.11083984375 C 3169.312744140625 -5291.32080078125 3170.113037109375 -5291.46875 3170.921630859375 -5291.552734375 C 3170.0693359375 -5293.64453125 3169.40185546875 -5295.76708984375 3168.929443359375 -5297.892578125 C 3168.2294921875 -5301.04052734375 3167.97119140625 -5304.130859375 3168.161865234375 -5307.07763671875 C 3168.6220703125 -5314.24072265625 3171.672607421875 -5319.80029296875 3176.751220703125 -5322.73193359375 L 3184.51123046875 -5327.212890625 C 3186.923583984375 -5328.60498046875 3189.6259765625 -5329.31103515625 3192.5439453125 -5329.31103515625 C 3195.7236328125 -5329.31103515625 3199.027587890625 -5328.474609375 3202.3642578125 -5326.82568359375 C 3208.38037109375 -5323.849609375 3213.837646484375 -5318.49609375 3217.7314453125 -5311.751953125 C 3218.383544921875 -5310.62255859375 3218.98046875 -5309.47607421875 3219.520263671875 -5308.31591796875 C 3221.587158203125 -5315.53076171875 3225.382568359375 -5321.82958984375 3230.259033203125 -5326.115234375 C 3234.368408203125 -5329.72705078125 3238.912109375 -5331.63623046875 3243.3984375 -5331.63623046875 C 3244.753173828125 -5331.63623046875 3246.1005859375 -5331.45947265625 3247.402587890625 -5331.1103515625 L 3256.058349609375 -5328.79052734375 C 3261.7216796875 -5327.2744140625 3266.107666015625 -5322.69384765625 3268.407470703125 -5315.89306640625 C 3270.5576171875 -5309.53759765625 3270.6318359375 -5301.89306640625 3268.6162109375 -5294.3681640625 C 3268.122802734375 -5292.52783203125 3267.514892578125 -5290.73388671875 3266.801025390625 -5289.0078125 C 3267.02587890625 -5288.95849609375 3267.24951171875 -5288.90380859375 3267.4716796875 -5288.8447265625 L 3276.127685546875 -5286.5244140625 C 3281.791259765625 -5285.0068359375 3286.17724609375 -5280.42578125 3288.47705078125 -5273.62548828125 C 3290.626953125 -5267.271484375 3290.701171875 -5259.626953125 3288.685546875 -5252.10107421875 C 3286.66845703125 -5244.57666015625 3282.781982421875 -5237.99365234375 3277.7421875 -5233.564453125 C 3273.631591796875 -5229.95263671875 3269.08740234375 -5228.04345703125 3264.6005859375 -5228.04345703125 C 3263.246337890625 -5228.04345703125 3261.8994140625 -5228.22021484375 3260.597412109375 -5228.5693359375 L 3251.943115234375 -5230.88916015625 C 3246.55810546875 -5232.33154296875 3242.32763671875 -5236.544921875 3239.947265625 -5242.8017578125 C 3239.001708984375 -5239.9765625 3237.75244140625 -5237.3896484375 3236.228271484375 -5235.1025390625 C 3232.24609375 -5229.1298828125 3226.823974609375 -5225.84033203125 3220.960205078125 -5225.84033203125 Z M 3239.068603515625 -5271.2265625 C 3239.49462890625 -5270.2021484375 3239.876708984375 -5269.1416015625 3240.214111328125 -5268.04833984375 C 3240.515380859375 -5268.9375 3240.84423828125 -5269.81298828125 3241.19921875 -5270.67138671875 C 3240.974365234375 -5270.72119140625 3240.750732421875 -5270.775390625 3240.528564453125 -5270.8349609375 L 3239.068603515625 -5271.2265625 Z" stroke="none"/>
        <path d="M 3220.960205078125 -5227.84033203125 C 3226.13330078125 -5227.84033203125 3230.96533203125 -5230.81396484375 3234.56396484375 -5236.2119140625 C 3237.70068359375 -5240.91796875 3239.576171875 -5246.994140625 3239.935791015625 -5253.5224609375 C 3240.021240234375 -5250.30859375 3240.5390625 -5247.2314453125 3241.48828125 -5244.42724609375 C 3243.5673828125 -5238.28173828125 3247.462890625 -5234.15966796875 3252.4609375 -5232.82080078125 L 3261.114990234375 -5230.5009765625 C 3266.1123046875 -5229.16259765625 3271.548828125 -5230.78466796875 3276.421875 -5235.06689453125 C 3281.169677734375 -5239.2392578125 3284.837890625 -5245.47216796875 3286.753662109375 -5252.61865234375 C 3288.66796875 -5259.7666015625 3288.60791015625 -5266.99853515625 3286.58251953125 -5272.98486328125 C 3284.50341796875 -5279.13232421875 3280.6064453125 -5283.25390625 3275.60986328125 -5284.5927734375 L 3266.954345703125 -5286.91259765625 C 3265.9384765625 -5287.1845703125 3264.90478515625 -5287.33447265625 3263.861083984375 -5287.3642578125 C 3265.0205078125 -5289.70654296875 3265.97314453125 -5292.2333984375 3266.684326171875 -5294.8857421875 C 3268.5986328125 -5302.0322265625 3268.538330078125 -5309.265625 3266.512939453125 -5315.25244140625 C 3264.43408203125 -5321.3994140625 3260.537109375 -5325.52099609375 3255.54052734375 -5326.85888671875 L 3246.885009765625 -5329.1787109375 C 3241.889404296875 -5330.5166015625 3236.452880859375 -5328.89697265625 3231.579345703125 -5324.61279296875 C 3226.83154296875 -5320.4404296875 3223.162109375 -5314.20751953125 3221.247802734375 -5307.06103515625 C 3220.695556640625 -5305.0009765625 3220.3076171875 -5302.93359375 3220.08349609375 -5300.8916015625 C 3219.218017578125 -5304.2197265625 3217.84326171875 -5307.55908203125 3215.99951171875 -5310.751953125 C 3212.300537109375 -5317.15869140625 3207.1435546875 -5322.22998046875 3201.47802734375 -5325.03271484375 C 3195.661376953125 -5327.908203125 3189.991943359375 -5328.0673828125 3185.511474609375 -5325.48095703125 L 3177.7509765625 -5320.99951171875 C 3173.270751953125 -5318.41357421875 3170.57373046875 -5313.42333984375 3170.15771484375 -5306.94873046875 C 3169.798583984375 -5301.396484375 3171.161376953125 -5295.30615234375 3174.015625 -5289.5576171875 C 3172.33642578125 -5289.73681640625 3170.667724609375 -5289.61376953125 3169.046142578125 -5289.1787109375 L 3160.390625 -5286.8603515625 C 3155.39404296875 -5285.52001953125 3151.498291015625 -5281.3984375 3149.418212890625 -5275.25244140625 C 3147.392822265625 -5269.26611328125 3147.33251953125 -5262.03271484375 3149.246826171875 -5254.88623046875 C 3151.16259765625 -5247.73974609375 3154.830810546875 -5241.50537109375 3159.57861328125 -5237.33447265625 C 3164.452392578125 -5233.05126953125 3169.88818359375 -5231.4306640625 3174.88427734375 -5232.7685546875 L 3183.53955078125 -5235.0869140625 C 3188.297119140625 -5236.36181640625 3192.0576171875 -5240.16064453125 3194.202392578125 -5245.82666015625 C 3195.12255859375 -5242.26806640625 3196.538330078125 -5238.99951171875 3198.39697265625 -5236.2119140625 C 3201.9970703125 -5230.81396484375 3206.826416015625 -5227.84033203125 3211.999755859375 -5227.84033203125 L 3220.960205078125 -5227.84033203125 M 3204.16015625 -5255.83984375 C 3204.16015625 -5244.01416015625 3209.38427734375 -5234.02490234375 3216.47998046875 -5231.0107421875 C 3217.498046875 -5230.580078125 3218.5546875 -5230.28955078125 3219.6396484375 -5230.15869140625 C 3220.075927734375 -5230.1064453125 3220.515869140625 -5230.07958984375 3220.960205078125 -5230.07958984375 C 3220.515869140625 -5230.07958984375 3220.075927734375 -5230.1064453125 3219.6396484375 -5230.15869140625 C 3218.5546875 -5230.28955078125 3217.498046875 -5230.580078125 3216.47998046875 -5231.0107421875 C 3209.38427734375 -5234.02490234375 3204.16015625 -5244.01416015625 3204.16015625 -5255.83984375 M 3202.544189453125 -5234.56005859375 C 3205.23974609375 -5231.734375 3208.49609375 -5230.07958984375 3211.999755859375 -5230.07958984375 C 3208.49609375 -5230.07958984375 3205.23974609375 -5231.734375 3202.544189453125 -5234.56005859375 M 3250.818115234375 -5252.11083984375 C 3250.825927734375 -5244.56396484375 3253.314453125 -5238.0810546875 3257.608642578125 -5234.724609375 C 3258.4794921875 -5234.04345703125 3259.42529296875 -5233.48974609375 3260.440673828125 -5233.0830078125 C 3260.847412109375 -5232.919921875 3261.26611328125 -5232.78076171875 3261.695556640625 -5232.66552734375 C 3261.26611328125 -5232.78076171875 3260.847412109375 -5232.919921875 3260.440673828125 -5233.0830078125 C 3259.42529296875 -5233.48974609375 3258.4794921875 -5234.04345703125 3257.608642578125 -5234.724609375 C 3253.314453125 -5238.0810546875 3250.825927734375 -5244.56396484375 3250.818115234375 -5252.11083984375 M 3171.289794921875 -5234.55322265625 C 3171.32861328125 -5234.552734375 3171.367431640625 -5234.55224609375 3171.40625 -5234.55224609375 C 3171.367431640625 -5234.55224609375 3171.32861328125 -5234.552734375 3171.289794921875 -5234.55322265625 M 3172.794189453125 -5234.6376953125 C 3173.301025390625 -5234.7001953125 3173.804931640625 -5234.7978515625 3174.304931640625 -5234.931640625 C 3173.80517578125 -5234.7978515625 3173.301025390625 -5234.7001953125 3172.794189453125 -5234.6376953125 C 3172.343505859375 -5234.58203125 3171.890625 -5234.5537109375 3171.4365234375 -5234.552734375 C 3171.890625 -5234.5537109375 3172.343505859375 -5234.58203125 3172.794189453125 -5234.6376953125 M 3245.065673828125 -5241.759765625 C 3246.9384765625 -5238.33251953125 3249.655517578125 -5235.89111328125 3253.0400390625 -5234.98388671875 C 3249.655517578125 -5235.89111328125 3246.9384765625 -5238.33251953125 3245.065673828125 -5241.759765625 M 3164.0107421875 -5236.8125 C 3164.05322265625 -5236.78662109375 3164.095703125 -5236.76123046875 3164.13818359375 -5236.73583984375 C 3164.095703125 -5236.76123046875 3164.05322265625 -5236.78662109375 3164.0107421875 -5236.8125 M 3197.25048828125 -5243.51904296875 C 3198.15087890625 -5240.99462890625 3199.31884765625 -5238.72412109375 3200.69677734375 -5236.80078125 L 3206.98291015625 -5236.80078125 L 3200.69677734375 -5236.80078125 C 3199.31884765625 -5238.72412109375 3198.15087890625 -5240.99462890625 3197.25048828125 -5243.51904296875 M 3180.765869140625 -5236.8935546875 C 3180.54345703125 -5236.8798828125 3180.32080078125 -5236.87255859375 3180.097900390625 -5236.8720703125 C 3180.32080078125 -5236.87255859375 3180.54345703125 -5236.8798828125 3180.765869140625 -5236.8935546875 M 3180.01220703125 -5236.8720703125 C 3180.029541015625 -5236.8720703125 3180.046875 -5236.8720703125 3180.064453125 -5236.8720703125 C 3180.046875 -5236.8720703125 3180.029541015625 -5236.8720703125 3180.01220703125 -5236.8720703125 M 3178.775634765625 -5236.94287109375 C 3178.926513671875 -5236.92626953125 3179.07763671875 -5236.91259765625 3179.228515625 -5236.90185546875 C 3179.07763671875 -5236.91259765625 3178.926513671875 -5236.92626953125 3178.775634765625 -5236.94287109375 M 3160.0654296875 -5257.78515625 C 3163.12646484375 -5246.36181640625 3170.757080078125 -5238.06640625 3178.391845703125 -5236.99072265625 C 3178.47412109375 -5236.97900390625 3178.55615234375 -5236.96826171875 3178.638427734375 -5236.95849609375 C 3178.55615234375 -5236.96826171875 3178.473876953125 -5236.97900390625 3178.391845703125 -5236.99072265625 C 3170.757080078125 -5238.06640625 3163.12646484375 -5246.36181640625 3160.0654296875 -5257.78515625 M 3156.579345703125 -5244.095703125 C 3158.10302734375 -5241.8896484375 3159.818115234375 -5239.99951171875 3161.646728515625 -5238.4970703125 C 3159.818115234375 -5239.99951171875 3158.10302734375 -5241.8896484375 3156.579345703125 -5244.095703125 M 3242.27099609375 -5251.78369140625 C 3242.48779296875 -5249.11083984375 3243.028076171875 -5246.61572265625 3243.8603515625 -5244.400390625 L 3249.933837890625 -5242.77392578125 L 3243.8603515625 -5244.400390625 C 3243.028076171875 -5246.61572265625 3242.48779296875 -5249.11083984375 3242.27099609375 -5251.78369140625 M 3195.5400390625 -5250.6796875 C 3195.767333984375 -5248.97265625 3196.104736328125 -5247.32666015625 3196.540283203125 -5245.759765625 L 3203.18505859375 -5245.759765625 L 3196.540283203125 -5245.759765625 C 3196.104248046875 -5247.326171875 3195.766845703125 -5248.97216796875 3195.539794921875 -5250.67822265625 C 3195.539794921875 -5250.6787109375 3195.5400390625 -5250.67919921875 3195.5400390625 -5250.6796875 M 3151.7177734375 -5254.388671875 C 3152.6220703125 -5251.35302734375 3153.8515625 -5248.55419921875 3155.313720703125 -5246.07666015625 C 3153.85009765625 -5248.55419921875 3152.6220703125 -5251.35302734375 3151.7177734375 -5254.388671875 M 3243.1357421875 -5262.82177734375 C 3243.136962890625 -5262.82763671875 3243.138427734375 -5262.83349609375 3243.1396484375 -5262.83935546875 C 3243.138427734375 -5262.83349609375 3243.136962890625 -5262.82763671875 3243.1357421875 -5262.82177734375 C 3242.451171875 -5259.8447265625 3242.139404296875 -5256.9140625 3242.165283203125 -5254.13037109375 L 3248.583984375 -5252.4111328125 L 3242.165283203125 -5254.13037109375 C 3242.13818359375 -5256.9140625 3242.451171875 -5259.8447265625 3243.1357421875 -5262.82177734375 M 3235.294921875 -5274.30859375 L 3241.045654296875 -5272.76708984375 C 3242.061767578125 -5272.4951171875 3243.09521484375 -5272.34521484375 3244.138916015625 -5272.3154296875 C 3242.979736328125 -5269.97314453125 3242.027587890625 -5267.44677734375 3241.317138671875 -5264.7939453125 C 3240.591796875 -5262.087890625 3240.149658203125 -5259.36962890625 3239.990478515625 -5256.7109375 C 3239.856201171875 -5263.255859375 3238.20751953125 -5269.42138671875 3235.294921875 -5274.30859375 M 3196.076416015625 -5256.9609375 L 3201.939453125 -5256.9609375 L 3196.076416015625 -5256.9609375 M 3243.78662109375 -5265.29150390625 L 3250.279052734375 -5263.55224609375 L 3243.78662109375 -5265.29150390625 M 3193.197265625 -5271.56884765625 C 3194.11865234375 -5271.2783203125 3195.031494140625 -5271.05810546875 3195.929931640625 -5270.90869140625 C 3195.430419921875 -5269.75732421875 3194.990966796875 -5268.5576171875 3194.61376953125 -5267.31640625 C 3194.212890625 -5268.7763671875 3193.739013671875 -5270.19677734375 3193.197265625 -5271.56884765625 M 3197.25048828125 -5268.15966796875 L 3203.8486328125 -5268.15966796875 L 3197.25048828125 -5268.15966796875 M 3194.4990234375 -5273.5107421875 C 3194.529296875 -5273.50244140625 3194.5595703125 -5273.494140625 3194.58984375 -5273.48583984375 C 3194.5595703125 -5273.494140625 3194.529296875 -5273.50244140625 3194.4990234375 -5273.5107421875 M 3252.48583984375 -5274.5556640625 L 3255.021484375 -5273.8759765625 L 3252.48583984375 -5274.5556640625 M 3230.748779296875 -5294.37744140625 C 3230.756591796875 -5286.82958984375 3233.2451171875 -5280.34716796875 3237.539306640625 -5276.990234375 C 3238.411376953125 -5276.3095703125 3239.35595703125 -5275.7568359375 3240.371337890625 -5275.35009765625 C 3240.778076171875 -5275.18701171875 3241.19677734375 -5275.04638671875 3241.626220703125 -5274.931640625 C 3241.19677734375 -5275.04638671875 3240.778076171875 -5275.18701171875 3240.371337890625 -5275.35009765625 C 3239.35595703125 -5275.7568359375 3238.411376953125 -5276.3095703125 3237.539306640625 -5276.990234375 C 3233.2451171875 -5280.34716796875 3230.756591796875 -5286.82958984375 3230.748779296875 -5294.37744140625 M 3260.39111328125 -5281.71337890625 L 3261.890869140625 -5281.3115234375 L 3260.39111328125 -5281.71337890625 M 3224.99609375 -5284.02587890625 C 3225.18505859375 -5283.68017578125 3225.38232421875 -5283.34521484375 3225.588134765625 -5283.02001953125 C 3225.38232421875 -5283.34521484375 3225.18505859375 -5283.68017578125 3224.99609375 -5284.02587890625 M 3220.83837890625 -5288.6474609375 C 3221.009521484375 -5287.98291015625 3221.203125 -5287.3310546875 3221.4189453125 -5286.693359375 C 3221.77294921875 -5285.6474609375 3222.179443359375 -5284.66015625 3222.635009765625 -5283.73486328125 C 3222.081787109375 -5283.8046875 3221.522705078125 -5283.83984375 3220.960205078125 -5283.83984375 L 3219.458251953125 -5283.83984375 C 3220.092041015625 -5285.296875 3220.555908203125 -5286.90673828125 3220.83837890625 -5288.6474609375 M 3222.20166015625 -5294.0498046875 C 3222.418212890625 -5291.376953125 3222.958740234375 -5288.88330078125 3223.790771484375 -5286.66796875 L 3229.864501953125 -5285.041015625 L 3223.790771484375 -5286.66796875 C 3222.958740234375 -5288.88330078125 3222.418212890625 -5291.376953125 3222.20166015625 -5294.0498046875 M 3184.961669921875 -5292.8310546875 C 3185.037841796875 -5292.69921875 3185.1142578125 -5292.56884765625 3185.19140625 -5292.43798828125 C 3185.1142578125 -5292.56884765625 3185.037841796875 -5292.69921875 3184.961669921875 -5292.8310546875 M 3223.0703125 -5305.1064453125 C 3222.383056640625 -5302.12353515625 3222.070068359375 -5299.18505859375 3222.095947265625 -5296.3974609375 L 3228.5146484375 -5294.67724609375 L 3222.095947265625 -5296.3974609375 C 3222.068603515625 -5299.1865234375 3222.383056640625 -5302.12353515625 3223.0703125 -5305.1064453125 M 3223.71728515625 -5307.55859375 L 3230.20947265625 -5305.818359375 L 3223.71728515625 -5307.55859375 M 3228.578857421875 -5317.85009765625 L 3234.951904296875 -5316.14306640625 L 3228.578857421875 -5317.85009765625 M 3236.011474609375 -5325.13427734375 L 3241.821533203125 -5323.57861328125 L 3236.011474609375 -5325.13427734375 M 3220.960205078125 -5223.84033203125 L 3211.999755859375 -5223.84033203125 C 3208.674072265625 -5223.84033203125 3205.48193359375 -5224.76708984375 3202.51171875 -5226.595703125 C 3199.687255859375 -5228.333984375 3197.183349609375 -5230.82275390625 3195.069091796875 -5233.99267578125 C 3194.478515625 -5234.87841796875 3193.927734375 -5235.80322265625 3193.418212890625 -5236.76513671875 C 3190.982421875 -5234.03564453125 3187.981689453125 -5232.13623046875 3184.574951171875 -5231.22314453125 L 3175.919189453125 -5228.90478515625 C 3174.448974609375 -5228.5107421875 3172.927490234375 -5228.310546875 3171.3974609375 -5228.310546875 C 3166.41845703125 -5228.310546875 3161.41845703125 -5230.3916015625 3156.937744140625 -5234.330078125 C 3151.605712890625 -5239.01416015625 3147.501953125 -5245.947265625 3145.38330078125 -5253.8505859375 C 3143.266357421875 -5261.75341796875 3143.353759765625 -5269.80908203125 3145.629150390625 -5276.5341796875 C 3146.850830078125 -5280.1435546875 3148.625244140625 -5283.19580078125 3150.90380859375 -5285.6064453125 C 3153.29931640625 -5288.14013671875 3156.142333984375 -5289.8623046875 3159.354248046875 -5290.7236328125 L 3168.01123046875 -5293.04248046875 C 3168.0771484375 -5293.06005859375 3168.142822265625 -5293.0771484375 3168.208740234375 -5293.09423828125 C 3167.713134765625 -5294.54150390625 3167.301513671875 -5295.9990234375 3166.97705078125 -5297.45849609375 C 3166.236083984375 -5300.791015625 3165.963134765625 -5304.07080078125 3166.166015625 -5307.20703125 C 3166.41015625 -5311.0078125 3167.333984375 -5314.41552734375 3168.911376953125 -5317.333984375 C 3170.569580078125 -5320.40234375 3172.870849609375 -5322.80126953125 3175.75146484375 -5324.4638671875 L 3183.51123046875 -5328.94482421875 C 3186.2314453125 -5330.51513671875 3189.270263671875 -5331.31103515625 3192.5439453125 -5331.31103515625 C 3196.03369140625 -5331.31103515625 3199.635986328125 -5330.4052734375 3203.25048828125 -5328.61865234375 C 3209.44482421875 -5325.55419921875 3215.062744140625 -5320.13720703125 3219.128173828125 -5313.3232421875 C 3221.43115234375 -5319.03466796875 3224.817626953125 -5323.99560546875 3228.93896484375 -5327.61767578125 C 3233.418701171875 -5331.55517578125 3238.418701171875 -5333.63623046875 3243.3984375 -5333.63623046875 C 3244.927978515625 -5333.63623046875 3246.449462890625 -5333.4365234375 3247.92041015625 -5333.04248046875 L 3256.575927734375 -5330.72265625 C 3259.787841796875 -5329.8623046875 3262.631591796875 -5328.1416015625 3265.027587890625 -5325.60693359375 C 3267.306640625 -5323.1962890625 3269.081298828125 -5320.1435546875 3270.302001953125 -5316.53369140625 C 3272.577392578125 -5309.80859375 3272.664794921875 -5301.7529296875 3270.548095703125 -5293.8505859375 C 3270.232666015625 -5292.67431640625 3269.872314453125 -5291.51513671875 3269.46923828125 -5290.3798828125 L 3276.645263671875 -5288.45654296875 C 3279.857666015625 -5287.595703125 3282.701171875 -5285.8740234375 3285.096923828125 -5283.33984375 C 3287.376220703125 -5280.9287109375 3289.15087890625 -5277.8759765625 3290.37158203125 -5274.2666015625 C 3292.646728515625 -5267.54248046875 3292.73388671875 -5259.48681640625 3290.617431640625 -5251.583984375 C 3288.4990234375 -5243.681640625 3284.3955078125 -5236.7490234375 3279.062255859375 -5232.0625 C 3274.581298828125 -5228.125 3269.58056640625 -5226.04345703125 3264.6005859375 -5226.04345703125 C 3263.071533203125 -5226.04345703125 3261.550537109375 -5226.2431640625 3260.079833984375 -5226.63720703125 L 3251.42529296875 -5228.95703125 C 3248.212890625 -5229.81787109375 3245.369140625 -5231.5390625 3242.97314453125 -5234.07373046875 C 3241.904541015625 -5235.2041015625 3240.947021484375 -5236.4755859375 3240.105224609375 -5237.87939453125 C 3239.4443359375 -5236.51123046875 3238.705322265625 -5235.21337890625 3237.892333984375 -5233.99365234375 C 3235.77880859375 -5230.8232421875 3233.274658203125 -5228.333984375 3230.448974609375 -5226.59521484375 C 3227.478271484375 -5224.76708984375 3224.285888671875 -5223.84033203125 3220.960205078125 -5223.84033203125 Z" stroke="none" fill="#fff"/>
      </g>
      <g id="Group_16674" data-name="Group 16674">
        <g id="Group_16663" data-name="Group 16663" transform="translate(291.604 5052.219) rotate(-30)">
          <g id="Group_9378" data-name="Group 9378" transform="translate(-0.366 -0.048)">
            <path id="Path_244" data-name="Path 244" d="M74.4,11.52a11.07,11.07,0,0,0-1.32.079,11.59,11.59,0,0,0-3.16.852c-7.1,3.014-12.32,13-12.32,24.828s5.224,21.815,12.32,24.828a11.589,11.589,0,0,0,3.16.852,11.066,11.066,0,0,0,1.32.079c9.263,0,16.8-11.556,16.8-25.76S83.663,11.52,74.4,11.52" transform="translate(-46.4 -9.28)" fill="#f8cc5d"/>
            <path id="Path_245" data-name="Path 245" d="M19.574,92.16H12.929a37.41,37.41,0,0,0-1.323,8.96h6.722a39.757,39.757,0,0,1,1.247-8.96" transform="translate(-9.349 -74.24)" fill="#f8cc5d"/>
            <path id="Path_246" data-name="Path 246" d="M31.794,46.08H25.507A27.322,27.322,0,0,0,22.06,52.8h6.6a30.833,30.833,0,0,1,3.135-6.72" transform="translate(-17.771 -37.12)" fill="#f8cc5d"/>
            <path id="Path_247" data-name="Path 247" d="M18.328,149.76H11.607a37.41,37.41,0,0,0,1.323,8.96h6.645a39.767,39.767,0,0,1-1.247-8.96" transform="translate(-9.35 -120.64)" fill="#f8cc5d"/>
            <path id="Path_248" data-name="Path 248" d="M60.063,11.6a11.11,11.11,0,0,0-1.32-.079A13.118,13.118,0,0,0,49.286,16H55.3a19.629,19.629,0,0,1,4.762-4.4" transform="translate(-39.703 -9.28)" fill="#f8cc5d"/>
            <path id="Path_249" data-name="Path 249" d="M28.657,207.36h-6.6a27.329,27.329,0,0,0,3.447,6.72h6.287a30.85,30.85,0,0,1-3.135-6.72" transform="translate(-17.77 -167.04)" fill="#f8cc5d"/>
            <path id="Path_250" data-name="Path 250" d="M55.3,253.44H49.286a13.118,13.118,0,0,0,9.457,4.48,11.061,11.061,0,0,0,1.32-.079,19.628,19.628,0,0,1-4.762-4.4" transform="translate(-39.703 -204.16)" fill="#f8cc5d"/>
            <path id="Path_251" data-name="Path 251" d="M28,0H19.04c-5.173,0-10,2.973-13.6,8.372C1.931,13.63,0,20.6,0,28S1.931,42.369,5.437,47.628c3.6,5.4,8.43,8.372,13.6,8.372H28c5.173,0,10-2.973,13.6-8.372C45.109,42.369,47.04,35.4,47.04,28S45.109,13.63,41.6,8.372C38,2.973,33.173,0,28,0M19.04,2.24a11.07,11.07,0,0,1,1.32.079A19.626,19.626,0,0,0,15.6,6.72H9.583A13.118,13.118,0,0,1,19.04,2.24M7.736,8.96h6.287a30.842,30.842,0,0,0-3.136,6.72h-6.6A27.328,27.328,0,0,1,7.736,8.96M3.58,17.92h6.645a39.768,39.768,0,0,0-1.247,8.96H2.257A37.39,37.39,0,0,1,3.58,17.92M2.257,29.12H8.978a39.768,39.768,0,0,0,1.247,8.96H3.58a37.39,37.39,0,0,1-1.323-8.96M7.736,47.04a27.328,27.328,0,0,1-3.446-6.72h6.6a30.842,30.842,0,0,0,3.136,6.72Zm11.3,6.72a13.118,13.118,0,0,1-9.457-4.48H15.6a19.625,19.625,0,0,0,4.762,4.4,11.07,11.07,0,0,1-1.32.079m8.96,0a11.07,11.07,0,0,1-1.32-.079,11.59,11.59,0,0,1-3.16-.852c-7.1-3.014-12.32-13-12.32-24.828S16.424,6.185,23.52,3.172a11.59,11.59,0,0,1,3.16-.852A11.07,11.07,0,0,1,28,2.24C37.263,2.24,44.8,13.8,44.8,28S37.263,53.76,28,53.76" transform="translate(0 0)" fill="#1f343e"/>
            <path id="Path_252" data-name="Path 252" d="M118.3,69.6l-5.682,22.46a.787.787,0,0,1-.554.588.738.738,0,0,1-.334.008.986.986,0,0,1-.743-.925l-.692-12.95-7.222,1.883a.808.808,0,0,1-.761-.221,1.049,1.049,0,0,1-.315-.811l1.016-16.935a.815.815,0,0,1,.581-.768l7.29-1.9a.812.812,0,0,1,.776.235,1.049,1.049,0,0,1,.3.838l-.911,8.9,6.2-1.618a.824.824,0,0,1,.825.287,1.046,1.046,0,0,1,.224.925" transform="translate(-82.167 -48.334)" fill="#ff007c"/>
            <path id="Path_253" data-name="Path 253" d="M117.255,68.383,111.051,70l.911-8.9a1.05,1.05,0,0,0-.3-.839.812.812,0,0,0-.776-.235l-7.29,1.9a.815.815,0,0,0-.581.768L102,79.627a1.048,1.048,0,0,0,.315.811.809.809,0,0,0,.761.221l7.222-1.884.692,12.95a.986.986,0,0,0,.743.925.738.738,0,0,0,.334-.008.787.787,0,0,0,.553-.588L118.3,69.6a1.045,1.045,0,0,0-.224-.925.824.824,0,0,0-.825-.287" transform="translate(-82.167 -48.333)" fill="#1f343e"/>
          </g>
        </g>
        <g id="Group_16664" data-name="Group 16664" transform="matrix(0.966, 0.259, -0.259, 0.966, 378.904, 5072.142)">
          <g id="Group_9378-2" data-name="Group 9378" transform="translate(-0.366 -0.048)">
            <path id="Path_244-2" data-name="Path 244" d="M74.4,11.52a11.07,11.07,0,0,0-1.32.079,11.59,11.59,0,0,0-3.16.852c-7.1,3.014-12.32,13-12.32,24.828s5.224,21.815,12.32,24.828a11.589,11.589,0,0,0,3.16.852,11.066,11.066,0,0,0,1.32.079c9.263,0,16.8-11.556,16.8-25.76S83.663,11.52,74.4,11.52" transform="translate(-46.4 -9.28)" fill="#f8cc5d"/>
            <path id="Path_245-2" data-name="Path 245" d="M19.574,92.16H12.929a37.41,37.41,0,0,0-1.323,8.96h6.722a39.757,39.757,0,0,1,1.247-8.96" transform="translate(-9.349 -74.24)" fill="#f8cc5d"/>
            <path id="Path_246-2" data-name="Path 246" d="M31.794,46.08H25.507A27.322,27.322,0,0,0,22.06,52.8h6.6a30.833,30.833,0,0,1,3.135-6.72" transform="translate(-17.771 -37.12)" fill="#f8cc5d"/>
            <path id="Path_247-2" data-name="Path 247" d="M18.328,149.76H11.607a37.41,37.41,0,0,0,1.323,8.96h6.645a39.767,39.767,0,0,1-1.247-8.96" transform="translate(-9.35 -120.64)" fill="#f8cc5d"/>
            <path id="Path_248-2" data-name="Path 248" d="M60.063,11.6a11.11,11.11,0,0,0-1.32-.079A13.118,13.118,0,0,0,49.286,16H55.3a19.629,19.629,0,0,1,4.762-4.4" transform="translate(-39.703 -9.28)" fill="#f8cc5d"/>
            <path id="Path_249-2" data-name="Path 249" d="M28.657,207.36h-6.6a27.329,27.329,0,0,0,3.447,6.72h6.287a30.85,30.85,0,0,1-3.135-6.72" transform="translate(-17.77 -167.04)" fill="#f8cc5d"/>
            <path id="Path_250-2" data-name="Path 250" d="M55.3,253.44H49.286a13.118,13.118,0,0,0,9.457,4.48,11.061,11.061,0,0,0,1.32-.079,19.628,19.628,0,0,1-4.762-4.4" transform="translate(-39.703 -204.16)" fill="#f8cc5d"/>
            <path id="Path_251-2" data-name="Path 251" d="M28,0H19.04c-5.173,0-10,2.973-13.6,8.372C1.931,13.63,0,20.6,0,28S1.931,42.369,5.437,47.628c3.6,5.4,8.43,8.372,13.6,8.372H28c5.173,0,10-2.973,13.6-8.372C45.109,42.369,47.04,35.4,47.04,28S45.109,13.63,41.6,8.372C38,2.973,33.173,0,28,0M19.04,2.24a11.07,11.07,0,0,1,1.32.079A19.626,19.626,0,0,0,15.6,6.72H9.583A13.118,13.118,0,0,1,19.04,2.24M7.736,8.96h6.287a30.842,30.842,0,0,0-3.136,6.72h-6.6A27.328,27.328,0,0,1,7.736,8.96M3.58,17.92h6.645a39.768,39.768,0,0,0-1.247,8.96H2.257A37.39,37.39,0,0,1,3.58,17.92M2.257,29.12H8.978a39.768,39.768,0,0,0,1.247,8.96H3.58a37.39,37.39,0,0,1-1.323-8.96M7.736,47.04a27.328,27.328,0,0,1-3.446-6.72h6.6a30.842,30.842,0,0,0,3.136,6.72Zm11.3,6.72a13.118,13.118,0,0,1-9.457-4.48H15.6a19.625,19.625,0,0,0,4.762,4.4,11.07,11.07,0,0,1-1.32.079m8.96,0a11.07,11.07,0,0,1-1.32-.079,11.59,11.59,0,0,1-3.16-.852c-7.1-3.014-12.32-13-12.32-24.828S16.424,6.185,23.52,3.172a11.59,11.59,0,0,1,3.16-.852A11.07,11.07,0,0,1,28,2.24C37.263,2.24,44.8,13.8,44.8,28S37.263,53.76,28,53.76" transform="translate(0 0)" fill="#1f343e"/>
            <path id="Path_252-2" data-name="Path 252" d="M118.3,69.6l-5.682,22.46a.787.787,0,0,1-.554.588.738.738,0,0,1-.334.008.986.986,0,0,1-.743-.925l-.692-12.95-7.222,1.883a.808.808,0,0,1-.761-.221,1.049,1.049,0,0,1-.315-.811l1.016-16.935a.815.815,0,0,1,.581-.768l7.29-1.9a.812.812,0,0,1,.776.235,1.049,1.049,0,0,1,.3.838l-.911,8.9,6.2-1.618a.824.824,0,0,1,.825.287,1.046,1.046,0,0,1,.224.925" transform="translate(-82.167 -48.334)" fill="#ff007c"/>
            <path id="Path_253-2" data-name="Path 253" d="M117.255,68.383,111.051,70l.911-8.9a1.05,1.05,0,0,0-.3-.839.812.812,0,0,0-.776-.235l-7.29,1.9a.815.815,0,0,0-.581.768L102,79.627a1.048,1.048,0,0,0,.315.811.809.809,0,0,0,.761.221l7.222-1.884.692,12.95a.986.986,0,0,0,.743.925.738.738,0,0,0,.334-.008.787.787,0,0,0,.553-.588L118.3,69.6a1.045,1.045,0,0,0-.224-.925.824.824,0,0,0-.825-.287" transform="translate(-82.167 -48.333)" fill="#1f343e"/>
          </g>
        </g>
        <g id="Group_16665" data-name="Group 16665" transform="matrix(0.966, -0.259, 0.259, 0.966, 272.366, 5081.86)">
          <g id="Group_9378-3" data-name="Group 9378" transform="translate(-0.366 -0.048)">
            <path id="Path_244-3" data-name="Path 244" d="M74.4,11.52a11.07,11.07,0,0,0-1.32.079,11.59,11.59,0,0,0-3.16.852c-7.1,3.014-12.32,13-12.32,24.828s5.224,21.815,12.32,24.828a11.589,11.589,0,0,0,3.16.852,11.066,11.066,0,0,0,1.32.079c9.263,0,16.8-11.556,16.8-25.76S83.663,11.52,74.4,11.52" transform="translate(-46.4 -9.28)" fill="#f8cc5d"/>
            <path id="Path_245-3" data-name="Path 245" d="M19.574,92.16H12.929a37.41,37.41,0,0,0-1.323,8.96h6.722a39.757,39.757,0,0,1,1.247-8.96" transform="translate(-9.349 -74.24)" fill="#f8cc5d"/>
            <path id="Path_246-3" data-name="Path 246" d="M31.794,46.08H25.507A27.322,27.322,0,0,0,22.06,52.8h6.6a30.833,30.833,0,0,1,3.135-6.72" transform="translate(-17.771 -37.12)" fill="#f8cc5d"/>
            <path id="Path_247-3" data-name="Path 247" d="M18.328,149.76H11.607a37.41,37.41,0,0,0,1.323,8.96h6.645a39.767,39.767,0,0,1-1.247-8.96" transform="translate(-9.35 -120.64)" fill="#f8cc5d"/>
            <path id="Path_248-3" data-name="Path 248" d="M60.063,11.6a11.11,11.11,0,0,0-1.32-.079A13.118,13.118,0,0,0,49.286,16H55.3a19.629,19.629,0,0,1,4.762-4.4" transform="translate(-39.703 -9.28)" fill="#f8cc5d"/>
            <path id="Path_249-3" data-name="Path 249" d="M28.657,207.36h-6.6a27.329,27.329,0,0,0,3.447,6.72h6.287a30.85,30.85,0,0,1-3.135-6.72" transform="translate(-17.77 -167.04)" fill="#f8cc5d"/>
            <path id="Path_250-3" data-name="Path 250" d="M55.3,253.44H49.286a13.118,13.118,0,0,0,9.457,4.48,11.061,11.061,0,0,0,1.32-.079,19.628,19.628,0,0,1-4.762-4.4" transform="translate(-39.703 -204.16)" fill="#f8cc5d"/>
            <path id="Path_251-3" data-name="Path 251" d="M28,0H19.04c-5.173,0-10,2.973-13.6,8.372C1.931,13.63,0,20.6,0,28S1.931,42.369,5.437,47.628c3.6,5.4,8.43,8.372,13.6,8.372H28c5.173,0,10-2.973,13.6-8.372C45.109,42.369,47.04,35.4,47.04,28S45.109,13.63,41.6,8.372C38,2.973,33.173,0,28,0M19.04,2.24a11.07,11.07,0,0,1,1.32.079A19.626,19.626,0,0,0,15.6,6.72H9.583A13.118,13.118,0,0,1,19.04,2.24M7.736,8.96h6.287a30.842,30.842,0,0,0-3.136,6.72h-6.6A27.328,27.328,0,0,1,7.736,8.96M3.58,17.92h6.645a39.768,39.768,0,0,0-1.247,8.96H2.257A37.39,37.39,0,0,1,3.58,17.92M2.257,29.12H8.978a39.768,39.768,0,0,0,1.247,8.96H3.58a37.39,37.39,0,0,1-1.323-8.96M7.736,47.04a27.328,27.328,0,0,1-3.446-6.72h6.6a30.842,30.842,0,0,0,3.136,6.72Zm11.3,6.72a13.118,13.118,0,0,1-9.457-4.48H15.6a19.625,19.625,0,0,0,4.762,4.4,11.07,11.07,0,0,1-1.32.079m8.96,0a11.07,11.07,0,0,1-1.32-.079,11.59,11.59,0,0,1-3.16-.852c-7.1-3.014-12.32-13-12.32-24.828S16.424,6.185,23.52,3.172a11.59,11.59,0,0,1,3.16-.852A11.07,11.07,0,0,1,28,2.24C37.263,2.24,44.8,13.8,44.8,28S37.263,53.76,28,53.76" transform="translate(0 0)" fill="#1f343e"/>
            <path id="Path_252-3" data-name="Path 252" d="M118.3,69.6l-5.682,22.46a.787.787,0,0,1-.554.588.738.738,0,0,1-.334.008.986.986,0,0,1-.743-.925l-.692-12.95-7.222,1.883a.808.808,0,0,1-.761-.221,1.049,1.049,0,0,1-.315-.811l1.016-16.935a.815.815,0,0,1,.581-.768l7.29-1.9a.812.812,0,0,1,.776.235,1.049,1.049,0,0,1,.3.838l-.911,8.9,6.2-1.618a.824.824,0,0,1,.825.287,1.046,1.046,0,0,1,.224.925" transform="translate(-82.167 -48.334)" fill="#ff007c"/>
            <path id="Path_253-3" data-name="Path 253" d="M117.255,68.383,111.051,70l.911-8.9a1.05,1.05,0,0,0-.3-.839.812.812,0,0,0-.776-.235l-7.29,1.9a.815.815,0,0,0-.581.768L102,79.627a1.048,1.048,0,0,0,.315.811.809.809,0,0,0,.761.221l7.222-1.884.692,12.95a.986.986,0,0,0,.743.925.738.738,0,0,0,.334-.008.787.787,0,0,0,.553-.588L118.3,69.6a1.045,1.045,0,0,0-.224-.925.824.824,0,0,0-.825-.287" transform="translate(-82.167 -48.333)" fill="#1f343e"/>
          </g>
        </g>
        <g id="Group_16666" data-name="Group 16666" transform="translate(323.326 5080.049)">
          <g id="Group_9378-4" data-name="Group 9378" transform="translate(-0.366 -0.048)">
            <path id="Path_244-4" data-name="Path 244" d="M74.4,11.52a11.07,11.07,0,0,0-1.32.079,11.59,11.59,0,0,0-3.16.852c-7.1,3.014-12.32,13-12.32,24.828s5.224,21.815,12.32,24.828a11.589,11.589,0,0,0,3.16.852,11.066,11.066,0,0,0,1.32.079c9.263,0,16.8-11.556,16.8-25.76S83.663,11.52,74.4,11.52" transform="translate(-46.4 -9.28)" fill="#f8cc5d"/>
            <path id="Path_245-4" data-name="Path 245" d="M19.574,92.16H12.929a37.41,37.41,0,0,0-1.323,8.96h6.722a39.757,39.757,0,0,1,1.247-8.96" transform="translate(-9.349 -74.24)" fill="#f8cc5d"/>
            <path id="Path_246-4" data-name="Path 246" d="M31.794,46.08H25.507A27.322,27.322,0,0,0,22.06,52.8h6.6a30.833,30.833,0,0,1,3.135-6.72" transform="translate(-17.771 -37.12)" fill="#f8cc5d"/>
            <path id="Path_247-4" data-name="Path 247" d="M18.328,149.76H11.607a37.41,37.41,0,0,0,1.323,8.96h6.645a39.767,39.767,0,0,1-1.247-8.96" transform="translate(-9.35 -120.64)" fill="#f8cc5d"/>
            <path id="Path_248-4" data-name="Path 248" d="M60.063,11.6a11.11,11.11,0,0,0-1.32-.079A13.118,13.118,0,0,0,49.286,16H55.3a19.629,19.629,0,0,1,4.762-4.4" transform="translate(-39.703 -9.28)" fill="#f8cc5d"/>
            <path id="Path_249-4" data-name="Path 249" d="M28.657,207.36h-6.6a27.329,27.329,0,0,0,3.447,6.72h6.287a30.85,30.85,0,0,1-3.135-6.72" transform="translate(-17.77 -167.04)" fill="#f8cc5d"/>
            <path id="Path_250-4" data-name="Path 250" d="M55.3,253.44H49.286a13.118,13.118,0,0,0,9.457,4.48,11.061,11.061,0,0,0,1.32-.079,19.628,19.628,0,0,1-4.762-4.4" transform="translate(-39.703 -204.16)" fill="#f8cc5d"/>
            <path id="Path_251-4" data-name="Path 251" d="M28,0H19.04c-5.173,0-10,2.973-13.6,8.372C1.931,13.63,0,20.6,0,28S1.931,42.369,5.437,47.628c3.6,5.4,8.43,8.372,13.6,8.372H28c5.173,0,10-2.973,13.6-8.372C45.109,42.369,47.04,35.4,47.04,28S45.109,13.63,41.6,8.372C38,2.973,33.173,0,28,0M19.04,2.24a11.07,11.07,0,0,1,1.32.079A19.626,19.626,0,0,0,15.6,6.72H9.583A13.118,13.118,0,0,1,19.04,2.24M7.736,8.96h6.287a30.842,30.842,0,0,0-3.136,6.72h-6.6A27.328,27.328,0,0,1,7.736,8.96M3.58,17.92h6.645a39.768,39.768,0,0,0-1.247,8.96H2.257A37.39,37.39,0,0,1,3.58,17.92M2.257,29.12H8.978a39.768,39.768,0,0,0,1.247,8.96H3.58a37.39,37.39,0,0,1-1.323-8.96M7.736,47.04a27.328,27.328,0,0,1-3.446-6.72h6.6a30.842,30.842,0,0,0,3.136,6.72Zm11.3,6.72a13.118,13.118,0,0,1-9.457-4.48H15.6a19.625,19.625,0,0,0,4.762,4.4,11.07,11.07,0,0,1-1.32.079m8.96,0a11.07,11.07,0,0,1-1.32-.079,11.59,11.59,0,0,1-3.16-.852c-7.1-3.014-12.32-13-12.32-24.828S16.424,6.185,23.52,3.172a11.59,11.59,0,0,1,3.16-.852A11.07,11.07,0,0,1,28,2.24C37.263,2.24,44.8,13.8,44.8,28S37.263,53.76,28,53.76" transform="translate(0 0)" fill="#1f343e"/>
            <path id="Path_252-4" data-name="Path 252" d="M118.3,69.6l-5.682,22.46a.787.787,0,0,1-.554.588.738.738,0,0,1-.334.008.986.986,0,0,1-.743-.925l-.692-12.95-7.222,1.883a.808.808,0,0,1-.761-.221,1.049,1.049,0,0,1-.315-.811l1.016-16.935a.815.815,0,0,1,.581-.768l7.29-1.9a.812.812,0,0,1,.776.235,1.049,1.049,0,0,1,.3.838l-.911,8.9,6.2-1.618a.824.824,0,0,1,.825.287,1.046,1.046,0,0,1,.224.925" transform="translate(-82.167 -48.334)" fill="#ff007c"/>
            <path id="Path_253-4" data-name="Path 253" d="M117.255,68.383,111.051,70l.911-8.9a1.05,1.05,0,0,0-.3-.839.812.812,0,0,0-.776-.235l-7.29,1.9a.815.815,0,0,0-.581.768L102,79.627a1.048,1.048,0,0,0,.315.811.809.809,0,0,0,.761.221l7.222-1.884.692,12.95a.986.986,0,0,0,.743.925.738.738,0,0,0,.334-.008.787.787,0,0,0,.553-.588L118.3,69.6a1.045,1.045,0,0,0-.224-.925.824.824,0,0,0-.825-.287" transform="translate(-82.167 -48.333)" fill="#1f343e"/>
          </g>
        </g>
        <g id="Group_16667" data-name="Group 16667" transform="matrix(0.966, 0.259, -0.259, 0.966, 358.834, 5029.875)">
          <g id="Group_9378-5" data-name="Group 9378" transform="translate(-0.366 -0.048)">
            <path id="Path_244-5" data-name="Path 244" d="M74.4,11.52a11.07,11.07,0,0,0-1.32.079,11.59,11.59,0,0,0-3.16.852c-7.1,3.014-12.32,13-12.32,24.828s5.224,21.815,12.32,24.828a11.589,11.589,0,0,0,3.16.852,11.066,11.066,0,0,0,1.32.079c9.263,0,16.8-11.556,16.8-25.76S83.663,11.52,74.4,11.52" transform="translate(-46.4 -9.28)" fill="#f8cc5d"/>
            <path id="Path_245-5" data-name="Path 245" d="M19.574,92.16H12.929a37.41,37.41,0,0,0-1.323,8.96h6.722a39.757,39.757,0,0,1,1.247-8.96" transform="translate(-9.349 -74.24)" fill="#f8cc5d"/>
            <path id="Path_246-5" data-name="Path 246" d="M31.794,46.08H25.507A27.322,27.322,0,0,0,22.06,52.8h6.6a30.833,30.833,0,0,1,3.135-6.72" transform="translate(-17.771 -37.12)" fill="#f8cc5d"/>
            <path id="Path_247-5" data-name="Path 247" d="M18.328,149.76H11.607a37.41,37.41,0,0,0,1.323,8.96h6.645a39.767,39.767,0,0,1-1.247-8.96" transform="translate(-9.35 -120.64)" fill="#f8cc5d"/>
            <path id="Path_248-5" data-name="Path 248" d="M60.063,11.6a11.11,11.11,0,0,0-1.32-.079A13.118,13.118,0,0,0,49.286,16H55.3a19.629,19.629,0,0,1,4.762-4.4" transform="translate(-39.703 -9.28)" fill="#f8cc5d"/>
            <path id="Path_249-5" data-name="Path 249" d="M28.657,207.36h-6.6a27.329,27.329,0,0,0,3.447,6.72h6.287a30.85,30.85,0,0,1-3.135-6.72" transform="translate(-17.77 -167.04)" fill="#f8cc5d"/>
            <path id="Path_250-5" data-name="Path 250" d="M55.3,253.44H49.286a13.118,13.118,0,0,0,9.457,4.48,11.061,11.061,0,0,0,1.32-.079,19.628,19.628,0,0,1-4.762-4.4" transform="translate(-39.703 -204.16)" fill="#f8cc5d"/>
            <path id="Path_251-5" data-name="Path 251" d="M28,0H19.04c-5.173,0-10,2.973-13.6,8.372C1.931,13.63,0,20.6,0,28S1.931,42.369,5.437,47.628c3.6,5.4,8.43,8.372,13.6,8.372H28c5.173,0,10-2.973,13.6-8.372C45.109,42.369,47.04,35.4,47.04,28S45.109,13.63,41.6,8.372C38,2.973,33.173,0,28,0M19.04,2.24a11.07,11.07,0,0,1,1.32.079A19.626,19.626,0,0,0,15.6,6.72H9.583A13.118,13.118,0,0,1,19.04,2.24M7.736,8.96h6.287a30.842,30.842,0,0,0-3.136,6.72h-6.6A27.328,27.328,0,0,1,7.736,8.96M3.58,17.92h6.645a39.768,39.768,0,0,0-1.247,8.96H2.257A37.39,37.39,0,0,1,3.58,17.92M2.257,29.12H8.978a39.768,39.768,0,0,0,1.247,8.96H3.58a37.39,37.39,0,0,1-1.323-8.96M7.736,47.04a27.328,27.328,0,0,1-3.446-6.72h6.6a30.842,30.842,0,0,0,3.136,6.72Zm11.3,6.72a13.118,13.118,0,0,1-9.457-4.48H15.6a19.625,19.625,0,0,0,4.762,4.4,11.07,11.07,0,0,1-1.32.079m8.96,0a11.07,11.07,0,0,1-1.32-.079,11.59,11.59,0,0,1-3.16-.852c-7.1-3.014-12.32-13-12.32-24.828S16.424,6.185,23.52,3.172a11.59,11.59,0,0,1,3.16-.852A11.07,11.07,0,0,1,28,2.24C37.263,2.24,44.8,13.8,44.8,28S37.263,53.76,28,53.76" transform="translate(0 0)" fill="#1f343e"/>
            <path id="Path_252-5" data-name="Path 252" d="M118.3,69.6l-5.682,22.46a.787.787,0,0,1-.554.588.738.738,0,0,1-.334.008.986.986,0,0,1-.743-.925l-.692-12.95-7.222,1.883a.808.808,0,0,1-.761-.221,1.049,1.049,0,0,1-.315-.811l1.016-16.935a.815.815,0,0,1,.581-.768l7.29-1.9a.812.812,0,0,1,.776.235,1.049,1.049,0,0,1,.3.838l-.911,8.9,6.2-1.618a.824.824,0,0,1,.825.287,1.046,1.046,0,0,1,.224.925" transform="translate(-82.167 -48.334)" fill="#ff007c"/>
            <path id="Path_253-5" data-name="Path 253" d="M117.255,68.383,111.051,70l.911-8.9a1.05,1.05,0,0,0-.3-.839.812.812,0,0,0-.776-.235l-7.29,1.9a.815.815,0,0,0-.581.768L102,79.627a1.048,1.048,0,0,0,.315.811.809.809,0,0,0,.761.221l7.222-1.884.692,12.95a.986.986,0,0,0,.743.925.738.738,0,0,0,.334-.008.787.787,0,0,0,.553-.588L118.3,69.6a1.045,1.045,0,0,0-.224-.925.824.824,0,0,0-.825-.287" transform="translate(-82.167 -48.333)" fill="#1f343e"/>
          </g>
        </g>
      </g>
    </g>
    <path id="Path_28496" data-name="Path 28496" d="M288.509,125.1c.034,2.6-2.9,4.748-6.555,4.8l-86.789,1.186c-3.654.049-6.649-2.016-6.684-4.617l-.333-24.327c-.034-2.6,2.9-4.747,6.555-4.8l5.288-.042,2.41,1.963,1.948-2.025,9.943-.135,1.667,1.732,2.694-1.792,9.936-.136L231,98.549l1.949-1.7,9.943-.135,2.259,1.245,2.1-1.306,9.943-.136,2.172,1.411,2.188-1.469,9.939-.136,2.052,1.278,2.308-1.34,5.64-.106c3.657-.05,6.649,2.018,6.684,4.618Z" transform="translate(107.661 4810.441)" fill="#ed6f82" fill-rule="evenodd"/>
    <g id="Group_16620" data-name="Group 16620" transform="translate(297.266 4957.227)">
      <g id="Group_16618" data-name="Group 16618" transform="translate(74.732 14.714)">
        <path id="Path_28497" data-name="Path 28497" d="M338.181,232.24a12.325,12.325,0,0,1-.921-3.8c-.8-6.158-.465-18.042-9.416-17.812-6.656.167-6.628,10.931-6.757,15.451-.061,2.149.159,5.76-.713,7.784-.829,1.923-3.881,1.837-5.557.67-1.833-1.276-1.671-5.2-1.6-7.092.23-6.125,1.034-12.01,3.681-17.638,2.579-5.484,9.768-7.409,15.157-5.941,5.989,1.635,9.484,7.009,10.907,12.821.584,2.387,4.055,16.871-.875,17.393C339.958,234.3,338.835,233.542,338.181,232.24Z" transform="translate(-313.177 -203.39)" fill="#1f343e"/>
      </g>
      <g id="Group_16619" data-name="Group 16619" transform="translate(0 18.205)">
        <path id="Path_28498" data-name="Path 28498" d="M215.538,237.967a12.313,12.313,0,0,1-.915-3.8c-.8-6.157-.465-18.042-9.416-17.814-6.659.173-6.631,10.935-6.754,15.453-.062,2.15.153,5.758-.719,7.782-.829,1.926-3.88,1.842-5.557.673-1.83-1.275-1.668-5.2-1.6-7.094.227-6.126,1.031-12.008,3.681-17.638,2.579-5.481,9.765-7.406,15.157-5.937,5.988,1.628,9.483,7.005,10.9,12.821.581,2.386,4.058,16.87-.872,17.392C217.321,240.029,216.2,239.268,215.538,237.967Z" transform="translate(-190.539 -209.118)" fill="#1f343e"/>
      </g>
      <path id="Path_28499" data-name="Path 28499" d="M270.554,272.937c-.162,0-.327-.007-.492-.013-5.279-.288-9.1-4.072-10.769-10.654a2.392,2.392,0,0,1,.275-1.92,2.013,2.013,0,0,1,1.7-.914,2.079,2.079,0,0,1,1.968,1.7c.667,2.647,2.445,7.095,6.821,7.127h.153c3.767-.06,7.9-2.36,8.07-7.269a2.085,2.085,0,0,1,2.032-2.19,1.982,1.982,0,0,1,1.506.72,2.43,2.43,0,0,1,.52,1.658,12.021,12.021,0,0,1-11.783,11.758Z" transform="translate(-217.363 -210.321)" fill="#1f343e" fill-rule="evenodd"/>
      <path id="Path_28500" data-name="Path 28500" d="M227.431,274.514c.055,3.291-3.819,6.025-8.648,6.1s-8.785-2.527-8.841-5.819,3.819-6.026,8.648-6.1S227.376,271.223,227.431,274.514Z" transform="translate(-198.118 -214.185)" fill="#ed6f82" fill-rule="evenodd"/>
      <path id="Path_28501" data-name="Path 28501" d="M334.734,271.112c.055,3.291-3.816,6.023-8.645,6.1s-8.786-2.525-8.841-5.818,3.816-6.026,8.645-6.1S334.682,267.82,334.734,271.112Z" transform="translate(-240.035 -212.856)" fill="#ed6f82" fill-rule="evenodd"/>
      <path id="Path_28502" data-name="Path 28502" d="M215.261,185.637a15.566,15.566,0,0,0-16.032,1.009c-2.454,1.676.333,5.34,2.779,3.671,3.577-2.442,7.635-2.312,11.433-.45C216.112,191.176,217.914,186.937,215.261,185.637Z" transform="translate(-193.562 -181.058)" fill="#1f343e" fill-rule="evenodd"/>
      <path id="Path_28503" data-name="Path 28503" d="M340.053,180.992A15.559,15.559,0,0,0,324.021,182c-2.454,1.675.333,5.338,2.776,3.67,3.581-2.444,7.638-2.313,11.436-.45C340.9,186.531,342.706,182.293,340.053,180.992Z" transform="translate(-242.309 -179.244)" fill="#1f343e" fill-rule="evenodd"/>
    </g>
    <rect id="Rectangle_5554" data-name="Rectangle 5554" width="4.359" height="33.745" transform="matrix(1, -0.013, 0.013, 1, 307.653, 4907.74)" fill="rgba(255,255,255,0.5)"/>
    <rect id="Rectangle_5555" data-name="Rectangle 5555" width="4.363" height="33.744" transform="translate(321.952 4907.543) rotate(-0.774)" fill="rgba(255,255,255,0.5)"/>
    <rect id="Rectangle_5556" data-name="Rectangle 5556" width="4.361" height="33.745" transform="translate(336.248 4907.346) rotate(-0.785)" fill="rgba(255,255,255,0.5)"/>
    <rect id="Rectangle_5557" data-name="Rectangle 5557" width="4.359" height="33.745" transform="matrix(1, -0.013, 0.013, 1, 350.552, 4907.156)" fill="rgba(255,255,255,0.5)"/>
    <rect id="Rectangle_5558" data-name="Rectangle 5558" width="4.359" height="33.744" transform="translate(364.85 4906.952) rotate(-0.796)" fill="rgba(255,255,255,0.5)"/>
    <rect id="Rectangle_5559" data-name="Rectangle 5559" width="4.361" height="33.745" transform="translate(379.153 4906.75) rotate(-0.785)" fill="rgba(255,255,255,0.5)"/>
    <path id="Path_28504" data-name="Path 28504" d="M164.843,170.147c-6.537,1.3-12.142,4.666-15.683,10.392-3.467,5.607-4.177,12.645-4.107,19.09.037,2.994,4.676,2.916,4.642-.075-.064-5.409.469-10.961,2.993-15.831,2.739-5.266,7.813-8,13.462-9.122C169.084,174.019,167.763,169.567,164.843,170.147Z" transform="translate(124.496 4781.557)" fill="rgba(255,255,255,0.5)" fill-rule="evenodd"/>
    <path id="Path_28505" data-name="Path 28505" d="M192.3,166.227c-2.993.049-2.916,4.69.074,4.64S195.3,166.177,192.3,166.227Z" transform="translate(106.9 4783.068)" fill="rgba(255,255,255,0.5)" fill-rule="evenodd"/>
    <path id="Path_28506" data-name="Path 28506" d="M146.117,229.946c-2.993.051-2.92,4.691.074,4.642S149.106,229.9,146.117,229.946Z" transform="translate(124.942 4758.178)" fill="rgba(255,255,255,0.5)" fill-rule="evenodd"/>
    <path id="Path_28507" data-name="Path 28507" d="M398.553,227.674c-.218-3.224-5.245-3.159-5.028.083.875,12.942,1.1,25.915,1.3,38.883.055,3.244,5.083,3.162,5.031-.082C399.645,253.591,399.428,240.617,398.553,227.674Z" transform="translate(27.438 4759.996)" fill="rgba(255,255,255,0.5)" fill-rule="evenodd"/>
    <path id="Path_28508" data-name="Path 28508" d="M398.626,307.107c-3.241.054-3.161,5.082.083,5.029S401.869,307.054,398.626,307.107Z" transform="translate(26.376 4728.036)" fill="rgba(255,255,255,0.5)" fill-rule="evenodd"/>
    <path id="Path_28527" data-name="Path 28527" d="M275.838,204.894c-3.9,0-3.9,6.044,0,6.044S279.736,204.894,275.838,204.894Z" transform="translate(74.549 4767.963)" fill="rgba(255,255,255,0.5)"/>
    <path id="Path_28528" data-name="Path 28528" d="M158.9,253.839c-3.9,0-3.9,6.046,0,6.046S162.8,253.839,158.9,253.839Z" transform="translate(120.228 4748.844)" fill="rgba(255,255,255,0.5)"/>
    <path id="Path_28529" data-name="Path 28529" d="M394.362,356.785c-3.9,0-3.9,6.045,0,6.045S398.26,356.785,394.362,356.785Z" transform="translate(28.25 4708.631)" fill="rgba(255,255,255,0.5)"/>
    <g id="Group_16631" data-name="Group 16631" transform="translate(279.127 5143.555)">
      <path id="Path_28532" data-name="Path 28532" d="M176.683,487.094c-2.39-.467-3.149,3.755-.716,4.232,15.833,3.051,31.923,3.683,47.962,3.547,2.473-.03,2.491-4.321.064-4.292C208.173,490.714,192.3,490.105,176.683,487.094Z" transform="translate(-166.125 -485.812)" fill="rgba(255,255,255,0.5)"/>
      <path id="Path_28533" data-name="Path 28533" d="M267.523,494.71a1.91,1.91,0,1,0,3.8-.174A1.91,1.91,0,1,0,267.523,494.71Z" transform="translate(-202.472 -487.958)" fill="rgba(255,255,255,0.5)"/>
      <path id="Path_28534" data-name="Path 28534" d="M160.829,486.664a1.916,1.916,0,1,0,3.721.854A1.916,1.916,0,1,0,160.829,486.664Z" transform="translate(-160.773 -485.013)" fill="rgba(255,255,255,0.5)"/>
    </g>
    <g id="Group_16677" data-name="Group 16677" transform="matrix(0.966, -0.259, 0.259, 0.966, -1318.681, 274.75)">
      <g id="Group_16676" data-name="Group 16676" transform="translate(400.326 4848.049)">
        <g id="Group_9378-6" data-name="Group 9378" transform="translate(-0.366 -0.048)">
          <g id="Union_37" data-name="Union 37" transform="translate(-2742.04 10183)" fill="#fff" stroke-linecap="round" stroke-linejoin="round" stroke-miterlimit="10">
            <path d="M 2766.039306640625 -10133.0009765625 L 2758.35986328125 -10133.0009765625 C 2753.2373046875 -10133.0009765625 2748.505126953125 -10135.8642578125 2745.034912109375 -10141.064453125 C 2741.8134765625 -10145.9013671875 2740.039794921875 -10152.2705078125 2740.039794921875 -10159.0009765625 C 2740.039794921875 -10165.7294921875 2741.8134765625 -10172.09765625 2745.033935546875 -10176.9326171875 C 2748.50439453125 -10182.1357421875 2753.23681640625 -10185 2758.35986328125 -10185 L 2766.039306640625 -10185 C 2771.162353515625 -10185 2775.89453125 -10182.1357421875 2779.3642578125 -10176.9345703125 C 2782.585693359375 -10172.0986328125 2784.359375 -10165.7294921875 2784.359375 -10159.0009765625 C 2784.359375 -10152.2705078125 2782.585693359375 -10145.900390625 2779.364990234375 -10141.06640625 C 2775.893798828125 -10135.8642578125 2771.16162109375 -10133.0009765625 2766.039306640625 -10133.0009765625 Z M 2749.733642578125 -10144.6806640625 L 2750.70751953125 -10144.6806640625 C 2750.443115234375 -10145.25390625 2750.19482421875 -10145.841796875 2749.964111328125 -10146.44140625 L 2748.73779296875 -10146.44140625 C 2749.047607421875 -10145.8251953125 2749.3798828125 -10145.2373046875 2749.733642578125 -10144.6806640625 Z M 2746.670654296875 -10152.3603515625 L 2748.316162109375 -10152.3603515625 C 2748.095703125 -10153.56640625 2747.93603515625 -10154.7958984375 2747.837890625 -10156.0400390625 L 2746.097900390625 -10156.0400390625 C 2746.21484375 -10154.78515625 2746.40625 -10153.5556640625 2746.670654296875 -10152.3603515625 Z M 2746.09765625 -10161.958984375 L 2747.837646484375 -10161.958984375 C 2747.935791015625 -10163.2041015625 2748.095458984375 -10164.4326171875 2748.31591796875 -10165.638671875 L 2746.670166015625 -10165.638671875 C 2746.406005859375 -10164.4443359375 2746.214599609375 -10163.21484375 2746.09765625 -10161.958984375 Z M 2748.738525390625 -10171.560546875 L 2749.964599609375 -10171.560546875 C 2750.195556640625 -10172.1611328125 2750.443603515625 -10172.748046875 2750.7080078125 -10173.3212890625 L 2749.734375 -10173.3212890625 C 2749.38037109375 -10172.763671875 2749.0478515625 -10172.17578125 2748.738525390625 -10171.560546875 Z" stroke="none"/>
            <path d="M 2766.039306640625 -10135.0009765625 C 2770.473388671875 -10135.0009765625 2774.61328125 -10137.548828125 2777.700439453125 -10142.1748046875 C 2780.703369140625 -10146.6826171875 2782.359375 -10152.658203125 2782.359375 -10159.0009765625 C 2782.359375 -10165.3408203125 2780.703369140625 -10171.31640625 2777.700439453125 -10175.82421875 C 2774.61328125 -10180.4521484375 2770.473388671875 -10183 2766.039306640625 -10183 L 2758.35986328125 -10183 C 2753.92578125 -10183 2749.78564453125 -10180.4521484375 2746.698486328125 -10175.82421875 C 2743.69580078125 -10171.31640625 2742.039794921875 -10165.3408203125 2742.039794921875 -10159.0009765625 C 2742.039794921875 -10152.658203125 2743.69580078125 -10146.6826171875 2746.698486328125 -10142.1748046875 C 2749.78564453125 -10137.548828125 2753.92578125 -10135.0009765625 2758.35986328125 -10135.0009765625 L 2766.039306640625 -10135.0009765625 M 2764.820068359375 -10137 C 2764.84912109375 -10136.99609375 2764.878173828125 -10136.9931640625 2764.9072265625 -10136.9892578125 C 2765.2802734375 -10136.943359375 2765.658447265625 -10136.9208984375 2766.039306640625 -10136.9208984375 C 2773.9794921875 -10136.9208984375 2780.440185546875 -10146.826171875 2780.440185546875 -10159.0009765625 C 2780.440185546875 -10146.826171875 2773.9794921875 -10136.9208984375 2766.039306640625 -10136.9208984375 C 2765.658447265625 -10136.9208984375 2765.2802734375 -10136.943359375 2764.9072265625 -10136.9892578125 C 2764.878173828125 -10136.9931640625 2764.84912109375 -10136.99609375 2764.820068359375 -10137 M 2750.25341796875 -10140.76171875 L 2755.407958984375 -10140.76171875 C 2756.6474609375 -10139.197265625 2758.019775390625 -10137.9296875 2759.491943359375 -10136.9892578125 C 2759.11865234375 -10136.943359375 2758.740478515625 -10136.9208984375 2758.35986328125 -10136.9208984375 C 2755.35693359375 -10136.9208984375 2752.563720703125 -10138.3388671875 2750.25341796875 -10140.76171875 M 2745.71728515625 -10148.44140625 L 2751.372802734375 -10148.44140625 C 2752.062744140625 -10146.35546875 2752.96484375 -10144.4189453125 2754.05859375 -10142.6806640625 L 2748.67138671875 -10142.6806640625 C 2747.49072265625 -10144.3291015625 2746.489013671875 -10146.2763671875 2745.71728515625 -10148.44140625 M 2743.974365234375 -10158.0400390625 L 2749.734619140625 -10158.0400390625 C 2749.80615234375 -10155.376953125 2750.171630859375 -10152.791015625 2750.805419921875 -10150.3603515625 L 2745.10888671875 -10150.3603515625 C 2744.447021484375 -10152.7373046875 2744.051025390625 -10155.326171875 2743.974365234375 -10158.0400390625 M 2751.638427734375 -10159.0009765625 C 2751.638427734375 -10157.8916015625 2751.692138671875 -10156.8017578125 2751.79541015625 -10155.736328125 C 2751.692138671875 -10156.8017578125 2751.638427734375 -10157.8916015625 2751.638427734375 -10159.0009765625 M 2745.10888671875 -10167.638671875 L 2750.805419921875 -10167.638671875 C 2750.171630859375 -10165.2109375 2749.80615234375 -10162.625 2749.734619140625 -10159.958984375 L 2743.974365234375 -10159.958984375 C 2744.051025390625 -10162.67578125 2744.447021484375 -10165.2646484375 2745.10888671875 -10167.638671875 M 2748.67138671875 -10175.3212890625 L 2754.05859375 -10175.3212890625 C 2752.96484375 -10173.5830078125 2752.062744140625 -10171.6435546875 2751.372802734375 -10169.560546875 L 2745.71728515625 -10169.560546875 C 2746.489013671875 -10171.7255859375 2747.49072265625 -10173.669921875 2748.67138671875 -10175.3212890625 M 2758.35986328125 -10181.0810546875 C 2758.740478515625 -10181.0810546875 2759.11865234375 -10181.0556640625 2759.491943359375 -10181.0126953125 C 2758.019775390625 -10180.0693359375 2756.6474609375 -10178.8037109375 2755.407958984375 -10177.240234375 L 2750.25341796875 -10177.240234375 C 2752.563720703125 -10179.6630859375 2755.35693359375 -10181.0810546875 2758.35986328125 -10181.0810546875 M 2766.039306640625 -10131.0009765625 L 2758.35986328125 -10131.0009765625 C 2755.40234375 -10131.0009765625 2752.5654296875 -10131.8232421875 2749.927978515625 -10133.4462890625 C 2747.43603515625 -10134.9794921875 2745.230224609375 -10137.1689453125 2743.371337890625 -10139.9541015625 C 2739.9326171875 -10145.1171875 2738.039794921875 -10151.8798828125 2738.039794921875 -10159.0009765625 C 2738.039794921875 -10166.1201171875 2739.9326171875 -10172.8818359375 2743.369384765625 -10178.0419921875 C 2745.229736328125 -10180.830078125 2747.435546875 -10183.0205078125 2749.927734375 -10184.5546875 C 2752.56494140625 -10186.1767578125 2755.402099609375 -10187 2758.35986328125 -10187 L 2766.039306640625 -10187 C 2768.9970703125 -10187 2771.834228515625 -10186.1767578125 2774.471435546875 -10184.5546875 C 2776.96337890625 -10183.0205078125 2779.169189453125 -10180.830078125 2781.028076171875 -10178.0439453125 C 2784.466552734375 -10172.8828125 2786.359375 -10166.1201171875 2786.359375 -10159.0009765625 C 2786.359375 -10151.8798828125 2784.466552734375 -10145.1162109375 2781.029541015625 -10139.95703125 C 2779.168701171875 -10137.1689453125 2776.962890625 -10134.9794921875 2774.470947265625 -10133.4462890625 C 2771.833740234375 -10131.8232421875 2768.996826171875 -10131.0009765625 2766.039306640625 -10131.0009765625 Z" stroke="none" fill="#fff"/>
          </g>
          <path id="Path_245-6" data-name="Path 245" d="M18.436,92.16h-5.7a32.066,32.066,0,0,0-1.134,7.68h5.761a34.078,34.078,0,0,1,1.069-7.68" transform="translate(-9.672 -76.8)" fill="#f8cc5d"/>
          <path id="Path_246-6" data-name="Path 246" d="M30.4,46.08H25.014a23.419,23.419,0,0,0-2.954,5.76h5.656A26.429,26.429,0,0,1,30.4,46.08" transform="translate(-18.383 -38.4)" fill="#f8cc5d"/>
          <path id="Path_247-6" data-name="Path 247" d="M17.368,149.76H11.607a32.065,32.065,0,0,0,1.134,7.68h5.7a34.086,34.086,0,0,1-1.069-7.68" transform="translate(-9.673 -124.8)" fill="#f8cc5d"/>
          <path id="Path_248-6" data-name="Path 248" d="M58.523,11.588a9.523,9.523,0,0,0-1.132-.068,11.244,11.244,0,0,0-8.106,3.84h5.155a16.825,16.825,0,0,1,4.082-3.772" transform="translate(-41.072 -9.6)" fill="#f8cc5d"/>
          <path id="Path_249-6" data-name="Path 249" d="M27.715,207.36H22.059a23.424,23.424,0,0,0,2.954,5.76H30.4a26.443,26.443,0,0,1-2.687-5.76" transform="translate(-18.383 -172.8)" fill="#f8cc5d"/>
          <path id="Path_250-6" data-name="Path 250" d="M54.441,253.44H49.286a11.244,11.244,0,0,0,8.106,3.84,9.48,9.48,0,0,0,1.132-.068,16.823,16.823,0,0,1-4.082-3.772" transform="translate(-41.072 -211.2)" fill="#f8cc5d"/>
        </g>
      </g>
      <g id="Group_16668" data-name="Group 16668" transform="translate(400.366 4848.049)">
        <g id="Group_9378-7" data-name="Group 9378" transform="translate(-0.366 -0.048)">
          <path id="Path_244-6" data-name="Path 244" d="M72,11.52a9.488,9.488,0,0,0-1.132.068,9.934,9.934,0,0,0-2.708.73C62.078,14.9,57.6,23.463,57.6,33.6s4.478,18.7,10.56,21.281a9.934,9.934,0,0,0,2.708.73A9.485,9.485,0,0,0,72,55.68c7.94,0,14.4-9.9,14.4-22.08S79.94,11.52,72,11.52" transform="translate(-48 -9.6)" fill="#f8cc5d"/>
          <path id="Path_245-7" data-name="Path 245" d="M18.436,92.16h-5.7a32.066,32.066,0,0,0-1.134,7.68h5.761a34.078,34.078,0,0,1,1.069-7.68" transform="translate(-9.672 -76.8)" fill="#f8cc5d"/>
          <path id="Path_246-7" data-name="Path 246" d="M30.4,46.08H25.014a23.419,23.419,0,0,0-2.954,5.76h5.656A26.429,26.429,0,0,1,30.4,46.08" transform="translate(-18.383 -38.4)" fill="#f8cc5d"/>
          <path id="Path_247-7" data-name="Path 247" d="M17.368,149.76H11.607a32.065,32.065,0,0,0,1.134,7.68h5.7a34.086,34.086,0,0,1-1.069-7.68" transform="translate(-9.673 -124.8)" fill="#f8cc5d"/>
          <path id="Path_248-7" data-name="Path 248" d="M58.523,11.588a9.523,9.523,0,0,0-1.132-.068,11.244,11.244,0,0,0-8.106,3.84h5.155a16.825,16.825,0,0,1,4.082-3.772" transform="translate(-41.072 -9.6)" fill="#f8cc5d"/>
          <path id="Path_249-7" data-name="Path 249" d="M27.715,207.36H22.059a23.424,23.424,0,0,0,2.954,5.76H30.4a26.443,26.443,0,0,1-2.687-5.76" transform="translate(-18.383 -172.8)" fill="#f8cc5d"/>
          <path id="Path_250-7" data-name="Path 250" d="M54.441,253.44H49.286a11.244,11.244,0,0,0,8.106,3.84,9.48,9.48,0,0,0,1.132-.068,16.823,16.823,0,0,1-4.082-3.772" transform="translate(-41.072 -211.2)" fill="#f8cc5d"/>
          <path id="Path_251-6" data-name="Path 251" d="M24,0H16.32C11.886,0,7.745,2.548,4.66,7.176A30.592,30.592,0,0,0,0,24,30.592,30.592,0,0,0,4.66,40.824C7.745,45.451,11.886,48,16.32,48H24c4.434,0,8.575-2.548,11.66-7.176A30.592,30.592,0,0,0,40.32,24,30.592,30.592,0,0,0,35.66,7.176C32.575,2.548,28.434,0,24,0M16.32,1.92a9.489,9.489,0,0,1,1.132.068A16.822,16.822,0,0,0,13.369,5.76H8.214A11.244,11.244,0,0,1,16.32,1.92M6.631,7.68H12.02a26.436,26.436,0,0,0-2.688,5.76H3.677A23.424,23.424,0,0,1,6.631,7.68M3.069,15.36h5.7A34.087,34.087,0,0,0,7.7,23.04H1.934a32.049,32.049,0,0,1,1.134-7.68m-1.134,9.6H7.7a34.087,34.087,0,0,0,1.069,7.68h-5.7a32.049,32.049,0,0,1-1.134-7.68m4.7,15.36a23.424,23.424,0,0,1-2.954-5.76H9.332a26.436,26.436,0,0,0,2.688,5.76Zm9.689,5.76a11.244,11.244,0,0,1-8.106-3.84h5.155a16.822,16.822,0,0,0,4.082,3.772,9.489,9.489,0,0,1-1.132.068m7.68,0a9.489,9.489,0,0,1-1.132-.068,9.934,9.934,0,0,1-2.708-.73C14.078,42.7,9.6,34.136,9.6,24S14.078,5.3,20.16,2.718a9.934,9.934,0,0,1,2.708-.73A9.488,9.488,0,0,1,24,1.92c7.94,0,14.4,9.9,14.4,22.08S31.94,46.08,24,46.08" transform="translate(0 0)" fill="#1f343e"/>
          <path id="Path_252-6" data-name="Path 252" d="M115.975,68.225l-4.87,19.251a.674.674,0,0,1-.474.5.633.633,0,0,1-.286.007.845.845,0,0,1-.637-.793l-.593-11.1-6.19,1.614a.693.693,0,0,1-.653-.189.9.9,0,0,1-.27-.7l.871-14.516a.7.7,0,0,1,.5-.658l6.248-1.63a.7.7,0,0,1,.665.2.9.9,0,0,1,.254.719l-.781,7.632,5.318-1.387a.706.706,0,0,1,.707.246.9.9,0,0,1,.192.793" transform="translate(-85.001 -50)" fill="#ff007c"/>
          <path id="Path_253-6" data-name="Path 253" d="M115.076,67.185l-5.318,1.387.781-7.632a.9.9,0,0,0-.254-.719.7.7,0,0,0-.665-.2l-6.248,1.63a.7.7,0,0,0-.5.658L102,76.823a.9.9,0,0,0,.27.7.694.694,0,0,0,.653.189l6.19-1.614.593,11.1a.845.845,0,0,0,.637.792.633.633,0,0,0,.286-.007.675.675,0,0,0,.474-.5l4.87-19.251a.9.9,0,0,0-.192-.793.706.706,0,0,0-.707-.246" transform="translate(-85.001 -50)" fill="#1f343e"/>
        </g>
      </g>
    </g>
    <g id="Group_14836" data-name="Group 14836" transform="translate(-216 4945)">
      <g id="Icon_ionic-md-star" data-name="Icon ionic-md-star" transform="translate(572.203 162.5)" fill="#f8f4f9" stroke-linecap="round" stroke-linejoin="round">
        <path d="M 4.965225696563721 22.30652046203613 L 5.63523530960083 19.42486000061035 L 6.772749900817871 14.53246116638184 L 2.978085517883301 11.24287986755371 L 0.7437955141067505 9.30597972869873 L 3.689915418624878 9.052959442138672 L 8.69242000579834 8.623332977294922 L 10.64591503143311 4.01237964630127 L 11.7969856262207 1.295439600944519 L 12.94788551330566 4.012449741363525 L 14.90100383758545 8.623333930969238 L 19.90384483337402 9.052959442138672 L 22.8499755859375 9.30596923828125 L 20.61568641662598 11.24287986755371 L 16.82101821899414 14.53249454498291 L 17.95819473266602 19.42494010925293 L 18.62797546386719 22.30650901794434 L 16.09491539001465 20.77822875976562 L 11.7968635559082 18.18507194519043 L 7.498465538024902 20.77824974060059 L 4.965225696563721 22.30652046203613 Z" stroke="none"/>
        <path d="M 16.74065589904785 19.70793914794922 L 15.43288516998291 14.08155918121338 L 19.79689598083496 10.29837989807129 L 14.04373550415039 9.804319381713867 L 11.79688549041748 4.499999523162842 L 9.549635887145996 9.804319381713867 L 3.796875476837158 10.29837989807129 L 8.16092586517334 14.08155918121338 L 6.852755546569824 19.70793914794922 L 11.79688549041748 16.72519874572754 L 16.74065589904785 19.70793914794922 M 6.852948665618896 22.20794486999512 C 6.3357253074646 22.20796966552734 5.82009744644165 22.04776573181152 5.383525371551514 21.73064994812012 C 4.570605278015137 21.14016914367676 4.190165519714355 20.12040901184082 4.417705535888672 19.14177894592285 L 5.384565830230713 14.98335647583008 L 2.159305572509766 12.1873893737793 C 1.400245547294617 11.52936935424805 1.108785510063171 10.48091983795166 1.419325470924377 9.525559425354004 C 1.729865431785583 8.570199966430664 2.582075595855713 7.893509387969971 3.582955598831177 7.807549476623535 L 7.835206031799316 7.442356586456299 L 9.494955062866211 3.524749517440796 C 9.886565208435059 2.600409746170044 10.79182910919189 1.999939203262329 11.79696559906006 1.999999523162842 C 12.80083560943604 2.000029563903809 13.70732593536377 2.600539684295654 14.09888553619385 3.524899482727051 L 15.75827693939209 7.44235897064209 L 20.01079559326172 7.807549476623535 C 21.01167488098145 7.893499374389648 21.86389541625977 8.570189476013184 22.17444610595703 9.52554988861084 C 22.4849853515625 10.48090934753418 22.19352531433105 11.52935981750488 21.43447494506836 12.18737983703613 L 18.20915794372559 14.98342132568359 L 19.17574501037598 19.14193916320801 C 19.40320587158203 20.12056922912598 19.02271461486816 21.14029884338379 18.20978546142578 21.73072052001953 C 17.39685249328613 22.32114791870117 16.3094425201416 22.36754608154297 15.44917583465576 21.84852027893066 L 11.79683685302734 19.64494323730469 L 8.1441650390625 21.84856033325195 C 7.745888233184814 22.08883666992188 7.298810005187988 22.20792388916016 6.852948665618896 22.20794486999512 Z" stroke="none" fill="#fff"/>
      </g>
      <path id="Icon_ionic-md-star-2" data-name="Icon ionic-md-star" d="M11.8,16.725l4.944,2.983-1.308-5.626L19.8,10.3,14.044,9.8,11.8,4.5,9.55,9.8,3.8,10.3l4.364,3.783L6.853,19.708Z" transform="translate(572.203 162.5)" fill="#8cd943" stroke="#1f343e" stroke-linecap="round" stroke-linejoin="round" stroke-width="1"/>
    </g>
    <g id="Group_16683" data-name="Group 16683" transform="translate(-320 4745.792)">
      <g id="Icon_ionic-md-star-3" data-name="Icon ionic-md-star" transform="translate(572.203 162.5)" fill="#f8f4f9" stroke-linecap="round" stroke-linejoin="round">
        <path d="M 4.965225696563721 22.30652046203613 L 5.63523530960083 19.42486000061035 L 6.772749900817871 14.53246116638184 L 2.978085517883301 11.24287986755371 L 0.7437955141067505 9.30597972869873 L 3.689915418624878 9.052959442138672 L 8.69242000579834 8.623332977294922 L 10.64591503143311 4.01237964630127 L 11.7969856262207 1.295439600944519 L 12.94788551330566 4.012449741363525 L 14.90100383758545 8.623333930969238 L 19.90384483337402 9.052959442138672 L 22.8499755859375 9.30596923828125 L 20.61568641662598 11.24287986755371 L 16.82101821899414 14.53249454498291 L 17.95819473266602 19.42494010925293 L 18.62797546386719 22.30650901794434 L 16.09491539001465 20.77822875976562 L 11.7968635559082 18.18507194519043 L 7.498465538024902 20.77824974060059 L 4.965225696563721 22.30652046203613 Z" stroke="none"/>
        <path d="M 16.74065589904785 19.70793914794922 L 15.43288516998291 14.08155918121338 L 19.79689598083496 10.29837989807129 L 14.04373550415039 9.804319381713867 L 11.79688549041748 4.499999523162842 L 9.549635887145996 9.804319381713867 L 3.796875476837158 10.29837989807129 L 8.16092586517334 14.08155918121338 L 6.852755546569824 19.70793914794922 L 11.79688549041748 16.72519874572754 L 16.74065589904785 19.70793914794922 M 6.852948665618896 22.20794486999512 C 6.3357253074646 22.20796966552734 5.82009744644165 22.04776573181152 5.383525371551514 21.73064994812012 C 4.570605278015137 21.14016914367676 4.190165519714355 20.12040901184082 4.417705535888672 19.14177894592285 L 5.384565830230713 14.98335647583008 L 2.159305572509766 12.1873893737793 C 1.400245547294617 11.52936935424805 1.108785510063171 10.48091983795166 1.419325470924377 9.525559425354004 C 1.729865431785583 8.570199966430664 2.582075595855713 7.893509387969971 3.582955598831177 7.807549476623535 L 7.835206031799316 7.442356586456299 L 9.494955062866211 3.524749517440796 C 9.886565208435059 2.600409746170044 10.79182910919189 1.999939203262329 11.79696559906006 1.999999523162842 C 12.80083560943604 2.000029563903809 13.70732593536377 2.600539684295654 14.09888553619385 3.524899482727051 L 15.75827693939209 7.44235897064209 L 20.01079559326172 7.807549476623535 C 21.01167488098145 7.893499374389648 21.86389541625977 8.570189476013184 22.17444610595703 9.52554988861084 C 22.4849853515625 10.48090934753418 22.19352531433105 11.52935981750488 21.43447494506836 12.18737983703613 L 18.20915794372559 14.98342132568359 L 19.17574501037598 19.14193916320801 C 19.40320587158203 20.12056922912598 19.02271461486816 21.14029884338379 18.20978546142578 21.73072052001953 C 17.39685249328613 22.32114791870117 16.3094425201416 22.36754608154297 15.44917583465576 21.84852027893066 L 11.79683685302734 19.64494323730469 L 8.1441650390625 21.84856033325195 C 7.745888233184814 22.08883666992188 7.298810005187988 22.20792388916016 6.852948665618896 22.20794486999512 Z" stroke="none" fill="#fff"/>
      </g>
      <path id="Icon_ionic-md-star-4" data-name="Icon ionic-md-star" d="M11.8,16.725l4.944,2.983-1.308-5.626L19.8,10.3,14.044,9.8,11.8,4.5,9.55,9.8,3.8,10.3l4.364,3.783L6.853,19.708Z" transform="translate(572.203 162.5)" fill="#8cd943" stroke="#1f343e" stroke-linecap="round" stroke-linejoin="round" stroke-width="1"/>
    </g>
    <g id="Group_16678" data-name="Group 16678" transform="translate(-184 4857)">
      <g id="Icon_ionic-md-star-5" data-name="Icon ionic-md-star" transform="translate(572.203 162.5)" fill="#f8f4f9" stroke-linecap="round" stroke-linejoin="round">
        <path d="M 6.493170261383057 29.91048431396484 L 7.163180351257324 27.02882385253906 L 8.954774856567383 19.3232364654541 L 2.978090286254883 14.14207458496094 L 0.7438002824783325 12.20517444610596 L 3.68992018699646 11.9521541595459 L 11.5687952041626 11.27549839019775 L 14.64591979980469 4.012384414672852 L 15.79699039459229 1.295444369316101 L 16.94788932800293 4.012454509735107 L 20.02443885803223 11.27549934387207 L 27.90386009216309 11.9521541595459 L 30.84999084472656 12.20516395568848 L 28.61569976806641 14.14207458496094 L 22.63902282714844 19.32327079772949 L 24.43008041381836 27.02890396118164 L 25.09986114501953 29.91047477722168 L 22.56680107116699 28.38219451904297 L 15.79686832427979 24.29767608642578 L 9.026410102844238 28.3822135925293 L 6.493170261383057 29.91048431396484 Z" stroke="none"/>
        <path d="M 23.21253967285156 27.31190490722656 L 21.25089073181152 18.87233352661133 L 27.79690933227539 13.19757461547852 L 19.16716957092285 12.4564847946167 L 15.79689025878906 4.500004291534424 L 12.42601013183594 12.4564847946167 L 3.79688024520874 13.19757461547852 L 10.34294986724854 18.87233352661133 L 8.38070011138916 27.31190490722656 L 15.79689025878906 22.83780479431152 L 23.21253967285156 27.31190490722656 M 8.380892753601074 29.81190872192383 C 7.863670349121094 29.81193351745605 7.348042011260986 29.65173149108887 6.911470413208008 29.33461380004883 C 6.098550319671631 28.7441349029541 5.718110084533691 27.72437477111816 5.945650100708008 26.7457447052002 L 7.566591262817383 19.77413368225098 L 2.159310340881348 15.08658409118652 C 1.400250315666199 14.42856407165527 1.108790278434753 13.38011455535889 1.419330239295959 12.42475414276123 C 1.729870200157166 11.46939468383789 2.582080364227295 10.79270458221436 3.582960367202759 10.70674419403076 L 10.71158123016357 10.09452152252197 L 13.49495983123779 3.524754285812378 C 13.88656997680664 2.600414514541626 14.79170703887939 1.999939203262329 15.79697036743164 2.000004291534424 C 16.80084037780762 2.000034332275391 17.70733070373535 2.600544452667236 18.09888076782227 3.524904251098633 L 20.88170051574707 10.09452247619629 L 28.01081085205078 10.70674419403076 C 29.01169013977051 10.79269409179688 29.86392021179199 11.46938419342041 30.17445945739746 12.42474460601807 C 30.48500061035156 13.38010406494141 30.19354057312012 14.42855453491211 29.43449020385742 15.08657455444336 L 24.02716255187988 19.77419853210449 L 25.64763069152832 26.74590492248535 C 25.87508964538574 27.72453498840332 25.49460029602051 28.74426460266113 24.68167114257812 29.33468437194824 C 23.86873817443848 29.92511367797852 22.78133201599121 29.97151374816895 21.92106056213379 29.45248413085938 L 15.79684162139893 25.75754547119141 L 9.672110557556152 29.45252418518066 C 9.273833274841309 29.69280052185059 8.826754570007324 29.81188774108887 8.380892753601074 29.81190872192383 Z" stroke="none" fill="#fff"/>
      </g>
      <path id="Icon_ionic-md-star-6" data-name="Icon ionic-md-star" d="M15.8,22.838l7.416,4.474-1.962-8.44L27.8,13.2l-8.63-.741L15.8,4.5l-3.371,7.956L3.8,13.2l6.546,5.675-1.962,8.44Z" transform="translate(572.203 162.5)" fill="#8cd943" stroke="#1f343e" stroke-linecap="round" stroke-linejoin="round" stroke-width="1"/>
    </g>
    <g id="Group_16679" data-name="Group 16679" transform="translate(-304 4861.768)">
      <g id="Icon_ionic-md-star-7" data-name="Icon ionic-md-star" transform="translate(572.203 162.5)" fill="#f8f4f9" stroke-linecap="round" stroke-linejoin="round">
        <path d="M 6.493170261383057 29.91048431396484 L 7.163180351257324 27.02882385253906 L 8.954774856567383 19.3232364654541 L 2.978090286254883 14.14207458496094 L 0.7438002824783325 12.20517444610596 L 3.68992018699646 11.9521541595459 L 11.5687952041626 11.27549839019775 L 14.64591979980469 4.012384414672852 L 15.79699039459229 1.295444369316101 L 16.94788932800293 4.012454509735107 L 20.02443885803223 11.27549934387207 L 27.90386009216309 11.9521541595459 L 30.84999084472656 12.20516395568848 L 28.61569976806641 14.14207458496094 L 22.63902282714844 19.32327079772949 L 24.43008041381836 27.02890396118164 L 25.09986114501953 29.91047477722168 L 22.56680107116699 28.38219451904297 L 15.79686832427979 24.29767608642578 L 9.026410102844238 28.3822135925293 L 6.493170261383057 29.91048431396484 Z" stroke="none"/>
        <path d="M 23.21253967285156 27.31190490722656 L 21.25089073181152 18.87233352661133 L 27.79690933227539 13.19757461547852 L 19.16716957092285 12.4564847946167 L 15.79689025878906 4.500004291534424 L 12.42601013183594 12.4564847946167 L 3.79688024520874 13.19757461547852 L 10.34294986724854 18.87233352661133 L 8.38070011138916 27.31190490722656 L 15.79689025878906 22.83780479431152 L 23.21253967285156 27.31190490722656 M 8.380892753601074 29.81190872192383 C 7.863670349121094 29.81193351745605 7.348042011260986 29.65173149108887 6.911470413208008 29.33461380004883 C 6.098550319671631 28.7441349029541 5.718110084533691 27.72437477111816 5.945650100708008 26.7457447052002 L 7.566591262817383 19.77413368225098 L 2.159310340881348 15.08658409118652 C 1.400250315666199 14.42856407165527 1.108790278434753 13.38011455535889 1.419330239295959 12.42475414276123 C 1.729870200157166 11.46939468383789 2.582080364227295 10.79270458221436 3.582960367202759 10.70674419403076 L 10.71158123016357 10.09452152252197 L 13.49495983123779 3.524754285812378 C 13.88656997680664 2.600414514541626 14.79170703887939 1.999939203262329 15.79697036743164 2.000004291534424 C 16.80084037780762 2.000034332275391 17.70733070373535 2.600544452667236 18.09888076782227 3.524904251098633 L 20.88170051574707 10.09452247619629 L 28.01081085205078 10.70674419403076 C 29.01169013977051 10.79269409179688 29.86392021179199 11.46938419342041 30.17445945739746 12.42474460601807 C 30.48500061035156 13.38010406494141 30.19354057312012 14.42855453491211 29.43449020385742 15.08657455444336 L 24.02716255187988 19.77419853210449 L 25.64763069152832 26.74590492248535 C 25.87508964538574 27.72453498840332 25.49460029602051 28.74426460266113 24.68167114257812 29.33468437194824 C 23.86873817443848 29.92511367797852 22.78133201599121 29.97151374816895 21.92106056213379 29.45248413085938 L 15.79684162139893 25.75754547119141 L 9.672110557556152 29.45252418518066 C 9.273833274841309 29.69280052185059 8.826754570007324 29.81188774108887 8.380892753601074 29.81190872192383 Z" stroke="none" fill="#fff"/>
      </g>
      <path id="Icon_ionic-md-star-8" data-name="Icon ionic-md-star" d="M15.8,22.838l7.416,4.474-1.962-8.44L27.8,13.2l-8.63-.741L15.8,4.5l-3.371,7.956L3.8,13.2l6.546,5.675-1.962,8.44Z" transform="translate(572.203 162.5)" fill="#8cd943" stroke="#1f343e" stroke-linecap="round" stroke-linejoin="round" stroke-width="1"/>
    </g>
    <g id="Group_16680" data-name="Group 16680" transform="translate(-368 4938.585)">
      <g id="Icon_ionic-md-star-9" data-name="Icon ionic-md-star" transform="translate(572.203 162.5)" fill="#f8f4f9" stroke-linecap="round" stroke-linejoin="round">
        <path d="M 8.021121025085449 37.514404296875 L 8.691121101379395 34.63274383544922 L 11.1367769241333 24.11397743225098 L 2.978081226348877 17.04124450683594 L 0.7437911629676819 15.10434436798096 L 3.689911127090454 14.8513240814209 L 14.44515609741211 13.92763805389404 L 18.64590072631836 4.012384414672852 L 19.79697036743164 1.295444369316101 L 20.9478702545166 4.012454509735107 L 25.1478385925293 13.92763900756836 L 35.9038200378418 14.8513240814209 L 38.84995269775391 15.10433387756348 L 36.61566162109375 17.04124450683594 L 28.45699310302734 24.11400985717773 L 30.90193176269531 34.6328239440918 L 31.57171058654785 37.5143928527832 L 29.03865051269531 35.98611450195312 L 19.79685020446777 30.41023635864258 L 10.55435085296631 35.98613357543945 L 8.021121025085449 37.514404296875 Z" stroke="none"/>
        <path d="M 29.68439102172852 34.91582489013672 L 27.06886100769043 23.6630744934082 L 35.79687118530273 16.09674453735352 L 24.29057121276855 15.10862445831299 L 19.79687118530273 4.500004291534424 L 15.30237102508545 15.10862445831299 L 3.796871185302734 16.09674453735352 L 12.52495098114014 23.6630744934082 L 9.90864086151123 34.91582489013672 L 19.79687118530273 28.95036506652832 L 29.68439102172852 34.91582489013672 M 9.908834457397461 37.41582870483398 C 9.391611099243164 37.41585540771484 8.875983238220215 37.25564956665039 8.439411163330078 36.93853378295898 C 7.626491069793701 36.34806442260742 7.246061325073242 35.32829284667969 7.473591327667236 34.34966278076172 L 9.748594284057617 24.56487464904785 L 2.159301280975342 17.98575401306152 C 1.400251150131226 17.32773399353027 1.108781218528748 16.27928352355957 1.419321179389954 15.32392406463623 C 1.72986114025116 14.36856460571289 2.582071304321289 13.69187450408936 3.582951068878174 13.60591411590576 L 13.5879430770874 12.74666118621826 L 17.49494171142578 3.524754285812378 C 17.88652801513672 2.600470781326294 18.7930793762207 2.000004291534424 19.796875 2.000004291534424 C 19.79693794250488 2.000004291534424 19.79689025878906 2.000004291534424 19.79695129394531 2.000004291534424 C 20.80082130432129 2.000034332275391 21.70731163024902 2.600544452667236 22.09886169433594 3.524904251098633 L 26.00510215759277 12.74666309356689 L 36.01077270507812 13.60591411590576 C 37.01165008544922 13.69186401367188 37.8638801574707 14.36855411529541 38.17441940307617 15.32391452789307 C 38.48496246337891 16.27927398681641 38.19350051879883 17.32772445678711 37.43445205688477 17.98574447631836 L 29.84513473510742 24.56493949890137 L 32.11948013305664 34.34982299804688 C 32.34694290161133 35.32845306396484 31.96645164489746 36.34818267822266 31.15352058410645 36.93860244750977 C 30.3405876159668 37.52903747558594 29.25317764282227 37.57543182373047 28.39291191101074 37.05640411376953 L 19.79682350158691 31.87010765075684 L 11.20005130767822 37.05644607543945 C 10.80177402496338 37.29672241210938 10.35469627380371 37.41580963134766 9.908834457397461 37.41582870483398 Z" stroke="none" fill="#fff"/>
      </g>
      <path id="Icon_ionic-md-star-10" data-name="Icon ionic-md-star" d="M19.8,28.95l9.888,5.965L27.069,23.663,35.8,16.1l-11.506-.988L19.8,4.5,15.3,15.109,3.8,16.1l8.728,7.566L9.909,34.916Z" transform="translate(572.203 162.5)" fill="#8cd943" stroke="#1f343e" stroke-linecap="round" stroke-linejoin="round" stroke-width="1"/>
    </g>
    <g id="Group_16681" data-name="Group 16681" transform="translate(-136 4730.584)">
      <g id="Icon_ionic-md-star-11" data-name="Icon ionic-md-star" transform="translate(572.203 162.5)" fill="#f8f4f9" stroke-linecap="round" stroke-linejoin="round">
        <path d="M 8.021129608154297 37.51446151733398 L 8.691129684448242 34.6328010559082 L 11.13679504394531 24.11401557922363 L 2.978089809417725 17.04127311706543 L 0.7437998056411743 15.10437297821045 L 3.689919710159302 14.85135269165039 L 14.44518375396729 13.92766666412354 L 18.64592933654785 4.012382984161377 L 19.79699897766113 1.295442938804626 L 20.94789886474609 4.012453079223633 L 25.14787864685059 13.92766761779785 L 35.90388107299805 14.85135269165039 L 38.85000991821289 15.10436248779297 L 36.61571884155273 17.04127311706543 L 28.4570426940918 24.11404991149902 L 30.90197944641113 34.63288116455078 L 31.5717601776123 37.51444244384766 L 29.03870010375977 35.98617172241211 L 19.79687881469727 30.41028594970703 L 10.55435943603516 35.9861946105957 L 8.021129608154297 37.51446151733398 Z" stroke="none"/>
        <path d="M 29.68444061279297 34.9158821105957 L 27.06891059875488 23.66311264038086 L 35.79692840576172 16.09677314758301 L 24.29060935974121 15.10865306854248 L 19.79689979553223 4.500002861022949 L 15.30239963531494 15.10865306854248 L 3.796879768371582 16.09677314758301 L 12.52497005462646 23.66311264038086 L 9.908649444580078 34.9158821105957 L 19.79689979553223 28.95041275024414 L 29.68444061279297 34.9158821105957 M 9.908843040466309 37.41588973999023 C 9.391619682312012 37.41591262817383 8.875991821289062 37.25571060180664 8.439419746398926 36.93859481811523 C 7.626499652862549 36.34812164306641 7.246059894561768 35.32835388183594 7.473599910736084 34.34972381591797 L 9.748612403869629 24.56491279602051 L 2.159309864044189 17.98578262329102 C 1.400259852409363 17.32776260375977 1.108789801597595 16.27931213378906 1.419329762458801 15.32395267486572 C 1.729869842529297 14.36859321594238 2.582079887390137 13.69190311431885 3.582959890365601 13.60594272613525 L 13.58796977996826 12.74668979644775 L 17.49497032165527 3.524752855300903 C 17.88655662536621 2.600479364395142 18.7931079864502 2.000002861022949 19.79690361022949 2.000002861022949 C 19.79696655273438 2.000002861022949 19.79691886901855 2.000002861022949 19.7969799041748 2.000002861022949 C 20.80084991455078 2.000032901763916 21.70734024047852 2.600543022155762 22.09889030456543 3.524903059005737 L 26.00514030456543 12.74669170379639 L 36.01082992553711 13.60594272613525 C 37.01171112060547 13.69189262390137 37.86394119262695 14.3685827255249 38.17448043823242 15.32394313812256 C 38.48501968383789 16.2793025970459 38.19356155395508 17.3277530670166 37.43450927734375 17.98577308654785 L 29.84518241882324 24.56497764587402 L 32.11952972412109 34.34988403320312 C 32.34698867797852 35.32851409912109 31.96649932861328 36.34824371337891 31.1535701751709 36.93866348266602 C 30.34064102172852 37.52909088134766 29.25322914123535 37.57549667358398 28.39295959472656 37.05646133422852 L 19.79685211181641 31.87015533447266 L 11.20005989074707 37.05650329589844 C 10.80178260803223 37.29677963256836 10.35470485687256 37.41586685180664 9.908843040466309 37.41588973999023 Z" stroke="none" fill="#fff"/>
      </g>
      <path id="Icon_ionic-md-star-12" data-name="Icon ionic-md-star" d="M19.8,28.95l9.888,5.965L27.069,23.663,35.8,16.1l-11.506-.988L19.8,4.5,15.3,15.109,3.8,16.1l8.728,7.566L9.909,34.916Z" transform="translate(572.203 162.5)" fill="#8cd943" stroke="#1f343e" stroke-linecap="round" stroke-linejoin="round" stroke-width="1"/>
    </g>
    <g id="Group_16682" data-name="Group 16682" transform="matrix(0.966, 0.259, -0.259, 0.966, 459.282, 5000)">
      <path id="Path_12813" data-name="Path 12813" d="M78.694,45.712,72.616,47.3l.893-8.722a1.029,1.029,0,0,0-.291-.822.8.8,0,0,0-.76-.23l-7.141,1.862a.8.8,0,0,0-.569.752l-1,16.589a1.026,1.026,0,0,0,.308.795.792.792,0,0,0,.746.216l7.074-1.845.678,12.686a.966.966,0,0,0,.727.906.724.724,0,0,0,.327-.008.771.771,0,0,0,.542-.576l5.565-22a1.023,1.023,0,0,0-.219-.906.808.808,0,0,0-.808-.281" transform="translate(-63.75 -37.5)" fill="#f8cc5d" stroke="#fff" stroke-linejoin="round" stroke-width="5"/>
      <path id="Path_12814" data-name="Path 12814" d="M78.694,45.712,72.616,47.3l.893-8.722a1.029,1.029,0,0,0-.291-.822.8.8,0,0,0-.76-.23l-7.141,1.862a.8.8,0,0,0-.569.752l-1,16.589a1.026,1.026,0,0,0,.308.795.792.792,0,0,0,.746.216l7.074-1.845.678,12.686a.966.966,0,0,0,.727.906.724.724,0,0,0,.327-.008.771.771,0,0,0,.542-.576l5.565-22a1.023,1.023,0,0,0-.219-.906.808.808,0,0,0-.808-.281" transform="translate(-63.75 -37.5)" fill="#f8cc5d" stroke="#1f343e" stroke-linejoin="round" stroke-width="1"/>
    </g>
    <g id="Group_16684" data-name="Group 16684" transform="matrix(0.966, -0.259, 0.259, 0.966, 240, 4981.177)">
      <path id="Path_12813-2" data-name="Path 12813" d="M82.43,47.765l-7.6,1.981,1.116-10.9a1.286,1.286,0,0,0-.363-1.027,1,1,0,0,0-.951-.288l-8.926,2.328A1,1,0,0,0,65,40.8L63.752,61.534a1.283,1.283,0,0,0,.386.993.99.99,0,0,0,.932.27l8.843-2.306.848,15.858a1.208,1.208,0,0,0,.909,1.133.9.9,0,0,0,.409-.01.963.963,0,0,0,.678-.72l6.957-27.5a1.279,1.279,0,0,0-.274-1.133,1.009,1.009,0,0,0-1.01-.352" transform="translate(-63.75 -37.5)" fill="#f8cc5d" stroke="#fff" stroke-linejoin="round" stroke-width="5"/>
      <path id="Path_12814-2" data-name="Path 12814" d="M82.43,47.765l-7.6,1.981,1.116-10.9a1.286,1.286,0,0,0-.363-1.027,1,1,0,0,0-.951-.288l-8.926,2.328A1,1,0,0,0,65,40.8L63.752,61.534a1.283,1.283,0,0,0,.386.993.99.99,0,0,0,.932.27l8.843-2.306.848,15.858a1.208,1.208,0,0,0,.909,1.133.9.9,0,0,0,.409-.01.963.963,0,0,0,.678-.72l6.957-27.5a1.279,1.279,0,0,0-.274-1.133,1.009,1.009,0,0,0-1.01-.352" transform="translate(-63.75 -37.5)" fill="#f8cc5d" stroke="#1f343e" stroke-linejoin="round" stroke-width="1"/>
    </g>
  </g>
</svg>
