<svg xmlns="http://www.w3.org/2000/svg" width="128" height="51.548" viewBox="0 0 128 51.548">
  <g id="Agoda_logo" transform="translate(-0.3 -0.2)">
    <path id="Path_12815" data-name="Path 12815" d="M20.48,12.726A5.757,5.757,0,0,0,21.7,16.732a3.987,3.987,0,0,0,2.961,1.393,4.637,4.637,0,0,0,2.09-.522,3.812,3.812,0,0,0,1.567-1.741,5.31,5.31,0,0,0,.522-2.786A5.947,5.947,0,0,0,27.62,8.9a3.881,3.881,0,0,0-6.1-.174,6.31,6.31,0,0,0-1.045,4.005m12.713-5.4V20.041a14.505,14.505,0,0,1-.522,3.831A6.558,6.558,0,0,1,31.1,26.484a8.04,8.04,0,0,1-2.612,1.567,28.584,28.584,0,0,1-4.005.348,10.217,10.217,0,0,1-4.005-.7,8.832,8.832,0,0,1-2.786-1.567,3.972,3.972,0,0,1-1.045-2.09,1.356,1.356,0,0,1,.522-1.219,1.977,1.977,0,0,1,1.393-.522,2.418,2.418,0,0,1,1.741.871l.7.871c.174.348.522.522.871.871l1.045.522a4.328,4.328,0,0,0,1.393.174,6.988,6.988,0,0,0,2.612-.522A3.565,3.565,0,0,0,28.316,23.7c.174-.522.348-1.219.522-1.741a23.631,23.631,0,0,1,.174-3.135,7.09,7.09,0,0,1-2.438,2.09,6.831,6.831,0,0,1-3.135.7,6.269,6.269,0,0,1-3.831-1.219,8.511,8.511,0,0,1-2.438-3.135,10.77,10.77,0,0,1-.871-4.7,11.229,11.229,0,0,1,.522-3.483A6.558,6.558,0,0,1,18.39,6.457,6.627,6.627,0,0,1,20.654,4.89a3.42,3.42,0,0,1,2.612-.871,7.547,7.547,0,0,1,3.309.7,8.2,8.2,0,0,1,2.612,2.264V6.457a2.942,2.942,0,0,1,.522-1.741c.174-.522.7-.7,1.393-.7a1.526,1.526,0,0,1,1.741.871,9.077,9.077,0,0,1,.348,2.438" transform="translate(11.864 2.799)" fill="#929091"/>
    <path id="Path_12816" data-name="Path 12816" d="M45.191,12.937a5.947,5.947,0,0,0-1.219-4.18A3.724,3.724,0,0,0,40.837,7.19a3.5,3.5,0,0,0-2.264.7A5.444,5.444,0,0,0,37.006,9.8a9.146,9.146,0,0,0,0,6.1,3.5,3.5,0,0,0,1.567,1.916,3.5,3.5,0,0,0,2.264.7,3.724,3.724,0,0,0,3.135-1.567,5.284,5.284,0,0,0,1.219-4.005m4.354,0a9.1,9.1,0,0,1-.7,3.657,7.584,7.584,0,0,1-1.741,2.786,5.852,5.852,0,0,1-2.786,1.741,9.948,9.948,0,0,1-7.314,0,8.027,8.027,0,0,1-4.528-4.7,10.563,10.563,0,0,1,0-7.314A7.584,7.584,0,0,1,34.22,6.32a5.852,5.852,0,0,1,2.786-1.741,10.085,10.085,0,0,1,7.14,0,7.293,7.293,0,0,1,2.786,1.916A9.356,9.356,0,0,1,48.674,9.28a7.072,7.072,0,0,1,.871,3.657" transform="translate(23.376 2.762)" fill="#929091"/>
    <path id="Path_12817" data-name="Path 12817" d="M52.528,15.7a8.135,8.135,0,0,0,.522,2.961,5.444,5.444,0,0,0,1.567,1.916,4.95,4.95,0,0,0,2.09.7,4.637,4.637,0,0,0,2.09-.522,4.258,4.258,0,0,0,1.567-1.916,9.861,9.861,0,0,0,.522-3.135,8.135,8.135,0,0,0-.522-2.961A5.444,5.444,0,0,0,58.8,10.823a3.347,3.347,0,0,0-2.09-.7,3.04,3.04,0,0,0-2.09.7,4.512,4.512,0,0,0-1.741,1.916,5.8,5.8,0,0,0-.348,2.961m8.707,6.444v-.348a7.486,7.486,0,0,1-1.741,1.567,19,19,0,0,1-1.916,1.045,8.823,8.823,0,0,1-2.264.348,5.724,5.724,0,0,1-2.961-.7,6.064,6.064,0,0,1-2.264-1.916,9.681,9.681,0,0,1-1.567-2.961A13.257,13.257,0,0,1,48,15.525a9.255,9.255,0,0,1,2.09-6.444,7.55,7.55,0,0,1,5.224-2.264,6.83,6.83,0,0,1,3.135.7A14.414,14.414,0,0,1,61.061,9.43V2.986A4.637,4.637,0,0,1,61.584.9,1.7,1.7,0,0,1,63.151.2a1.891,1.891,0,0,1,1.567.7,3.511,3.511,0,0,1,.522,1.916V22.143a3.511,3.511,0,0,1-.522,1.916,2.207,2.207,0,0,1-1.567.7,2.127,2.127,0,0,1-1.567-.7,2.418,2.418,0,0,1-.348-1.916" transform="translate(35.369)" fill="#929091"/>
    <path id="Path_12818" data-name="Path 12818" d="M75.942,13.056a16.3,16.3,0,0,1-2.786.7c-1.219.174-2.09.522-2.612.522a3.5,3.5,0,0,0-1.393.7,2.207,2.207,0,0,0-.7,1.567,2.418,2.418,0,0,0,.871,1.741,2.619,2.619,0,0,0,1.916.7,6.146,6.146,0,0,0,2.438-.522,4.112,4.112,0,0,0,1.567-1.393,5.363,5.363,0,0,0,.522-3.309Zm.174,6.269a13.661,13.661,0,0,1-3.135,1.916,11.243,11.243,0,0,1-3.309.7,5.724,5.724,0,0,1-2.961-.7A3.775,3.775,0,0,1,64.8,19.5a4,4,0,0,1-.7-2.438,4.47,4.47,0,0,1,1.219-3.135,5.654,5.654,0,0,1,3.135-1.741l2.09-.348a10.834,10.834,0,0,0,2.786-.7,19.7,19.7,0,0,0,2.612-.7,4.914,4.914,0,0,0-.7-2.612c-.348-.522-1.219-.871-2.612-.871a5.562,5.562,0,0,0-2.438.522A5.3,5.3,0,0,0,68.8,8.876a5.292,5.292,0,0,1-.871,1.219,2.475,2.475,0,0,1-1.045.348,1.581,1.581,0,0,1-1.219-.522A1.581,1.581,0,0,1,65.145,8.7a3.668,3.668,0,0,1,.871-2.264A5.35,5.35,0,0,1,68.628,4.7,9.177,9.177,0,0,1,72.633,4a12.986,12.986,0,0,1,4.528.7A4.8,4.8,0,0,1,79.6,6.786a10.217,10.217,0,0,1,.7,4.005v5.05a13.443,13.443,0,0,0,.348,2.612,6.187,6.187,0,0,1,.348,1.741,1.315,1.315,0,0,1-.7,1.219,1.977,1.977,0,0,1-1.393.522,1.584,1.584,0,0,1-1.393-.7,18.245,18.245,0,0,1-1.393-1.916" transform="translate(47.307 2.818)" fill="#929091"/>
    <path id="Path_12819" data-name="Path 12819" d="M12.142,13.056a16.305,16.305,0,0,1-2.786.7,11.069,11.069,0,0,1-2.612.522,3.5,3.5,0,0,0-1.393.7,2.207,2.207,0,0,0-.7,1.567,2.418,2.418,0,0,0,.871,1.741,2.619,2.619,0,0,0,1.916.7,6.146,6.146,0,0,0,2.438-.522,4.112,4.112,0,0,0,1.567-1.393,5.363,5.363,0,0,0,.522-3.309Zm.174,6.269a13.661,13.661,0,0,1-3.135,1.916,11.243,11.243,0,0,1-3.309.7,5.724,5.724,0,0,1-2.961-.7A3.775,3.775,0,0,1,1,19.5a4,4,0,0,1-.7-2.438,4.47,4.47,0,0,1,1.219-3.135,5.654,5.654,0,0,1,3.135-1.741l2.09-.348a10.834,10.834,0,0,0,2.786-.7c.7-.174,1.567-.522,2.438-.7a4.914,4.914,0,0,0-.7-2.612c-.348-.522-1.219-.7-2.438-.7A5.562,5.562,0,0,0,6.4,7.657,2.779,2.779,0,0,0,4.828,8.876,4.333,4.333,0,0,1,3.957,10.1a1.28,1.28,0,0,1-1.045.348,1.581,1.581,0,0,1-1.219-.522A1.356,1.356,0,0,1,1.171,8.7a3.668,3.668,0,0,1,.871-2.264A5.35,5.35,0,0,1,4.654,4.7,10.538,10.538,0,0,1,8.833,4a12.986,12.986,0,0,1,4.528.7A4.118,4.118,0,0,1,15.8,6.786a10.217,10.217,0,0,1,.7,4.005v5.05a13.443,13.443,0,0,0,.348,2.612,6.187,6.187,0,0,1,.348,1.741,1.763,1.763,0,0,1-.7,1.219,1.977,1.977,0,0,1-1.393.522,1.584,1.584,0,0,1-1.393-.7c-.348-.522-.871-1.219-1.393-1.916" transform="translate(0 2.818)" fill="#929091"/>
    <path id="Path_12820" data-name="Path 12820" d="M8.659,20.2A8.359,8.359,0,1,1,.3,28.559,8.361,8.361,0,0,1,8.659,20.2" transform="translate(0 14.83)" fill="#ed2a28"/>
    <path id="Path_12821" data-name="Path 12821" d="M24.659,20.2A8.359,8.359,0,1,1,16.3,28.559,8.252,8.252,0,0,1,24.659,20.2" transform="translate(11.864 14.83)" fill="#f59e22"/>
    <path id="Path_12822" data-name="Path 12822" d="M40.559,20.2A8.359,8.359,0,1,1,32.2,28.559,8.361,8.361,0,0,1,40.559,20.2" transform="translate(23.654 14.83)" fill="#16ac5b"/>
    <path id="Path_12823" data-name="Path 12823" d="M56.559,20.2A8.359,8.359,0,1,1,48.2,28.559,8.252,8.252,0,0,1,56.559,20.2" transform="translate(35.518 14.83)" fill="#8252a1"/>
    <path id="Path_12824" data-name="Path 12824" d="M72.562,20.2A8.359,8.359,0,1,1,64.2,28.559,8.148,8.148,0,0,1,72.562,20.2" transform="translate(47.379 14.83)" fill="#347fc2"/>
  </g>
</svg>
