<svg id="layer1" xmlns="http://www.w3.org/2000/svg" xmlns:xlink="http://www.w3.org/1999/xlink" width="164" height="27.827" viewBox="0 0 164 27.827">
  <defs>
    <clipPath id="clip-path">
      <path id="path3364" d="M736.875-36.215h164V-8.388h-164Z" transform="translate(-736.875 36.215)"/>
    </clipPath>
    <clipPath id="clip-path-2">
      <path id="path3370" d="M736.875-8.388h164V-36.215h-164Z" transform="translate(-736.875 36.215)"/>
    </clipPath>
    <clipPath id="clip-path-4">
      <path id="path3398" d="M736.875-35.82H900.84V-8.577H736.875Z" transform="translate(-736.875 35.82)"/>
    </clipPath>
  </defs>
  <g id="g3358" transform="translate(0 0)">
    <g id="g3360" transform="translate(0 0)" clip-path="url(#clip-path)">
      <g id="g3366" clip-path="url(#clip-path-2)">
        <path id="path3372" d="M783.2-33.322a2.493,2.493,0,0,1,2.487-2.5,2.5,2.5,0,0,1,2.5,2.5,2.5,2.5,0,0,1-2.5,2.5,2.494,2.494,0,0,1-2.487-2.5" transform="translate(-718.885 36.368)" fill="#273b7d"/>
        <path id="path3374" d="M811.519-21.351a2.494,2.494,0,0,1,2.487-2.5,2.5,2.5,0,0,1,2.5,2.5,2.5,2.5,0,0,1-2.5,2.5,2.494,2.494,0,0,1-2.487-2.5" transform="translate(-707.887 41.016)" fill="#499fdd"/>
        <path id="path3376" d="M755.932-19.5c-2.146,0-3.638-1.7-3.638-4.14s1.491-4.138,3.638-4.138,3.667,1.7,3.667,4.138C759.6-21.161,758.122-19.5,755.932-19.5Zm0-11.918a7.551,7.551,0,0,0-7.836,7.777,7.551,7.551,0,0,0,7.836,7.777,7.566,7.566,0,0,0,7.867-7.777,7.567,7.567,0,0,0-7.867-7.777" transform="translate(-732.517 38.08)" fill="#273b7d"/>
        <path id="path3378" d="M782.479-21.717a3.706,3.706,0,0,0-.594-.837l-.137-.146.144-.139a6.228,6.228,0,0,0,.627-.782l4.007-5.957h-4.865l-3.011,4.659a1.174,1.174,0,0,1-1.03.376h-.686V-33.35c0-1.762-1.1-2-2.284-2h-2.03l0,20.794h4.31V-20.8h.4c.491,0,.826.057.979.324l2.378,4.488a2.391,2.391,0,0,0,2.571,1.426h3.3l-2.46-4.069-1.631-3.089" transform="translate(-722.993 36.55)" fill="#273b7d"/>
        <path id="path3380" d="M797.264-31.437a5.863,5.863,0,0,0-4.375,1.8l-.262.265-.092-.36A1.987,1.987,0,0,0,790.36-31.1h-1.932l.012,15.018h4.281v-6.922a5.614,5.614,0,0,1,.267-1.8,3.52,3.52,0,0,1,3.467-2.63c1.336,0,1.859.705,1.859,2.528v6.541a1.987,1.987,0,0,0,2.276,2.283h2.037l-.007-9.552c0-3.8-1.851-5.8-5.355-5.8" transform="translate(-716.854 38.07)" fill="#273b7d"/>
        <path id="path3382" d="M785.6-31.191h-2.029l.014,11.612h0v3.4h2.166c.027,0,.049,0,.076,0l1.009,0h1v-.006h.007l.009-12.729a1.991,1.991,0,0,0-2.253-2.28" transform="translate(-718.741 38.166)" fill="#273b7d"/>
        <path id="path3384" d="M768.045-19.5c-2.146,0-3.641-1.7-3.641-4.14s1.494-4.138,3.641-4.138,3.666,1.7,3.666,4.138C771.711-21.161,770.235-19.5,768.045-19.5Zm0-11.918a7.553,7.553,0,0,0-7.841,7.777,7.552,7.552,0,0,0,7.841,7.777,7.569,7.569,0,0,0,7.867-7.777,7.57,7.57,0,0,0-7.867-7.777" transform="translate(-727.815 38.08)" fill="#273b7d"/>
      </g>
    </g>
  </g>
  <g id="g3386" transform="translate(0 0)">
    <g id="g3388" transform="translate(0 0)" clip-path="url(#clip-path)">
      <g id="g3394" transform="translate(0 0.548)" clip-path="url(#clip-path-4)">
        <g id="g3400" transform="translate(0 -0.548)" clip-path="url(#clip-path-2)">
          <path id="path3406" d="M834.137-19.5c-2.145,0-3.641-1.7-3.641-4.14s1.5-4.138,3.641-4.138,3.667,1.7,3.667,4.138C837.8-21.161,836.327-19.5,834.137-19.5Zm0-11.918a7.552,7.552,0,0,0-7.84,7.777,7.552,7.552,0,0,0,7.84,7.777A7.569,7.569,0,0,0,842-23.635a7.569,7.569,0,0,0-7.867-7.777" transform="translate(-702.148 38.08)" fill="#499fdd"/>
          <path id="path3408" d="M807.261-20.137c-2.34,0-3.174-2.042-3.174-3.956,0-.843.213-3.591,2.948-3.591,1.359,0,3.171.39,3.171,3.732C810.207-20.8,808.6-20.137,807.261-20.137Zm5.169-10.989a1.858,1.858,0,0,0-1.751.915l-.118.23-.2-.172a5.829,5.829,0,0,0-3.942-1.307c-4,0-6.7,3.006-6.7,7.481s2.789,7.592,6.779,7.592a5.263,5.263,0,0,0,3.294-.964l.331-.248v.417c0,2.006-1.3,3.112-3.649,3.112a8.652,8.652,0,0,1-2.879-.53,1.273,1.273,0,0,0-1.809.864l-.34.841-.481,1.228.3.159a11.691,11.691,0,0,0,5.235,1.275c3.646,0,7.9-1.866,7.9-7.118l.016-13.774h-1.989" transform="translate(-712.468 38.061)" fill="#273b7d"/>
        </g>
      </g>
    </g>
  </g>
  <g id="g3410" transform="translate(0 0)">
    <g id="g3412" transform="translate(0 0)" clip-path="url(#clip-path)">
      <g id="g3418" clip-path="url(#clip-path-2)">
        <path id="path3424" d="M744.346-18.14l-3.485,0v-4.166c0-.89.345-1.353,1.108-1.46h2.376a2.607,2.607,0,0,1,2.793,2.8,2.6,2.6,0,0,1-2.793,2.829Zm-3.485-11.239v-1.1c0-.96.406-1.416,1.3-1.475h1.783a2.249,2.249,0,0,1,2.445,2.446A2.321,2.321,0,0,1,744-26.974h-3.137v-2.4Zm7.936,4.158-.63-.354.55-.47a5.03,5.03,0,0,0,1.712-3.922c0-3.268-2.535-5.378-6.459-5.378h-4.987a2.186,2.186,0,0,0-2.107,2.159v18.551h7.183c4.362,0,7.177-2.374,7.177-6.051a5.052,5.052,0,0,0-2.439-4.533" transform="translate(-736.875 36.552)" fill="#273b7d"/>
        <path id="path3426" d="M856.311-31.4a5.9,5.9,0,0,0-4.6,2.227l-.31.393-.243-.44a4.262,4.262,0,0,0-4.055-2.18,5.432,5.432,0,0,0-3.944,1.77l-.406.439-.156-.578a1.913,1.913,0,0,0-2.089-1.29h-1.8L838.7-16.1h4.088v-6.6a7.349,7.349,0,0,1,.217-1.75c.391-1.6,1.463-3.312,3.266-3.14,1.112.107,1.655.966,1.655,2.625V-16.1h4.117v-6.6a6.007,6.007,0,0,1,.231-1.807c.331-1.523,1.451-3.085,3.19-3.085,1.259,0,1.724.713,1.724,2.628v6.681c0,1.512.674,2.187,2.184,2.187h1.924l0-9.55c0-3.815-1.68-5.751-4.985-5.751" transform="translate(-697.332 38.084)" fill="#499fdd"/>
        <path id="path3428" d="M828.08-21.294a6.319,6.319,0,0,1-4.087,1.87,4,4,0,0,1-4.242-4.185,3.955,3.955,0,0,1,4.019-4.24c.768,0,1.642.275,1.779.738l.02.078a1.5,1.5,0,0,0,1.457,1.106l2.24,0v-1.958c0-2.583-3.285-3.519-5.5-3.519-4.727,0-8.157,3.291-8.157,7.823a7.685,7.685,0,0,0,8.07,7.817,8.48,8.48,0,0,0,6.286-2.694l.118-.144-1.774-2.943-.233.249" transform="translate(-706.297 38.084)" fill="#499fdd"/>
      </g>
    </g>
  </g>
</svg>
