<svg xmlns="http://www.w3.org/2000/svg" xmlns:xlink="http://www.w3.org/1999/xlink" width="132" height="37.323" viewBox="0 0 132 37.323">
  <defs>
    <clipPath id="clip-path">
      <path id="path18" d="M347.938-466.872h132V-504.2h-132Z" transform="translate(-347.938 504.195)"/>
    </clipPath>
  </defs>
  <g id="g10" transform="translate(-347.938 504.195)">
    <g id="g12" transform="translate(347.938 -504.195)">
      <g id="g14" clip-path="url(#clip-path)">
        <g id="g20" transform="translate(48.991 16.33)">
          <path id="path22" d="M4.633,4.1H.54A.046.046,0,0,1,.5,4.08L-3.028-.228-6.559,4.08c-.007.013-.02.016-.038.016H-9.876a.057.057,0,0,1-.05-.031.053.053,0,0,1,.007-.051l5.2-6.382L-9.857-8.689a.067.067,0,0,1-.009-.061.077.077,0,0,1,.046-.029h4.1a.046.046,0,0,1,.038.026l3.095,3.835L.558-8.755A.043.043,0,0,1,.6-8.779H3.935a.068.068,0,0,1,.048.029.06.06,0,0,1-.007.061L-.9-2.835,4.668,4.014a.041.041,0,0,1,.009.051.048.048,0,0,1-.044.031" transform="translate(9.929 8.779)" fill="#072f54"/>
        </g>
        <g id="g24" transform="translate(78.751 15.806)">
          <path id="path26" d="M2.214.889A3.319,3.319,0,0,0-1.19,3.9H4.977V3.778A2.8,2.8,0,0,0,2.214.889M8.158,5.863a.054.054,0,0,1-.044.024h-9.37A3.54,3.54,0,0,0,2.649,9.311,10.777,10.777,0,0,0,7.68,7.7a.053.053,0,0,1,.077.051l0,2.882a.05.05,0,0,1-.031.044,15.34,15.34,0,0,1-5.507,1.4,6.745,6.745,0,0,1-6.959-6.99A6.745,6.745,0,0,1,2.214-1.9,5.678,5.678,0,0,1,8.261,3.987c0,.552-.1,1.835-.1,1.876" transform="translate(4.745 1.905)" fill="#072f54"/>
        </g>
        <g id="g28" transform="translate(108.605 9.508)">
          <path id="path30" d="M.663,1.325A2.071,2.071,0,0,1-1.421-.729,2.1,2.1,0,0,1,.663-2.839,2.1,2.1,0,0,1,2.75-.729,2.072,2.072,0,0,1,.663,1.325M-1.02,16.859a.049.049,0,0,1-.053-.053V4.036a.053.053,0,0,1,.04-.051H2.352a.05.05,0,0,1,.042.051V16.805a.049.049,0,0,1-.05.053Z" transform="translate(1.421 2.839)" fill="#072f54"/>
        </g>
        <g id="g32" transform="translate(64.316 15.808)">
          <path id="path34" d="M1.727,3.651A7.424,7.424,0,0,1-.228,3.372L-.22-4.819a7.448,7.448,0,0,1,2.3-.394C4.424-5.213,6-3.482,6-.912,6,1.86,4.321,3.651,1.727,3.651m.92-11.475A8.932,8.932,0,0,0-.284-7.3H-3.652a.05.05,0,0,0-.048.053v20.94A7.767,7.767,0,0,0-.226,12.328l0-6.369a15.63,15.63,0,0,0,2.178.2c4.613,0,7.6-2.765,7.6-7.045a6.62,6.62,0,0,0-6.9-6.934" transform="translate(3.7 7.824)" fill="#072f54"/>
        </g>
        <g id="g36" transform="translate(93.063 8.202)">
          <path id="path38" d="M3.112,5.734A6.2,6.2,0,0,1,.23,6.549c-2.088,0-3.34-1.476-3.34-3.947,0-2.86,1.6-4.71,4.07-4.71a5.089,5.089,0,0,1,2.152.532Zm0-16.652v6.684A9.752,9.752,0,0,0,.375-4.647,6.889,6.889,0,0,0-6.669,2.4c0,4,2.673,6.9,6.351,6.9A8.153,8.153,0,0,0,3.55,8.256l0,1.153A7.711,7.711,0,0,0,6.586,8.121V-12.286a7.487,7.487,0,0,0-3.474,1.368" transform="translate(6.669 12.286)" fill="#072f54"/>
        </g>
        <g id="g40" transform="translate(114.374 15.842)">
          <path id="path42" d="M3.109,3.295a5.458,5.458,0,0,1-2.675.871C-1.8,4.165-3.142,2.7-3.142.215c0-2.818,1.579-4.708,3.925-4.708a5.2,5.2,0,0,1,2.326.735ZM6.587-6.726a.144.144,0,0,0-.145-.141l-2.735,0a.151.151,0,0,0-.148.147v.466h-.07a8.332,8.332,0,0,0-3.4-.808A6.885,6.885,0,0,0-6.662.1c0,4.064,2.655,6.789,6.605,6.789A4.348,4.348,0,0,0,3.624,5.353V7A7.878,7.878,0,0,0,6.583,5.7l0-12.428Z" transform="translate(6.662 7.06)" fill="#072f54"/>
        </g>
        <g id="g44" transform="translate(36.062 8.557)">
          <path id="path46" d="M1.151,5.553l8.5,0A7.676,7.676,0,0,1,8.461,8.743H-.378a2.1,2.1,0,0,1-2.077-1.9A.249.249,0,0,1-2.468,6.8V-9.955A.161.161,0,0,1-2.455-10,2.105,2.105,0,0,1-.378-11.9c.035,0,.068,0,.1,0l9.909,0A7.806,7.806,0,0,1,8.443-8.681H1.151v4.561H8.369a.049.049,0,0,1,.051.049V-.905a.051.051,0,0,1-.051.05H1.151V5.553Z" transform="translate(2.468 11.9)" fill="#072f54"/>
        </g>
        <g id="g48" transform="translate(27.451 26.383)">
          <path id="path50" d="M.508.981A1.358,1.358,0,0,1-.851-.478,1.37,1.37,0,0,1,.508-1.938,1.368,1.368,0,0,1,1.857-.478,1.366,1.366,0,0,1,.508.981m0-3.084A1.573,1.573,0,0,0-1.087-.478,1.558,1.558,0,0,0,.508,1.141,1.57,1.57,0,0,0,2.1-.478,1.574,1.574,0,0,0,.508-2.1" transform="translate(1.087 2.103)" fill="#072f54"/>
        </g>
        <g id="g52" transform="translate(28.371 27.045)">
          <path id="path54" d="M.093.264V-.328h.4c.2,0,.44.031.44.277C.933.24.713.264.462.264ZM1.228-.013c0-.387-.238-.552-.7-.552H-.2v1.92H.117V.533H.41l.5.821h.358L.726.511a.491.491,0,0,0,.5-.524" transform="translate(0.2 0.565)" fill="#072f54"/>
        </g>
        <g id="g56" transform="translate(128.822 15.372)">
          <path id="path58" d="M.508.981A1.361,1.361,0,0,1-.855-.478,1.372,1.372,0,0,1,.508-1.938,1.369,1.369,0,0,1,1.857-.478,1.368,1.368,0,0,1,.508.981m0-3.084A1.573,1.573,0,0,0-1.087-.478,1.557,1.557,0,0,0,.508,1.141,1.569,1.569,0,0,0,2.092-.478,1.572,1.572,0,0,0,.508-2.1" transform="translate(1.087 2.103)" fill="#072f54"/>
        </g>
        <g id="g60" transform="translate(129.74 16.033)">
          <path id="path62" d="M.093.264v-.59h.4c.2,0,.44.029.44.275C.933.242.711.264.464.264ZM1.228-.013c0-.387-.238-.552-.7-.552H-.2v1.92H.114V.535h.3l.5.82h.356L.726.511a.491.491,0,0,0,.5-.524" transform="translate(0.2 0.565)" fill="#072f54"/>
        </g>
        <g id="g64" transform="translate(0.194 0.012)">
          <path id="path66" d="M5.693,3.738,5.077,1.995-.148-4.989l.939-.233L9.8,2.567,15.1,1.05a7.593,7.593,0,0,1,1.87-.192A15.289,15.289,0,0,0-11.309,2.165a15.228,15.228,0,0,0-.717,7.42L.675,5.172Z" transform="translate(12.2 8.01)" fill="#072f54"/>
        </g>
        <g id="g68" transform="translate(0.508 10.257)">
          <path id="path70" d="M9.36,0A8.171,8.171,0,0,1,7.532.917L2.219,2.433-1.327,13.814l-.92.3L-1.5,5.421l-.418-1.806L-6.9,5.036l-13.16,3.1A15.284,15.284,0,0,0-10.2,19.474a15.291,15.291,0,0,0,19.538-9.28A15.243,15.243,0,0,0,9.36,0" transform="translate(20.056)" fill="#072f54"/>
        </g>
        <g id="g72" transform="translate(0.368 2.8)">
          <path id="path74" d="M5.816,3.523l.42,1.8-.75,8.692.92-.3L9.952,2.341,15.265.825a8.329,8.329,0,0,0,1.828-.917c-.163-.468-.35-.928-.557-1.377a7.767,7.767,0,0,0-1.87.191L9.363.242.353-7.55l-.937.235L4.639-.332,5.257,1.41.237,2.847l-12.7,4.409c.04.264.086.526.139.786L.838,4.944Z" transform="translate(12.462 7.55)" fill="#fbc108"/>
        </g>
      </g>
    </g>
  </g>
</svg>
