<svg id="g5994" xmlns="http://www.w3.org/2000/svg" width="164" height="31.74" viewBox="0 0 164 31.74">
  <path id="path3013" d="M92.865,185.932a.276.276,0,0,1-.273-.275v-1.845h-.527a.241.241,0,0,1,0-.482h1.6a.241.241,0,0,1,0,.482h-.529v1.845a.275.275,0,0,1-.269.275m3.946,0a.275.275,0,0,1-.269-.275v-1.605l-.687,1.779a.158.158,0,0,1-.146.1.155.155,0,0,1-.144-.1l-.687-1.779v1.605a.272.272,0,0,1-.264.275.278.278,0,0,1-.275-.275v-1.907a.441.441,0,0,1,.855-.157l.515,1.343.521-1.343a.437.437,0,0,1,.41-.291.445.445,0,0,1,.443.449v1.907a.276.276,0,0,1-.273.275" transform="translate(66.917 -176.348)" fill="#ee2841"/>
  <path id="path3017" d="M69.306,185.227a4.385,4.385,0,0,1,.773-2.487,3.516,3.516,0,0,0-2.536,3.368v2.821l1.763.088Z" transform="translate(-49.908 -179.053)" fill="#ee2841"/>
  <path id="path3021" d="M67.542,190.157a3.516,3.516,0,0,0,2.538,3.368,4.371,4.371,0,0,1-.775-2.487v-5.291H67.542Z" transform="translate(-49.908 -164.586)" fill="#ee2841"/>
  <path id="path3025" d="M69.761,185.747H68v5.291a3.516,3.516,0,0,0,2.536,3.368,4.384,4.384,0,0,1-.773-2.487Z" transform="translate(-47.718 -164.587)" fill="#ee2841"/>
  <path id="path3029" d="M69.761,185.075a4.385,4.385,0,0,1,.773-2.487A3.516,3.516,0,0,0,68,185.956v3.836l1.763.088Z" transform="translate(-47.718 -179.785)" fill="#ee2841"/>
  <path id="path3033" d="M66.671,182.822a4.392,4.392,0,0,0-2.163,3.774v16.753a4.389,4.389,0,0,0,2.163,3.774,5.245,5.245,0,0,1-.4-2.011V184.833a5.26,5.26,0,0,1,.4-2.011" transform="translate(-64.508 -178.659)" fill="#ee2841"/>
  <path id="path3037" d="M66.726,184.529a5.26,5.26,0,0,1,.4-2.011,4.389,4.389,0,0,0-2.163,3.774v20.281a4.395,4.395,0,0,0,2.88,4.118,5.254,5.254,0,0,1-1.117-3.237Z" transform="translate(-62.317 -180.122)" fill="#ee2841"/>
  <path id="path3041" d="M86.579,183.868a3.526,3.526,0,0,0-3.526,3.526v5.732l-8.817-.441v-6.173a4.409,4.409,0,0,0-8.817,0v22.925a4.409,4.409,0,0,0,8.817,0v-7.054h8.817v7.054a3.526,3.526,0,0,0,7.052,0V187.395a3.526,3.526,0,0,0-3.526-3.526" transform="translate(-60.127 -182.106)" fill="#ee2841"/>
  <path id="path3045" d="M84.321,199.5v-6.529H74.8V199.5a1.288,1.288,0,0,1-1.265,1.289,1.316,1.316,0,0,1-1.316-1.289V184.609a1.311,1.311,0,0,1,1.292-1.289,1.293,1.293,0,0,1,1.289,1.289v6.066h9.524v-6.066a1.29,1.29,0,0,1,2.581,0V199.5a1.29,1.29,0,0,1-2.581,0" transform="translate(-27.426 -176.267)" fill="#ee2841"/>
  <path id="path3049" d="M75.057,190.635a6.188,6.188,0,0,1,6.3-6.529c3.9,0,6.3,2.942,6.3,6.529,0,3.614-2.4,6.556-6.3,6.556-3.87,0-6.3-2.942-6.3-6.556m10.17,0c0-2.349-1.369-4.465-3.872-4.465-2.478,0-3.87,2.116-3.87,4.465,0,2.374,1.392,4.492,3.87,4.492,2.5,0,3.872-2.118,3.872-4.492" transform="translate(-13.757 -172.485)" fill="#ee2841"/>
  <path id="path3053" d="M84.719,184.105a5.974,5.974,0,0,1,6.066,6.2c0,.7-.492,1.109-1.369,1.109H80.925a4.09,4.09,0,0,0,4.233,3.872,5.335,5.335,0,0,0,3.1-1.008.819.819,0,0,1,.517-.127.931.931,0,0,1,.517,1.7,7.246,7.246,0,0,1-4.362,1.341,6.546,6.546,0,0,1-.207-13.085M80.9,189.732h7.614a3.688,3.688,0,0,0-3.795-3.717,3.817,3.817,0,0,0-3.819,3.717" transform="translate(2.678 -172.487)" fill="#ee2841"/>
  <path id="path3057" d="M80.846,199.631V184.479a1.157,1.157,0,0,1,1.162-1.16,1.173,1.173,0,0,1,1.16,1.16v15.152a1.173,1.173,0,0,1-1.16,1.162,1.158,1.158,0,0,1-1.162-1.162" transform="translate(14.095 -176.268)" fill="#ee2841"/>
  <path id="path3061" d="M81.5,194.97a.992.992,0,0,1,1.007-1.007,1.067,1.067,0,0,1,.568.18,6.039,6.039,0,0,0,3.51,1.187c1.755,0,2.683-.722,2.683-1.781,0-1.238-1.419-1.65-3.02-2.011-2.116-.492-4.592-1.06-4.592-3.743,0-1.986,1.7-3.69,4.748-3.69a6.859,6.859,0,0,1,4.155,1.289.947.947,0,0,1-.541,1.728.888.888,0,0,1-.517-.18,5.181,5.181,0,0,0-3.071-.953c-1.574,0-2.556.619-2.556,1.626,0,1.084,1.343,1.445,2.891,1.806,2.169.49,4.75,1.084,4.75,3.948,0,2.142-1.755,3.821-5.033,3.821a7.362,7.362,0,0,1-4.543-1.394,1.024,1.024,0,0,1-.439-.826" transform="translate(17.255 -172.485)" fill="#ee2841"/>
  <path id="path3065" d="M85.076,185.8a1.631,1.631,0,0,1,1.626,1.6,1.653,1.653,0,0,1-1.626,1.626,1.631,1.631,0,0,1-1.6-1.626,1.61,1.61,0,0,1,1.6-1.6" transform="translate(26.743 -164.341)" fill="#ee2841"/>
  <path id="path3069" d="M86.105,190.635a6.187,6.187,0,0,1,6.3-6.529c3.9,0,6.3,2.942,6.3,6.529,0,3.614-2.4,6.556-6.3,6.556-3.872,0-6.3-2.942-6.3-6.556m10.17,0c0-2.349-1.369-4.465-3.872-4.465-2.478,0-3.872,2.116-3.872,4.465,0,2.374,1.394,4.492,3.872,4.492,2.5,0,3.872-2.118,3.872-4.492" transform="translate(39.399 -172.485)" fill="#ee2841"/>
  <path id="path3073" d="M106.047,187.873v7.977a1.18,1.18,0,0,1-1.187,1.16,1.152,1.152,0,0,1-1.136-1.16v-7.28c0-1.445-.646-2.142-2.169-2.142-1.265,0-2.5,1.423-3.1,2.327v7.1a1.155,1.155,0,0,1-1.16,1.16,1.174,1.174,0,0,1-1.162-1.16v-7.28c0-1.445-.619-2.142-2.194-2.142-1.214,0-2.425,1.509-3.046,2.411v7.011a1.173,1.173,0,0,1-1.16,1.16,1.157,1.157,0,0,1-1.162-1.16v-10.4a1.152,1.152,0,0,1,1.136-1.162,1.179,1.179,0,0,1,1.187,1.162v.722a5.4,5.4,0,0,1,4.026-2.064,3.22,3.22,0,0,1,3.383,2.323,5.291,5.291,0,0,1,4.241-2.323c2.3,0,3.5,1.265,3.5,3.768" transform="translate(51.27 -172.484)" fill="#ee2841"/>
  <path id="path3077" d="M90.485,184.106a5.559,5.559,0,0,1,3.975,1.445,1.1,1.1,0,0,1,.361.775,1.042,1.042,0,0,1-1.031,1.058,1.061,1.061,0,0,1-.7-.259,3.462,3.462,0,0,0-2.5-.955c-2.452,0-4.026,1.884-4.026,4.465s1.576,4.41,4.026,4.492c1.654.058,3.321-1.146,4.66-3.259.166-.263.41-.75.611-1,.379-.479.65-.25.873-.017a1.993,1.993,0,0,1,.139,1.945,10,10,0,0,1-2.105,2.761,6.105,6.105,0,0,1-4.28,1.638,6.546,6.546,0,0,1,0-13.085" transform="translate(29.922 -172.488)" fill="#ee2841"/>
  <path id="path3081" d="M86.317,197.642c0,.439-1.257,1.421-2.161,1.859a3.815,3.815,0,0,1-1.781.361c-1.962,0-2.968-1.109-2.968-3.071v-7.665H78.22a1.02,1.02,0,1,1,0-2.04h1.187v-2.374a1.158,1.158,0,0,1,1.162-1.162,1.173,1.173,0,0,1,1.16,1.162v2.374h1.628a1.02,1.02,0,1,1,0,2.04H81.73v7.148c0,.877.414,1.523,1.214,1.523,1.421,0,2.538-2.206,3.167-2.206.592,0,.207,1.482.207,2.05" transform="translate(-3.508 -175.156)" fill="#ee2841"/>
</svg>
