<svg xmlns="http://www.w3.org/2000/svg" width="159.999" height="18.797" viewBox="0 0 159.999 18.797">
  <g id="Mobile-Menu" transform="translate(-26.2 -290.8)">
    <g id="LM-Header-Mobile-_x28_Guidelines_x29__x28_Open-menu_x29_" transform="translate(26.2 290.8)">
      <g id="Lastminute_Negative_logo_RGB" transform="translate(0 0)">
        <path id="Fill-2" d="M31.692,306.557a3.039,3.039,0,0,1-1.013-.213,1.4,1.4,0,0,1-.587-.427,1.715,1.715,0,0,1-.267-.64,4.037,4.037,0,0,1-.08-.853V290.8l-3.546.56v13.758a7.291,7.291,0,0,0,.213,1.786,2.889,2.889,0,0,0,.773,1.36,3.815,3.815,0,0,0,1.52.88,8.067,8.067,0,0,0,2.506.32Zm5.146-.107a1.463,1.463,0,0,1-.373-1.866,1.279,1.279,0,0,1,.533-.453,2.193,2.193,0,0,1,.773-.213c.293-.027.613-.053.933-.053.24,0,.507.027.773.053a2.6,2.6,0,0,1,.64.107v2.693c-.187.027-.453.053-.747.08-.32.027-.64.027-.986.027a3.752,3.752,0,0,1-1.546-.373Zm.027-9.972c-.4.027-.8.08-1.146.133a9.852,9.852,0,0,0-1.013.187,7.5,7.5,0,0,0-.773.213l.453,2.853a7.034,7.034,0,0,1,1.52-.373,13.094,13.094,0,0,1,1.786-.133,2.676,2.676,0,0,1,1.893.533,1.93,1.93,0,0,1,.533,1.44v.32c-.213-.053-.507-.107-.853-.16-.347-.027-.773-.053-1.226-.053a9.519,9.519,0,0,0-1.973.213,5.249,5.249,0,0,0-1.68.64,3.375,3.375,0,0,0-1.173,1.2,3.612,3.612,0,0,0-.427,1.84,4.475,4.475,0,0,0,.373,1.92,3,3,0,0,0,1.093,1.28,4.688,4.688,0,0,0,1.706.693,11.05,11.05,0,0,0,2.186.213,22.757,22.757,0,0,0,3.279-.213c.907-.16,1.6-.293,2.106-.4v-7.305a7.343,7.343,0,0,0-.267-2.106,4.173,4.173,0,0,0-.88-1.626,4.056,4.056,0,0,0-1.68-1.013,8.158,8.158,0,0,0-2.613-.347,6.213,6.213,0,0,0-1.226.053ZM47.476,306.5a11.541,11.541,0,0,1-1.866-.56l-.587,2.88a10.5,10.5,0,0,0,1.52.48,11.468,11.468,0,0,0,2.773.293,6.752,6.752,0,0,0,3.919-.96,3.17,3.17,0,0,0,1.386-2.8,4.364,4.364,0,0,0-.187-1.386,2.539,2.539,0,0,0-.613-1.066,5.028,5.028,0,0,0-1.2-.906,17.39,17.39,0,0,0-1.92-.853,6.5,6.5,0,0,1-.933-.4,3.789,3.789,0,0,1-.587-.347,1.066,1.066,0,0,1-.293-.32.851.851,0,0,1-.08-.373c0-.613.56-.933,1.653-.933a7.47,7.47,0,0,1,1.626.16,13.509,13.509,0,0,1,1.333.373l.613-2.746a9.676,9.676,0,0,0-1.653-.427A11.469,11.469,0,0,0,50.2,296.4a5.83,5.83,0,0,0-3.6,1.013,3.317,3.317,0,0,0-1.306,2.773,3.828,3.828,0,0,0,.267,1.546,3.187,3.187,0,0,0,.747,1.093,4.007,4.007,0,0,0,1.146.8q.68.32,1.52.64a9.594,9.594,0,0,1,1.6.72.906.906,0,0,1,.533.747.748.748,0,0,1-.4.747,3.409,3.409,0,0,1-1.386.187,7.369,7.369,0,0,1-1.84-.16Zm8.505-2.373a11.333,11.333,0,0,0,.213,2.213,4.394,4.394,0,0,0,.8,1.706,3.61,3.61,0,0,0,1.52,1.093,6.267,6.267,0,0,0,2.4.4,7.783,7.783,0,0,0,1.92-.187,8.811,8.811,0,0,0,1.413-.453l-.507-2.746a5.923,5.923,0,0,1-1.093.293,6,6,0,0,1-1.173.107,1.648,1.648,0,0,1-1.573-.667,3.477,3.477,0,0,1-.4-1.786v-4.4H63.74v-2.933H59.5v-3.679l-3.546.56v10.478Zm16.824,5.092h3.546V302.4c0-.453-.027-.88-.053-1.306a5.141,5.141,0,0,0-.213-1.146,2.837,2.837,0,0,1,.853-.347,2.721,2.721,0,0,1,.8-.133,1.636,1.636,0,0,1,1.52.72,4.915,4.915,0,0,1,.427,2.426v6.639H83.2v-7.065a12.271,12.271,0,0,0-.213-2.32,4.457,4.457,0,0,0-.773-1.813,3.545,3.545,0,0,0-1.52-1.173,6.425,6.425,0,0,0-2.453-.427,5.917,5.917,0,0,0-1.813.32,5.841,5.841,0,0,0-1.733.853,5.3,5.3,0,0,0-1.386-.827,5.694,5.694,0,0,0-2.186-.347c-.453,0-.933.027-1.413.053s-.933.107-1.386.16q-.68.12-1.28.24c-.4.08-.747.16-1.066.24v12.078h3.546v-9.652c.213-.027.453-.053.693-.08a6.259,6.259,0,0,1,.693-.027,1.636,1.636,0,0,1,1.52.72,4.915,4.915,0,0,1,.427,2.426v6.612Zm12.664,0h3.546v-12.5H85.47ZM88.7,291.6a2.165,2.165,0,0,0-1.493-.56,2.213,2.213,0,0,0-1.493.56,1.916,1.916,0,0,0-.64,1.52,1.879,1.879,0,0,0,.64,1.52,2.165,2.165,0,0,0,1.493.56,2.213,2.213,0,0,0,1.493-.56,2.125,2.125,0,0,0,0-3.039Zm2.693,17.624h3.546v-9.652c.213-.027.48-.053.773-.08s.56-.027.8-.027a1.809,1.809,0,0,1,1.68.72,4.862,4.862,0,0,1,.453,2.426v6.639h3.546v-7.065a8.943,8.943,0,0,0-.267-2.32,5,5,0,0,0-.88-1.813,3.747,3.747,0,0,0-1.68-1.173,7.49,7.49,0,0,0-2.64-.427,21.259,21.259,0,0,0-2.986.213q-1.44.24-2.32.48v12.078Zm23.7-12.478h-3.546V306.4c-.213.027-.48.053-.773.08s-.56.027-.8.027a1.729,1.729,0,0,1-1.68-.773,5.173,5.173,0,0,1-.453-2.48v-6.532h-3.546v6.959a9.3,9.3,0,0,0,.267,2.346,4.92,4.92,0,0,0,.88,1.84,4.009,4.009,0,0,0,1.68,1.2,6.929,6.929,0,0,0,2.64.427,21.268,21.268,0,0,0,2.986-.213q1.44-.24,2.32-.48V296.746Zm2.24,7.385a11.334,11.334,0,0,0,.213,2.213,4.394,4.394,0,0,0,.8,1.706,3.61,3.61,0,0,0,1.52,1.093,6.267,6.267,0,0,0,2.4.4,7.783,7.783,0,0,0,1.92-.187,8.81,8.81,0,0,0,1.413-.453l-.507-2.746a5.923,5.923,0,0,1-1.093.293,6,6,0,0,1-1.173.107,1.648,1.648,0,0,1-1.573-.667,3.477,3.477,0,0,1-.4-1.786v-4.4h4.239v-2.933H120.85v-3.679l-3.546.56v10.478Zm9.278,1.52a5.641,5.641,0,0,0,1.2,2.053,5.236,5.236,0,0,0,2.08,1.36,8.126,8.126,0,0,0,2.933.507,11.175,11.175,0,0,0,1.333-.08c.453-.053.853-.107,1.253-.187s.747-.16,1.066-.24a4.349,4.349,0,0,0,.747-.293l-.48-2.88a6.145,6.145,0,0,1-1.52.427,11.16,11.16,0,0,1-1.92.187,4.149,4.149,0,0,1-2.426-.64,2.322,2.322,0,0,1-1.013-1.733h8.025c.027-.187.027-.4.053-.667a6.032,6.032,0,0,0,.027-.667,6.592,6.592,0,0,0-1.546-4.773,5.5,5.5,0,0,0-4.213-1.626,5.9,5.9,0,0,0-4.133,1.68,5.94,5.94,0,0,0-1.333,2.08,7.544,7.544,0,0,0-.507,2.906,7.411,7.411,0,0,0,.373,2.586Zm3.253-3.919c.053-.293.133-.587.213-.88a2.046,2.046,0,0,1,.453-.773,2.115,2.115,0,0,1,.72-.533,2.365,2.365,0,0,1,1.013-.213,2.491,2.491,0,0,1,1.04.213,2.293,2.293,0,0,1,.693.533,1.945,1.945,0,0,1,.4.773,5.092,5.092,0,0,1,.16.88Zm12.9,4a2.331,2.331,0,0,0-1.52-.56,2.281,2.281,0,0,0-1.52.56,2.318,2.318,0,0,0,0,3.253,2.331,2.331,0,0,0,1.52.56,2.28,2.28,0,0,0,1.52-.56,2.318,2.318,0,0,0,0-3.253Zm1.626-.133a5.342,5.342,0,0,0,1.173,2.08,5.588,5.588,0,0,0,2.026,1.386,7.591,7.591,0,0,0,2.933.507,9.962,9.962,0,0,0,2.053-.187,8.319,8.319,0,0,0,1.546-.453l-.507-2.906a5.071,5.071,0,0,1-1.36.373,8.527,8.527,0,0,1-1.386.107,3.057,3.057,0,0,1-2.533-.933,4.173,4.173,0,0,1-.72-2.613,4.012,4.012,0,0,1,.773-2.56,2.848,2.848,0,0,1,2.346-.987,6.837,6.837,0,0,1,1.333.133c.4.107.773.213,1.093.32l.747-2.826a8.835,8.835,0,0,0-1.626-.507,9.762,9.762,0,0,0-1.84-.187,6.778,6.778,0,0,0-2.72.533,6.15,6.15,0,0,0-2.026,1.413,5.928,5.928,0,0,0-1.28,2.08,7.371,7.371,0,0,0-.427,2.56,11.434,11.434,0,0,0,.4,2.666Zm22.29-5.306a6.283,6.283,0,0,0-1.253-2.08,5.623,5.623,0,0,0-1.946-1.333,6.577,6.577,0,0,0-4.932,0,5.777,5.777,0,0,0-3.226,3.413,7.229,7.229,0,0,0-.453,2.693,7.812,7.812,0,0,0,.453,2.693,5.786,5.786,0,0,0,1.253,2.08,5.283,5.283,0,0,0,1.946,1.333,6.854,6.854,0,0,0,5.039,0,6.171,6.171,0,0,0,1.946-1.333,5.811,5.811,0,0,0,1.226-2.08,7.925,7.925,0,0,0,.427-2.693,9.144,9.144,0,0,0-.48-2.693Zm-3.813,5.279a2.295,2.295,0,0,1-3.733,0,4.466,4.466,0,0,1-.667-2.613,4.376,4.376,0,0,1,.667-2.586,2.195,2.195,0,0,1,1.866-.933,2.162,2.162,0,0,1,1.866.933,4.519,4.519,0,0,1,.667,2.586,4.9,4.9,0,0,1-.667,2.613Zm12.9,3.653h3.546V302.4c0-.453-.027-.88-.053-1.306a5.14,5.14,0,0,0-.213-1.146,2.837,2.837,0,0,1,.853-.347,2.721,2.721,0,0,1,.8-.133,1.636,1.636,0,0,1,1.52.72,4.915,4.915,0,0,1,.427,2.426v6.639H186.2v-7.065a12.271,12.271,0,0,0-.213-2.32,4.456,4.456,0,0,0-.773-1.813,3.546,3.546,0,0,0-1.52-1.173,6.425,6.425,0,0,0-2.453-.427,5.785,5.785,0,0,0-1.813.32,5.538,5.538,0,0,0-1.733.853,5.3,5.3,0,0,0-1.386-.827,5.694,5.694,0,0,0-2.186-.347c-.453,0-.933.027-1.413.053s-.933.107-1.386.16q-.68.12-1.28.24c-.4.08-.747.16-1.066.24v12.078h3.546v-9.652c.213-.027.453-.053.693-.08a6.259,6.259,0,0,1,.693-.027,1.636,1.636,0,0,1,1.52.72,4.862,4.862,0,0,1,.453,2.426v6.612Z" transform="translate(-26.2 -290.8)" fill="#ec008c"/>
      </g>
    </g>
  </g>
</svg>
