<svg xmlns="http://www.w3.org/2000/svg" width="128" height="31.041" viewBox="0 0 128 31.041">
  <g id="Group_15117" data-name="Group 15117" transform="translate(8392.504 -6515.361)">
    <path id="path13762" d="M684.8,499.322c-1.6-.838-1.853-3.2-1.818-8.959l.036-8.82-3.064,0,.713-1.632h2.352v-4.176l5.63-2.088v6.126l2.6,0-.677,1.81-1.924,0v15.262a3.55,3.55,0,0,0,1.1,2.48H684.8" transform="translate(-8958.998 6041.718)" fill="#c6003d"/>
    <path id="path13790" d="M430.839,508.853a4.068,4.068,0,0,1,4.027-.332,3.536,3.536,0,0,1,1.283,1.016l-2.281,3.535a4.534,4.534,0,0,0-.855-.517,2.833,2.833,0,0,0-2.993.413v10.316c-.036,1.785.285,3.414,1.212,4.258h-5.167a4.357,4.357,0,0,1-1.461-3.307l-.036-13.719a3.153,3.153,0,0,0-.677-2.224l5.345.021c.428.31.463.848.677,1.261l.926-.723" transform="translate(-8749.223 6013.453)" fill="#c6003d"/>
    <path id="path13792" d="M495.658,512.742c-.036-1.3.249-2.865-.606-3.991h4.953a1.822,1.822,0,0,1,.642,1.055,3.069,3.069,0,0,1,.356,1.261l.071,14.617a4.975,4.975,0,0,0,1.176,2.43l-5.31.011c-1.746-1.682-1.176-4.447-1.319-7.3l.036-8.082" transform="translate(-8807.521 6012.957)" fill="#c6003d"/>
    <path id="path13794" d="M539.061,510.953c.534-1.486,2.209-2.231,3.421-3.04,1.853-.681,3.92-2.377,5.987-.991a13.876,13.876,0,0,1,4.383,4.176,21.078,21.078,0,0,1,.57,2.17c0,.973.214,1.7.178,2.669a21.591,21.591,0,0,1,0,3.04,6.34,6.34,0,0,1-2.281,4.547c-2.067,1.842-4.668,3.93-7.483,2.5-2.53-1.18-5.488-3.514-5.31-6.721a32.43,32.43,0,0,1,.107-6.45A4.9,4.9,0,0,1,539.061,510.953Zm5.167,10.338c.25.912.713,2.028,1.817,2.152.641.021,1.1-.517,1.5-.973,1.14-2.274.962-4.754.962-7.341-.356-1.921.107-4.547-1.96-5.727-.748-.267-1.283.228-1.746.684a7.728,7.728,0,0,0-.962,4.166,27.535,27.535,0,0,0,.392,7.038" transform="translate(-8843.048 6014.888)" fill="#c6003d"/>
    <path id="path13796" d="M620.9,499.322c-1.6-.838-1.853-3.2-1.817-8.959l.036-8.82-3.029,0,.677-1.632h2.352v-4.176l5.666-2.088v6.126l2.566,0-.677,1.81-1.889,0v15.262a3.55,3.55,0,0,0,1.1,2.48H620.9" transform="translate(-8906.675 6041.718)" fill="#c6003d"/>
    <path id="path13798" d="M354.194,510.517a3.537,3.537,0,0,0-.677-2.224l5.345.021c.427.31.463.848.677,1.261l.926-.723a4.068,4.068,0,0,1,4.027-.332,3.535,3.535,0,0,1,1.283,1.016l-2.281,3.535a4.535,4.535,0,0,0-.855-.517,2.833,2.833,0,0,0-2.993.413v10.316c-.036,1.785.285,3.414,1.212,4.258h-5.167a4.223,4.223,0,0,1-1.461-3.307l-.036-13.719" transform="translate(-8691.571 6013.453)" fill="#c6003d"/>
    <path id="path13800" d="M66.921,488.083,65,492.089c-1.354,2.363-3.207,5.26-6.058,5.979a7.373,7.373,0,0,1-3.171-.039l-3.457,5.648a3,3,0,0,0,1,.645c6.058,2.316,8.517-.175,14.468-13.684l5.666,12.034h7.519L77.4,494.551l2.031-4.2,5.559,12.134,7.2.046L79.572,474.852l-5.808,2.883,4.561,10.331-2,4.059-8.339-17.988L61.9,477.25l5.024,10.833" transform="translate(-8444.815 6041.314)" fill="#c6003d"/>
    <path id="path13802" d="M260.775,519.9a6.038,6.038,0,0,1,3.1-4.9c1.853-1.14,3.991-1.593,5.915-2.587a1.71,1.71,0,0,0,.748-1.033,1.1,1.1,0,0,0-.713-1.137c-2.922-.62-5.31,1.2-7.412,3a14.5,14.5,0,0,1,1.1-4.009,4.563,4.563,0,0,1,.891-1.033,13.878,13.878,0,0,1,6.913-1.14,5.065,5.065,0,0,1,4.276,3.186,8.846,8.846,0,0,1,.357,2.544L275.992,524a4.663,4.663,0,0,0,1.033,2.666H271.68a3.769,3.769,0,0,1-1.14-2.213c-1.5,1.326-4.633,3.289-6.486,1.985A6.575,6.575,0,0,1,260.775,519.9Zm9.479-3.9c-.036-.777-.57-.859-.962-.859a4.609,4.609,0,0,0-3.029,2.359,5.693,5.693,0,0,0-.713,2.666,4.415,4.415,0,0,0,.321,2.316,1.543,1.543,0,0,0,1.1.784,2.844,2.844,0,0,0,2.209-.5c1.532-.848,1.247-2.544,1.283-4.052L270.254,516" transform="translate(-8615.543 6014.379)" fill="#c6003d"/>
    <path id="path13842" d="M737.909,597.379a2.031,2.031,0,1,1,2.031,2A1.992,1.992,0,0,1,737.909,597.379Zm2.031,1.668a1.664,1.664,0,0,0,0-3.328,1.664,1.664,0,0,0,0,3.328Zm-.428-.513h-.321v-2.3h.855c.534,0,.819.2.819.656a.6.6,0,0,1-.606.634l.677,1.012h-.392l-.606-1h-.428Zm.428-1.294c.285,0,.57-.021.57-.374,0-.285-.249-.339-.5-.339h-.5v.713h.428" transform="translate(-9006.476 5941.982)" fill="#c6003d"/>
  </g>
</svg>
