<svg xmlns="http://www.w3.org/2000/svg" width="132" height="24.334" viewBox="0 0 132 24.334">
  <g id="Orbitz_logo" transform="translate(2.975 -147.609)">
    <g id="Group_8637" data-name="Group 8637" transform="translate(-2.906 147.734)">
      <path id="Path_12890" data-name="Path 12890" d="M15.162,171.182l10.13-22.907a.429.429,0,0,0-.425-.647H17.775a1.174,1.174,0,0,0-.987.652l-10,22.9a.432.432,0,0,0,.425.647h6.96a1.175,1.175,0,0,0,.989-.645" transform="translate(60.67 -147.623)" fill="#00263d"/>
      <path id="Path_12891" data-name="Path 12891" d="M26.519,165.005l15.716-17.377H23.854l-4.16,6.7H26.9l-15.976,17.5H30.384l7.247-6.818Z" transform="translate(85.583 -147.617)" fill="#00263d"/>
      <path id="Path_12892" data-name="Path 12892" d="M23.674,147.63H11.507a2.054,2.054,0,0,0-1.725,1.13L.206,170.694a.747.747,0,0,0,.739,1.13H6.977a2.054,2.054,0,0,0,1.73-1.128l2.729-6.215H14.27c.881-.056,1.261.265.773,1.292l-2.1,4.915a.757.757,0,0,0,.748,1.135h6.037a2.048,2.048,0,0,0,1.723-1.135l2.741-6.33A2.51,2.51,0,0,0,22,160.625a7.274,7.274,0,0,0,3.738-3.6l1.416-3.341c1.713-3.876.5-6.1-3.477-6.05m-3.551,6.916-1.5,3.3a1.21,1.21,0,0,1-1.347.833H13.885l2.268-5.136H19.4c.79.042,1,.331.719,1" transform="translate(21.248 -147.615)" fill="#00263d"/>
      <path id="Path_12893" data-name="Path 12893" d="M27.5,147.628H14.6a1.466,1.466,0,0,0-1.232.806l-9.86,22.581a.533.533,0,0,0,.53.8h13.8c4.378-.063,6.886-1.034,8.889-5.663l1.416-3.082c1.119-2.645.022-3.785-2.064-4.124a6.171,6.171,0,0,0,3.607-3.6l1.156-2.444c1.418-3.273.233-5.322-3.347-5.276m-6.319,15.151-.879,1.755a2.141,2.141,0,0,1-2.28,1.572H13.987l1.931-4.552h4.037c1.141.083,1.588.363,1.227,1.226m2.317-8.107-.611,1.39-.088.181a1.391,1.391,0,0,1-1.416.932h-3.5l1.6-3.68h3.563c.645.042.748.459.452,1.177" transform="translate(41.081 -147.627)" fill="#00263d"/>
      <path id="Path_12894" data-name="Path 12894" d="M14.8,147.63l-3,6.7h4.277a.313.313,0,0,1,.312.478L8.918,171.343a.313.313,0,0,0,.307.48h7.622a.884.884,0,0,0,.744-.486l7.181-16.531a.875.875,0,0,1,.736-.483H29.9l4.128-6.7Z" transform="translate(73.367 -147.615)" fill="#00263d"/>
      <path id="Path_12895" data-name="Path 12895" d="M22.113,155.873l.945-2.064c1.907-4.356.645-6.228-3.095-6.179H10.952c-3.7-.049-6.8,2.042-8.506,5.924l-2.793,7.858H-2.965l5.028,6.79,8.312-6.79H8.263l2.442-5.666a2.085,2.085,0,0,1,1.806-1.416h1.418a.963.963,0,0,1,.7.268l4.412-3.706Z" transform="translate(2.965 -147.615)" fill="#00263d"/>
    </g>
    <path id="Path_12896" data-name="Path 12896" d="M1.931,165.534l-3.7-4.682-.194.41c-1.72,3.914-1.433,5.863,2.277,5.924H9.2a9.334,9.334,0,0,0,8.633-5.924l2.631-6.057H22.84L18.8,148.412,10.557,155.2h2.265l-1.671,3.865A2.024,2.024,0,0,1,9.48,160.36H8.3Z" transform="translate(0 4.756)" fill="#00b0ff"/>
    <path id="Path_12897" data-name="Path 12897" d="M16.861,147.609a1.178,1.178,0,1,1-1.18,1.175,1.126,1.126,0,0,1,.346-.832,1.139,1.139,0,0,1,.834-.344m0,2.142a.972.972,0,0,0,.972-.967.969.969,0,0,0-1.939,0,.964.964,0,0,0,.967.967m.6-.336H17.18l-.331-.5H16.7v.5h-.248v-1.274h.4a.529.529,0,0,1,.331.1.335.335,0,0,1,.13.275.347.347,0,0,1-.245.336Zm-.766-.707h.133c.16,0,.24-.063.24-.184s-.076-.177-.228-.177H16.7Z" transform="translate(110.984 0)" fill="#00263d"/>
  </g>
</svg>
