<svg xmlns="http://www.w3.org/2000/svg" width="160" height="37.487" viewBox="0 0 160 37.487">
  <g id="priceline-com-vector-logo-2021" transform="translate(-21.5 -250.7)">
    <path id="Path_12825" data-name="Path 12825" d="M166.223,267.6a4.52,4.52,0,0,0-1.093-2.933,4.419,4.419,0,0,0-6.239.16v.027a5.647,5.647,0,0,0-1.093,2.933h8.452V267.6Zm6.052,7.919a15.189,15.189,0,0,1-2.4,3.12,11.074,11.074,0,0,1-7.919,3.119c-6.239,0-10.665-4.053-10.665-11.038,0-5.146,2.586-11.571,10.852-11.571a9.556,9.556,0,0,1,7.359,2.933c2.746,2.933,2.933,7.172,3.12,9.572H157.531c0,2.586,1.466,5.146,4.773,5.146,3.493,0,4.586-2.213,5.519-3.679C167.876,273.123,172.275,275.523,172.275,275.523ZM136.6,261.712a7.684,7.684,0,0,1,2.213-1.84,17.039,17.039,0,0,1,3.679-.56c1.28,0,2.746,0,3.679.747,2.4,1.28,2.933,3.119,2.933,6.426v14.344h-6.239V265.764a2.886,2.886,0,0,0-2.746-1.466c-3.306,0-3.306,2.586-3.306,5.146v11.411h-6.239V259.9h6.239v1.84H136.6Zm-10.1-7.359a3.452,3.452,0,0,1-3.306,3.493,3.335,3.335,0,0,1-3.306-3.493,3.306,3.306,0,1,1,6.612,0Zm-6.266,5.519h6.079v20.957H120.23V259.872Zm-4.213-9.172v30.155h-6.239V250.7ZM100.58,267.6a4.153,4.153,0,0,0-7.332-2.96v.027a5.647,5.647,0,0,0-1.093,2.933Zm6.239,7.732a16.273,16.273,0,0,1-2.586,3.306,11.074,11.074,0,0,1-7.919,3.119c-6.239,0-10.665-4.053-10.665-11.038.187-4.959,2.746-11.571,11.225-11.571a9.556,9.556,0,0,1,7.359,2.933c2.933,2.933,2.933,7.172,3.119,9.572H92.288c0,2.586,1.466,5.146,4.773,5.146,3.493,0,4.586-2.213,5.519-3.679l4.586,2.4Zm-24.263-1.12-.56.747a4,4,0,0,1-3.119,1.466c-3.306,0-4.586-3.493-4.586-6.239,0-2.586,1.093-6.426,4.426-6.426a3.517,3.517,0,0,1,2.213.747,5.157,5.157,0,0,1,1.653,1.84,14.791,14.791,0,0,1,2.746-4.586,10.15,10.15,0,0,0-6.8-2.586c-6.985,0-10.478,5.332-10.478,11.411,0,8.639,6.426,11.038,10.478,11.038a10.149,10.149,0,0,0,6.8-2.586,9.979,9.979,0,0,1-2.586-4.586ZM65.626,254.353a3.452,3.452,0,0,1-3.306,3.493,3.335,3.335,0,0,1-3.306-3.493,3.306,3.306,0,1,1,6.612,0ZM59.2,259.872h6.079v20.957H59.2V259.872ZM50.562,261.9a9.932,9.932,0,0,1,6.079-2.4v5.519l-2.026.373c-2.933.56-3.866.907-3.866,3.679v11.758H44.509V259.685h6.079V261.9Zm-18.77,2.026a3.675,3.675,0,0,0-3.119,1.653,8.006,8.006,0,0,0-1.28,4.959,8.471,8.471,0,0,0,1.466,5.332,4.006,4.006,0,0,0,2.746,1.093c3.119-.187,4.586-3.493,4.586-6.8-.187-2.586-.907-5.706-3.679-6.239h-.72ZM27.019,261.9c0-.373.373-.56.56-.747a7.449,7.449,0,0,1,5.332-1.84c5.146,0,9.2,3.866,9.2,11.038,0,4.239-2.026,11.038-9.2,11.038a8.521,8.521,0,0,1-5.146-1.84v8.639H21.5V259.872h5.519V261.9Z" transform="translate(0 0)" fill="#0068ef"/>
    <path id="Path_12826" data-name="Path 12826" d="M591.613,258.894a4.568,4.568,0,0,1,4.053,2.213,5.059,5.059,0,0,1,.56,2.4,4.335,4.335,0,0,1-.56,2.213,4.608,4.608,0,0,1-6.239,1.866,4.5,4.5,0,0,1-1.866-1.866,3.886,3.886,0,0,1-.56-2.213,4.333,4.333,0,0,1,.56-2.213A4.613,4.613,0,0,1,591.613,258.894Zm0,8.105a3.513,3.513,0,0,0,1.84-.56,3.757,3.757,0,0,0,1.653-2.933,3.251,3.251,0,0,0-1.84-2.933,2.214,2.214,0,0,0-1.653-.56,3.251,3.251,0,0,0-2.933,1.84,2.71,2.71,0,0,0-.56,1.84A3.488,3.488,0,0,0,591.613,267Zm1.84-4.239v.746c-.187.373-.373.56-.747.56l.906,1.466h-1.093l-.56-1.28h-1.28v1.28h-.907v-4.239h1.84a1.517,1.517,0,0,1,1.28.373A1.087,1.087,0,0,1,593.452,262.76Zm-2.586.746h.907l.56-.187v-1.306h-1.653v1.28Z" transform="translate(-414.725 -6.007)" fill="#0068ef"/>
  </g>
</svg>
