<svg xmlns="http://www.w3.org/2000/svg" width="164" height="39.534" viewBox="0 0 164 39.534">
  <g id="layer1" transform="translate(65.124 2.568)">
    <g id="g13455" transform="translate(-65.124 -2.568)">
      <path id="path12" d="M-62.21,5.772c.286-.143.619-.143.9-.286a11.265,11.265,0,0,1-1.381-1.619c-.143-.19-.048-.238.048-.286.1,0,.048-.19.1-.286.19-.048.19-.286.286-.428,0-.048,0-.19.048-.238a.157.157,0,0,1,.238,0,6.6,6.6,0,0,0,1.238,1.1A9.092,9.092,0,0,1-59.21,4.867c.048,0,.19.1.19,0a3.987,3.987,0,0,1,.428-1.333,1.988,1.988,0,0,1,.19-.476,2.389,2.389,0,0,1,.714-.667c.429-.238.9,0,1.238-.381.1-.1.286,0,.381,0,.286.143.667.048.9.286a24.243,24.243,0,0,0-.667,2.666c-.048.19-.143.476-.048.571a3.8,3.8,0,0,0,1.571-.1,6.578,6.578,0,0,1,1.666.143,2.325,2.325,0,0,1,1.1.619A2.18,2.18,0,0,1-51.021,8.3c0,.048-.286.333-.381.286-.048,0-.048-.19-.1-.238-.238.19-.667.619-.809.619-.048,0-.333-.286-.476-.381a2.247,2.247,0,0,0-1.571-.19,4.991,4.991,0,0,0-1.857.238,3.988,3.988,0,0,0,1,1c.571.571,1.143,1,1.714,1.571a5.775,5.775,0,0,1,1,1.19c-.143.1,0,.143-.1.238-.1.048-.1-.143-.19-.143s-.143.143-.143.238c.048.048-.1.333-.19.333a.957.957,0,0,1-.381.19c-.048,0-.333-.143-.333-.1.1.143.19.333.143.381-.238-.048-.381-.048-.524-.238-.762-.667-1.476-1.381-2.285-2.095a7.729,7.729,0,0,0-.857-.952c-.571,1.333-.952,2.285-1.523,3.618-.143.238-.19.857-.333.9-.1.048-.428-.429-.619-.809,0-.809.1-1.095.143-1.952v-.143c.048-1.1.381-2.047.333-3.19,0-.1-.143-.143-.286-.143-1.428-.143-2.809-.333-4.237-.524a3.708,3.708,0,0,1-1-.19.8.8,0,0,0-.286-.143c-.048-.048-.048-.048-.1-.048A5.8,5.8,0,0,1-63.4,6.105a3.916,3.916,0,0,0,1.19-.333Z" transform="translate(65.256 16.902)" fill="#f58025"/>
      <path id="path14" d="M-61.4,8.021a.1.1,0,0,1-.048-.143.434.434,0,0,1,.381-.143c.381-.1.809,0,1.19-.1.1-.048.143-.143.19-.143a5.029,5.029,0,0,1,.9-.286c.1-.048.286-.143.19-.286a4.784,4.784,0,0,1-.857-1.143c-.1-.238-.286-.428-.286-.667,0-.19.238-.238.428-.143a7.258,7.258,0,0,1,2.047,1.952c.1.143.238-.19.286-.333.286-.619.476-1.333.809-1.952.1-.19.238-.428.428-.476a3.552,3.552,0,0,0,.714-.428c.19-.1.333,0,.524-.1.1-.048.286.143.429.1.238-.143.428-.048.667,0a.319.319,0,0,1,.143.381,8.734,8.734,0,0,1-.714,1.714c-.286.428-.476.857-.809,1.285,0,.048-.048.143.048.143.19.048.428,0,.571.1a10.473,10.473,0,0,0,1.762.238c.286.1.286.524.571.762.143.1-.1.238-.286.286-.428.143-.857-.048-1.285.1a10.1,10.1,0,0,0-2.095.286,8.792,8.792,0,0,1,.667.667l.571.857a3.979,3.979,0,0,1,.381.952c.1.143.048.381.048.571-.1-.048-.1-.19-.143-.238-.1,0-.143.143-.286.143-.1-.048-.143-.143-.19-.19a1.392,1.392,0,0,1-.333-.571A3.989,3.989,0,0,0-56.064,9.83a18.983,18.983,0,0,1-1.476,2.952c-.048.1-.143.1-.286.1-.048-.048-.1.1-.143.1-.048-.1-.1-.1-.143-.143-.19-.143-.476-.333-.524-.571a1.765,1.765,0,0,1-.19-.667c0-.048-.1-.143-.1-.143a2.567,2.567,0,0,0,.143-.476c.1-.143.286-.286.286-.428a8.351,8.351,0,0,0,.619-1.333,13.865,13.865,0,0,1-2.761-.428,3.591,3.591,0,0,1-.619-.286c-.1-.333-.048-.428-.143-.476Z" transform="translate(77.727 22.372)" fill="#003e74"/>
      <path id="path16" d="M-58.283,13.13c.286-.714.762-1.143.809-1.952-1.524-.857-3.333-.333-4.475-2.333a5.5,5.5,0,0,1,.143-2.666c.333-.714,1-.714,1.619-.238a1.644,1.644,0,0,1,.619.143,5.711,5.711,0,0,1,1.952.286,10.61,10.61,0,0,0,2.38.333.789.789,0,0,0,.143-.476c-.19-1.19-.476-2.238-.762-3.475a6.739,6.739,0,0,1-.19-.952c-.048-.714-.524-1.809-.1-2.142.048-.048.143.143.19.1.143-.1.19-.286.333-.238a24.635,24.635,0,0,1,4.047,4c.428.428.524-.714.857-1.1.1-.19,0-.619.1-.762.333-.619.381-1.381.667-1.952.524-.714.809-1.809,1.571-2.095a1.562,1.562,0,0,1,1.571.571c.1.048.333,0,.476.143.524.476.952,1.1,1.524,1.666a1,1,0,0,1,.19.857c-.143.809-.857.857-1.285,1.428-.809,1.333-1.666,2.666-2.476,4-.1.19-.333.619-.143.809A27.379,27.379,0,0,0-45.1,10.321c.809.524,1.666.476,2.38,1.19a5.614,5.614,0,0,1,1.143,2.095c-2.9,1.857-6.189-1.19-9.284-1.143-.238.048-.19.381-.19.524.143,1.333.381,2.618.524,3.9a24.245,24.245,0,0,0,.667,2.666c.048.333.333,1.19-.1,1.143a1.5,1.5,0,0,1-1.476-.9,30.664,30.664,0,0,1-1.19-3.142c-.048-.333-.19-.619-.048-.9a3.144,3.144,0,0,0-.428-1.381c-.1-.19-.286.1-.428.19A16.5,16.5,0,0,0-54.76,16.32a5.913,5.913,0,0,1-2.476,2.047,1.565,1.565,0,0,1-2.238-.667c.238-.048.428-.571.286-.714-1.095-1.666.428-2.666.9-3.856Z" transform="translate(75.708 2.436)" fill="#7baed4"/>
      <path id="path20" d="M-51.67,16.663h-2.666V2.428h2.666v2.38A4.958,4.958,0,0,1-47.052,2.19h.19V4.475h-.19a3.952,3.952,0,0,0-2.856,1.143A5.8,5.8,0,0,0-51.67,9.283v7.379Z" transform="translate(101.113 17.634)" fill="#003e74"/>
      <path id="path24" d="M-47.694,17.021c-3.19,0-4.618-2.095-4.618-4,0-3.047,2.571-4.666,9.189-5.808V6.595c0-1.571-.952-2.38-2.809-2.38A3.686,3.686,0,0,0-49.5,6.262l-.048.19L-51.979,5.4l.1-.19a6.744,6.744,0,0,1,5.9-3.047c2.761,0,5.523,1.333,5.523,4.332v7a10.9,10.9,0,0,0,.333,2.952l.048.238h-2.761l-.19-1.714a6.406,6.406,0,0,1-4.666,2.047Zm4.523-7.76c-4.38.762-6.522,2-6.522,3.761a2.187,2.187,0,0,0,2.238,1.952,6.578,6.578,0,0,0,4.285-2.19Z" transform="translate(107.76 17.561)" fill="#003e74"/>
      <path id="path28" d="M-41.4,16.48H-44.64L-49.21,2.245H-46.5l3.571,11.188,3.571-11.188h2.428Z" transform="translate(117.947 17.817)" fill="#003e74"/>
      <path id="path32" d="M-39.769,20.968h-2.714V2.02L-39.769.877Z" transform="translate(140.035 13.328)" fill="#003e74"/>
      <path id="path36" d="M-34.854,16.948c-3.856,0-6.427-2.952-6.427-7.379s2.571-7.379,6.427-7.379,6.427,2.952,6.427,7.379S-31,16.948-34.854,16.948Zm0-12.759c-2.333,0-3.761,2-3.761,5.38s1.428,5.38,3.761,5.38,3.761-2,3.761-5.38-1.428-5.38-3.761-5.38Z" transform="translate(143.982 17.634)" fill="#003e74"/>
      <path id="path40" d="M-31.5,16.948c-3.856,0-6.427-2.952-6.427-7.379s2.571-7.379,6.427-7.379a5.764,5.764,0,0,1,5.761,3.856l.1.19L-28.163,7l-.048-.143A3.376,3.376,0,0,0-31.5,4.237c-2.38,0-3.761,1.952-3.761,5.38S-33.876,15-31.5,15c1.857,0,2.761-.619,3.856-2.476l.1-.143,2.285.809-.1.19c-1.666,2.571-3.38,3.571-6.142,3.571Z" transform="translate(155.01 17.634)" fill="#003e74"/>
      <path id="path44" d="M-31.843,16.48h-2.666V2.245h2.666Z" transform="translate(166.23 17.817)" fill="#003e74"/>
      <path id="path48" d="M-51.27,20.6c-2,0-3.333-.429-3.571-2.428V8.124h-2.142v-2h2.142V2.22l2.666-1.143V6.124h3.428l-.524,2h-2.857v9.712c0,.381.19.762,1.476.762a11.273,11.273,0,0,0,2.047-.19l.286-.048-.524,2h-.1a11,11,0,0,1-2.333.238Z" transform="translate(92.423 13.985)" fill="#003e74"/>
      <path id="path54" d="M-28.889,21.79a15.669,15.669,0,0,1-1.9-.143l-.19-.048.619-2h.333a4.629,4.629,0,0,0,.857.048c1.333,0,2.952-.333,3.618-3.142L-30.7,2.27h2.523l.048.1,3.761,10.188,3.333-10.331h2.809L-23.414,17.6C-24.747,21.266-27.413,21.79-28.889,21.79Z" transform="translate(177.798 17.744)" fill="#003e74"/>
      <path id="path60" d="M-27.506,20.634c-2,0-3.333-.429-3.571-2.428V8.112h-2.142v-2h2.142v-3.9l2.666-1.143V6.113h3.428l-.524,2h-2.857v9.712c0,.381.19.762,1.476.762a11.273,11.273,0,0,0,2.047-.19l.286-.048-.524,2h-.1a8.449,8.449,0,0,1-2.333.286Z" transform="translate(170.463 13.949)" fill="#003e74"/>
      <path id="path68" d="M-39.255,16.948a6.76,6.76,0,0,1-4.666-1.762,7.426,7.426,0,0,1-2.142-5.618c0-4.428,2.571-7.379,6.427-7.379a6.044,6.044,0,0,1,4.19,1.524A6.679,6.679,0,0,1-33.59,8.664V10.14h-9.76c.1,2.761,1.809,4.809,4.094,4.809a4.227,4.227,0,0,0,3.809-2.19l.1-.19,1.714,1.666-.1.143C-35.446,16.758-36.494,16.948-39.255,16.948ZM-43.3,8.093h7c-.048-2.428-1.285-3.9-3.285-3.9C-41.731,4.189-43.064,5.617-43.3,8.093Z" transform="translate(128.281 17.634)" fill="#003e74"/>
      <path id="path74" d="M-31.843,3.81h-2.666V1.144h2.666Z" transform="translate(166.23 14.192)" fill="#003e74"/>
      <path id="path84" d="M-27.65,3.293a2.114,2.114,0,0,1,.381-.524,1.711,1.711,0,0,1,.571-.381,1.521,1.521,0,0,1,.667-.143,1.521,1.521,0,0,1,.667.143,1.992,1.992,0,0,1,.571.381,2.114,2.114,0,0,1,.381.524,1.521,1.521,0,0,1,.143.667,1.521,1.521,0,0,1-.143.667,3.971,3.971,0,0,1-.381.571,1.712,1.712,0,0,1-.571.381,1.521,1.521,0,0,1-.667.143,1.521,1.521,0,0,1-.667-.143,1.992,1.992,0,0,1-.571-.381,1.712,1.712,0,0,1-.381-.571,1.521,1.521,0,0,1-.143-.667A1.521,1.521,0,0,1-27.65,3.293Zm.286,1.285a4.186,4.186,0,0,0,.286.476,1.71,1.71,0,0,0,.476.333,1.208,1.208,0,0,0,.571.1,2.39,2.39,0,0,0,.571-.1,1.037,1.037,0,0,0,.428-.333.988.988,0,0,0,.286-.476,1.208,1.208,0,0,0,.1-.571,2.39,2.39,0,0,0-.1-.571,4.186,4.186,0,0,0-.286-.476,1.124,1.124,0,0,0-.428-.286,1.208,1.208,0,0,0-.571-.1,2.391,2.391,0,0,0-.571.1,4.188,4.188,0,0,0-.476.286.988.988,0,0,0-.286.476,1.208,1.208,0,0,0-.1.571A2.39,2.39,0,0,0-27.364,4.578Zm1.428-1.619a.766.766,0,0,1,.524.143.6.6,0,0,1,.19.428c0,.19-.048.333-.143.381a.541.541,0,0,1-.381.143l.571.9h-.333l-.571-.857h-.333v.857h-.333v-2Zm-.143.9h.19a.286.286,0,0,0,.19-.048.1.1,0,0,0,.1-.1c.048-.048.048-.1.048-.19,0-.048,0-.143-.048-.143s-.048-.048-.1-.1c-.048,0-.1-.048-.143-.048h-.571v.619Z" transform="translate(188.27 17.808)" fill="#003e74"/>
      <path id="path86" d="M-27.65,3.293a2.114,2.114,0,0,1,.381-.524,1.711,1.711,0,0,1,.571-.381,1.521,1.521,0,0,1,.667-.143,1.521,1.521,0,0,1,.667.143,1.992,1.992,0,0,1,.571.381,2.114,2.114,0,0,1,.381.524,1.521,1.521,0,0,1,.143.667,1.521,1.521,0,0,1-.143.667,3.971,3.971,0,0,1-.381.571,1.712,1.712,0,0,1-.571.381,1.521,1.521,0,0,1-.667.143,1.521,1.521,0,0,1-.667-.143,1.992,1.992,0,0,1-.571-.381,1.712,1.712,0,0,1-.381-.571,1.521,1.521,0,0,1-.143-.667A1.521,1.521,0,0,1-27.65,3.293Zm.286,1.285a4.186,4.186,0,0,0,.286.476,1.71,1.71,0,0,0,.476.333,1.208,1.208,0,0,0,.571.1,2.39,2.39,0,0,0,.571-.1,1.037,1.037,0,0,0,.428-.333.988.988,0,0,0,.286-.476,1.208,1.208,0,0,0,.1-.571,2.39,2.39,0,0,0-.1-.571,4.186,4.186,0,0,0-.286-.476,1.124,1.124,0,0,0-.428-.286,1.208,1.208,0,0,0-.571-.1,2.391,2.391,0,0,0-.571.1,4.188,4.188,0,0,0-.476.286.988.988,0,0,0-.286.476,1.208,1.208,0,0,0-.1.571A2.39,2.39,0,0,0-27.364,4.578Zm1.428-1.619a.766.766,0,0,1,.524.143.6.6,0,0,1,.19.428c0,.19-.048.333-.143.381a.541.541,0,0,1-.381.143l.571.9h-.333l-.571-.857h-.333v.857h-.333v-2Zm-.143.9h.19a.286.286,0,0,0,.19-.048.1.1,0,0,0,.1-.1c.048-.048.048-.1.048-.19,0-.048,0-.143-.048-.143s-.048-.048-.1-.1c-.048,0-.1-.048-.143-.048h-.571v.619Z" transform="translate(188.27 17.808)" fill="#003e74"/>
    </g>
  </g>
</svg>
