<svg xmlns="http://www.w3.org/2000/svg" width="132" height="31.836" viewBox="0 0 132 31.836">
  <g id="Trip.com_Logo" data-name="Trip.com Logo" transform="translate(-44.27 -126.91)">
    <path id="Path_12882" data-name="Path 12882" d="M113.141,137.65a6.349,6.349,0,0,0-4.826,2.275v-1.462H103.49v23.619h5.357v-8.273a6.777,6.777,0,0,0,4.329,1.537,8.845,8.845,0,0,0,0-17.683m8.583,8.879a8.707,8.707,0,0,0-8.583-8.879m-.586,12.843a3.84,3.84,0,0,1-3.743-3.888,3.792,3.792,0,0,1,3.743-3.888,3.84,3.84,0,0,1,3.743,3.888,3.757,3.757,0,0,1-3.743,3.888" transform="translate(-18.394 -3.336)" fill="#287dfa"/>
    <path id="Path_12883" data-name="Path 12883" d="M136.683,154a3.233,3.233,0,1,1-3.233,3.233A3.233,3.233,0,0,1,136.683,154" transform="translate(-27.7 -8.414)" fill="#ffb400"/>
    <path id="Path_12884" data-name="Path 12884" d="M92.723,126.91a3.006,3.006,0,1,1-2.13.878,3.006,3.006,0,0,1,2.13-.878" transform="translate(-14.114 0)" fill="#287dfa"/>
    <rect id="Rectangle_3867" data-name="Rectangle 3867" width="5.357" height="16.139" transform="translate(75.961 135.128)" fill="#287dfa"/>
    <path id="Path_12885" data-name="Path 12885" d="M44.27,127.97v4.474h6.97V151.6H56.6V132.444h6.97V127.97Z" transform="translate(0 -0.329)" fill="#287dfa"/>
    <path id="Path_12886" data-name="Path 12886" d="M154.988,150.56a3.84,3.84,0,0,1-3.743-3.888,3.792,3.792,0,0,1,3.743-3.888,3.605,3.605,0,0,1,2.716,1.172l3.523-3.523a8.769,8.769,0,0,0-6.239-2.565,8.876,8.876,0,1,0,6.239,15.187l-3.55-3.523a4.543,4.543,0,0,1-2.716,1.027" transform="translate(-31.555 -3.403)" fill="#287dfa"/>
    <path id="Path_12887" data-name="Path 12887" d="M218.607,137.648a5.31,5.31,0,0,0-4.991,2.647,5.336,5.336,0,0,0-4.826-2.647A5.184,5.184,0,0,0,204.1,140.3v-1.834H199.27v16.063H204.6v-9.975a2.358,2.358,0,1,1,4.7,0V154.6h5.06V144.549a2.351,2.351,0,1,1,4.695,0V154.6h5.357V143.522c.076-3.6-2.2-5.874-5.8-5.874" transform="translate(-48.144 -3.334)" fill="#287dfa"/>
    <path id="Path_12888" data-name="Path 12888" d="M178.516,137.65a8.866,8.866,0,1,0,6.278,2.6,8.879,8.879,0,0,0-6.278-2.6m0,12.843a3.84,3.84,0,0,1-3.743-3.888,3.743,3.743,0,1,1,7.48,0,3.833,3.833,0,0,1-3.736,3.888" transform="translate(-38.938 -3.336)" fill="#287dfa"/>
    <path id="Path_12889" data-name="Path 12889" d="M80.361,138.72a5.667,5.667,0,0,0-4.826,2.64V138.8H70.71v16.139h5.357v-6.749a4.309,4.309,0,0,1,4.44-4.447c.3,0,.586.069.807.069v-4.915a3.447,3.447,0,0,0-.951-.145" transform="translate(-8.212 -3.668)" fill="#287dfa"/>
  </g>
</svg>
