<svg xmlns="http://www.w3.org/2000/svg" width="112" height="40.511" viewBox="0 0 112 40.511">
  <g id="Page-1" transform="translate(0 -1.808)">
    <g id="wotif-logo" transform="translate(0 1.808)">
      <g id="g7679">
        <path id="Fill-1" d="M95.15,31.7a3.586,3.586,0,1,1-3.578-3.351A3.31,3.31,0,0,1,95.15,31.7" transform="translate(16.85 5.419)" fill="#7ac231"/>
        <path id="Fill-3" d="M84.875,10.271a10.444,10.444,0,0,0-1.666-.121c-1.486,0-2.308.88-2.308,2.7v1.7h3.974v4.557H80.9V29.793h-5.12V19.107H72.833V14.55h2.948V12.57c0-4.4,2.655-6.789,6.479-6.789a14.838,14.838,0,0,1,2.615.24ZM68.627,11.878a3.049,3.049,0,1,1,3.1-3.017A3.029,3.029,0,0,1,68.627,11.878Zm2.288,17.916H65.794V14.55h5.121ZM92.027,26.4a18.625,18.625,0,0,0,2.033-8.714C94.06,7.038,86.373.008,75.187.008c-11.119,0-18.874,7.029-18.874,17.676,0,10.715,7.754,17.881,18.873,17.881h13.5c3.184,0,5.373-2.04,5.373-5.09A4.764,4.764,0,0,0,92.027,26.4Z" transform="translate(10.783 -0.008)" fill="#7ac231"/>
        <path id="Fill-5" d="M17.916,27.88l-3.294-9.57-3.258,9.57H5.626L0,10.028H6.07L8.884,20.113,12.4,10.027h4.479l3.48,10.122,2.85-10.122h6.034L23.653,27.88Z" transform="translate(0 1.91)" fill="#7ac231"/>
        <path id="Fill-7" d="M38.864,18.974a4.224,4.224,0,0,0-4.442-4.417,4.224,4.224,0,0,0-4.442,4.417A4.273,4.273,0,0,0,34.422,23.5a4.273,4.273,0,0,0,4.442-4.527m5.737,0c0,5.779-4.146,9.644-10.179,9.644-6,0-10.179-3.865-10.179-9.644,0-5.742,4.182-9.534,10.179-9.534,6.033,0,10.179,3.791,10.179,9.534" transform="translate(4.642 1.798)" fill="#7ac231"/>
        <path id="Fill-9" d="M56.245,23.94a19.522,19.522,0,0,1-2.145.131c-1.851,0-2.554-1.067-2.554-2.834v-4.9h4.7V11h-4.7V4.93h-6V11H42.106v5.338h3.443v5.484c0,4.9,2.48,7.582,6.959,7.582a19.294,19.294,0,0,0,3.737-.3Z" transform="translate(8.063 0.934)" fill="#7ac231"/>
      </g>
    </g>
  </g>
</svg>
