<svg xmlns="http://www.w3.org/2000/svg" width="24" height="24" viewBox="0 0 24 24">
  <g id="usa" transform="translate(0 0)">
    <path id="Path_21092" data-name="Path 21092" d="M12,24A12,12,0,1,0,0,12,12,12,0,0,0,12,24Z" transform="translate(0 0)" fill="#f0f0f0"/>
    <g id="Group_12176" data-name="Group 12176" transform="translate(0 0)">
      <path id="Path_21093" data-name="Path 21093" d="M30.633,58.614H19.867V55.48h8a12,12,0,0,1,2.767,3.134Zm1.773,6.266H19.874V61.747h12.12a12.013,12.013,0,0,1,.413,3.133Zm-12,12a11.92,11.92,0,0,0,7.467-2.606H12.94A11.915,11.915,0,0,0,20.407,76.88Zm10.24-5.733H10.167A11.874,11.874,0,0,1,8.82,68.014H31.993A11.867,11.867,0,0,1,30.647,71.147Z" transform="translate(-8.407 -52.879)" fill="#d80027" fill-rule="evenodd"/>
      <path id="Path_21094" data-name="Path 21094" d="M5.571,1.867H5.56v.008Zm0,0H6.656L5.634,2.6l.387,1.2L5,3.067,3.987,3.8,4.32,2.765A12,12,0,0,0,2,5.367h.353l-.647.469-.293.516L1.72,7.3l-.58-.422-.4.931.333,1.045H2.34L1.334,9.6l.387,1.2L.7,10.067l-.6.44A11.115,11.115,0,0,0,0,12H12V0A11.946,11.946,0,0,0,5.571,1.867Zm.447,8.927.009.007H6.021ZM5.633,9.6l.385,1.193L5,10.068,3.98,10.8l.387-1.2-1.02-.734H4.612L5,7.668l.387,1.2H6.652ZM5.64,6.108l.387,1.2-1.02-.734-1.02.734.387-1.2-1.02-.734H4.62l.387-1.2.387,1.2H6.659Zm3.673,3.96,1.02.734L9.947,9.6l1.022-.734H9.7l-.387-1.2-.387,1.2H7.664l1.02.734L8.3,10.8Zm.633-3.96.387,1.2-1.02-.734-1.02.734.387-1.2L7.66,5.374H8.926l.387-1.2.387,1.2h1.266Zm.387-2.294-.387-1.2,1.022-.734H9.7L9.316.68,8.93,1.88H7.664l1.02.734L8.3,3.814l1.02-.734Z" transform="translate(0 0)" fill="#0052b4" fill-rule="evenodd"/>
    </g>
  </g>
</svg>
