<svg xmlns="http://www.w3.org/2000/svg" width="11.15" height="18" viewBox="0 0 11.15 18">
  <g id="Icon_ionic-ios-arrow-forward" data-name="Icon ionic-ios-arrow-forward" transform="translate(-10.245 -5.196)" fill="#bdc1c3" stroke-linejoin="round">
    <path d="M 19.24430656433105 22.69629287719727 C 18.80355644226074 22.69629287719727 18.3903865814209 22.52585220336914 18.0809268951416 22.21638298034668 L 11.19228649139404 15.31345176696777 L 11.18462657928467 15.30577182769775 L 11.17730617523193 15.29777240753174 C 10.58275699615479 14.6479320526123 10.60414695739746 13.65178203582764 11.22600650787354 13.02993202209473 L 18.08581733703613 6.174871921539307 C 18.39838600158691 5.865622043609619 18.81087684631348 5.696291923522949 19.24907684326172 5.696291923522949 C 19.68727684020996 5.696291923522949 20.09976577758789 5.865632057189941 20.41055679321289 6.173111915588379 C 20.72161674499512 6.480862140655518 20.8935661315918 6.891662120819092 20.89473724365234 7.329832077026367 C 20.89590644836426 7.770311832427979 20.7246265411377 8.184822082519531 20.41244697570801 8.497001647949219 L 14.71136665344238 14.19359016418457 L 20.40782737731934 19.89453125 C 20.71684646606445 20.20026206970215 20.88879585266113 20.61105155944824 20.88996696472168 21.04920196533203 C 20.89114570617676 21.48969268798828 20.7198657989502 21.90420150756836 20.40769577026367 22.21638298034668 C 20.09823608398438 22.52585220336914 19.68506622314453 22.69629287719727 19.24430656433105 22.69629287719727 Z" stroke="none"/>
    <path d="M 19.24430656433105 22.19629287719727 C 19.53489685058594 22.19629287719727 19.83024597167969 22.08673286437988 20.05413627624512 21.86283111572266 C 20.50191688537598 21.41504287719727 20.50191688537598 20.69097137451172 20.05413627624512 20.2479419708252 L 14.0042667388916 14.19331169128418 L 20.05889701843262 8.143442153930664 C 20.50668716430664 7.695662021636963 20.50668716430664 6.971581935882568 20.05889701843262 6.528552055358887 C 19.61111831665039 6.08553409576416 18.88703727722168 6.085531234741211 18.43924713134766 6.528552055358887 L 11.57955646514893 13.3834924697876 C 11.14605617523193 13.81698226928711 11.1365270614624 14.51248168945312 11.5462064743042 14.96026229858398 L 18.43448638916016 21.86283111572266 C 18.65837669372559 22.08673286437988 18.95372581481934 22.19629287719727 19.24430656433105 22.19629287719727 M 19.24430656433105 23.19629287719727 C 18.66999626159668 23.19629287719727 18.13126754760742 22.97384262084961 17.72736740112305 22.56992149353027 L 10.83836650848389 15.6666316986084 C 10.82815647125244 15.65640163421631 10.81816673278809 15.64595222473145 10.80840682983398 15.63528251647949 C 10.03281688690186 14.78757190704346 10.06095695495605 13.48786163330078 10.87245655059814 12.67638206481934 L 17.73238754272461 5.821202278137207 C 17.73356628417969 5.820022106170654 17.73475646972656 5.818841934204102 17.73594665527344 5.817662239074707 C 18.14096641540527 5.416962146759033 18.67833709716797 5.196291923522949 19.24907684326172 5.196291923522949 C 19.81982612609863 5.196291923522949 20.35720634460449 5.416972160339355 20.76221656799316 5.817672252655029 C 21.16857719421387 6.219712257385254 21.39320755004883 6.756271839141846 21.39472579956055 7.328492164611816 C 21.39626693725586 7.903041839599609 21.17297744750977 8.443592071533203 20.7659969329834 8.850551605224609 L 15.41847705841064 14.19386863708496 L 20.75880432128906 19.53839874267578 C 21.16429901123047 19.94029235839844 21.3884391784668 20.47628021240234 21.38996696472168 21.04787254333496 C 21.3914966583252 21.62241172790527 21.16821670532227 22.1629524230957 20.76124572753906 22.56993293762207 C 20.35735702514648 22.97384262084961 19.81862640380859 23.19629287719727 19.24430656433105 23.19629287719727 Z" stroke="none" fill="#1f343e"/>
  </g>
</svg>
